<?xml version="1.0" encoding="utf-8" standalone="no"?>
<!DOCTYPE svg PUBLIC "-//W3C//DTD SVG 1.1//EN"
  "http://www.w3.org/Graphics/SVG/1.1/DTD/svg11.dtd">
<!-- Created with matplotlib (https://matplotlib.org/) -->
<svg height="558pt" version="1.1" viewBox="0 0 574.56 558" width="574.56pt" xmlns="http://www.w3.org/2000/svg" xmlns:xlink="http://www.w3.org/1999/xlink">
 <metadata>
  <rdf:RDF xmlns:cc="http://creativecommons.org/ns#" xmlns:dc="http://purl.org/dc/elements/1.1/" xmlns:rdf="http://www.w3.org/1999/02/22-rdf-syntax-ns#">
   <cc:Work>
    <dc:type rdf:resource="http://purl.org/dc/dcmitype/StillImage"/>
    <dc:date>2021-02-26T12:43:45.895799</dc:date>
    <dc:format>image/svg+xml</dc:format>
    <dc:creator>
     <cc:Agent>
      <dc:title>Matplotlib v3.3.2, https://matplotlib.org/</dc:title>
     </cc:Agent>
    </dc:creator>
   </cc:Work>
  </rdf:RDF>
 </metadata>
 <defs>
  <style type="text/css">*{stroke-linecap:butt;stroke-linejoin:round;}</style>
 </defs>
 <g id="figure_1">
  <g id="patch_1">
   <path d="M 0 558 
L 574.56 558 
L 574.56 0 
L 0 0 
z
" style="fill:#ffffff;"/>
  </g>
  <g id="axes_1">
   <g id="patch_2">
    <path d="M 71.82 496.62 
L 517.104 496.62 
L 517.104 66.96 
L 71.82 66.96 
z
" style="fill:#ffffff;"/>
   </g>
   <g id="matplotlib.axis_1">
    <g id="xtick_1">
     <g id="line2d_1">
      <defs>
       <path d="M 0 0 
L 0 3.5 
" id="mb9b23dc8c8" style="stroke:#000000;stroke-width:0.8;"/>
      </defs>
      <g>
       <use style="stroke:#000000;stroke-width:0.8;" x="132.540545" xlink:href="#mb9b23dc8c8" y="496.62"/>
      </g>
     </g>
     <g id="text_1">
      <!-- −4 -->
      <g transform="translate(125.169452 511.218437)scale(0.1 -0.1)">
       <defs>
        <path d="M 10.59375 35.5 
L 73.1875 35.5 
L 73.1875 27.203125 
L 10.59375 27.203125 
z
" id="DejaVuSans-8722"/>
        <path d="M 37.796875 64.3125 
L 12.890625 25.390625 
L 37.796875 25.390625 
z
M 35.203125 72.90625 
L 47.609375 72.90625 
L 47.609375 25.390625 
L 58.015625 25.390625 
L 58.015625 17.1875 
L 47.609375 17.1875 
L 47.609375 0 
L 37.796875 0 
L 37.796875 17.1875 
L 4.890625 17.1875 
L 4.890625 26.703125 
z
" id="DejaVuSans-52"/>
       </defs>
       <use xlink:href="#DejaVuSans-8722"/>
       <use x="83.789062" xlink:href="#DejaVuSans-52"/>
      </g>
     </g>
    </g>
    <g id="xtick_2">
     <g id="line2d_2">
      <g>
       <use style="stroke:#000000;stroke-width:0.8;" x="213.501273" xlink:href="#mb9b23dc8c8" y="496.62"/>
      </g>
     </g>
     <g id="text_2">
      <!-- −2 -->
      <g transform="translate(206.130179 511.218437)scale(0.1 -0.1)">
       <defs>
        <path d="M 19.1875 8.296875 
L 53.609375 8.296875 
L 53.609375 0 
L 7.328125 0 
L 7.328125 8.296875 
Q 12.9375 14.109375 22.625 23.890625 
Q 32.328125 33.6875 34.8125 36.53125 
Q 39.546875 41.84375 41.421875 45.53125 
Q 43.3125 49.21875 43.3125 52.78125 
Q 43.3125 58.59375 39.234375 62.25 
Q 35.15625 65.921875 28.609375 65.921875 
Q 23.96875 65.921875 18.8125 64.3125 
Q 13.671875 62.703125 7.8125 59.421875 
L 7.8125 69.390625 
Q 13.765625 71.78125 18.9375 73 
Q 24.125 74.21875 28.421875 74.21875 
Q 39.75 74.21875 46.484375 68.546875 
Q 53.21875 62.890625 53.21875 53.421875 
Q 53.21875 48.921875 51.53125 44.890625 
Q 49.859375 40.875 45.40625 35.40625 
Q 44.1875 33.984375 37.640625 27.21875 
Q 31.109375 20.453125 19.1875 8.296875 
z
" id="DejaVuSans-50"/>
       </defs>
       <use xlink:href="#DejaVuSans-8722"/>
       <use x="83.789062" xlink:href="#DejaVuSans-50"/>
      </g>
     </g>
    </g>
    <g id="xtick_3">
     <g id="line2d_3">
      <g>
       <use style="stroke:#000000;stroke-width:0.8;" x="294.462" xlink:href="#mb9b23dc8c8" y="496.62"/>
      </g>
     </g>
     <g id="text_3">
      <!-- 0 -->
      <g transform="translate(291.28075 511.218437)scale(0.1 -0.1)">
       <defs>
        <path d="M 31.78125 66.40625 
Q 24.171875 66.40625 20.328125 58.90625 
Q 16.5 51.421875 16.5 36.375 
Q 16.5 21.390625 20.328125 13.890625 
Q 24.171875 6.390625 31.78125 6.390625 
Q 39.453125 6.390625 43.28125 13.890625 
Q 47.125 21.390625 47.125 36.375 
Q 47.125 51.421875 43.28125 58.90625 
Q 39.453125 66.40625 31.78125 66.40625 
z
M 31.78125 74.21875 
Q 44.046875 74.21875 50.515625 64.515625 
Q 56.984375 54.828125 56.984375 36.375 
Q 56.984375 17.96875 50.515625 8.265625 
Q 44.046875 -1.421875 31.78125 -1.421875 
Q 19.53125 -1.421875 13.0625 8.265625 
Q 6.59375 17.96875 6.59375 36.375 
Q 6.59375 54.828125 13.0625 64.515625 
Q 19.53125 74.21875 31.78125 74.21875 
z
" id="DejaVuSans-48"/>
       </defs>
       <use xlink:href="#DejaVuSans-48"/>
      </g>
     </g>
    </g>
    <g id="xtick_4">
     <g id="line2d_4">
      <g>
       <use style="stroke:#000000;stroke-width:0.8;" x="375.422727" xlink:href="#mb9b23dc8c8" y="496.62"/>
      </g>
     </g>
     <g id="text_4">
      <!-- 2 -->
      <g transform="translate(372.241477 511.218437)scale(0.1 -0.1)">
       <use xlink:href="#DejaVuSans-50"/>
      </g>
     </g>
    </g>
    <g id="xtick_5">
     <g id="line2d_5">
      <g>
       <use style="stroke:#000000;stroke-width:0.8;" x="456.383455" xlink:href="#mb9b23dc8c8" y="496.62"/>
      </g>
     </g>
     <g id="text_5">
      <!-- 4 -->
      <g transform="translate(453.202205 511.218437)scale(0.1 -0.1)">
       <use xlink:href="#DejaVuSans-52"/>
      </g>
     </g>
    </g>
   </g>
   <g id="matplotlib.axis_2">
    <g id="ytick_1">
     <g id="line2d_6">
      <defs>
       <path d="M 0 0 
L -3.5 0 
" id="m236f6d7a31" style="stroke:#000000;stroke-width:0.8;"/>
      </defs>
      <g>
       <use style="stroke:#000000;stroke-width:0.8;" x="71.82" xlink:href="#m236f6d7a31" y="490.11"/>
      </g>
     </g>
     <g id="text_6">
      <!-- −1 -->
      <g transform="translate(50.077813 493.909219)scale(0.1 -0.1)">
       <defs>
        <path d="M 12.40625 8.296875 
L 28.515625 8.296875 
L 28.515625 63.921875 
L 10.984375 60.40625 
L 10.984375 69.390625 
L 28.421875 72.90625 
L 38.28125 72.90625 
L 38.28125 8.296875 
L 54.390625 8.296875 
L 54.390625 0 
L 12.40625 0 
z
" id="DejaVuSans-49"/>
       </defs>
       <use xlink:href="#DejaVuSans-8722"/>
       <use x="83.789062" xlink:href="#DejaVuSans-49"/>
      </g>
     </g>
    </g>
    <g id="ytick_2">
     <g id="line2d_7">
      <g>
       <use style="stroke:#000000;stroke-width:0.8;" x="71.82" xlink:href="#m236f6d7a31" y="425.01"/>
      </g>
     </g>
     <g id="text_7">
      <!-- 0 -->
      <g transform="translate(58.4575 428.809219)scale(0.1 -0.1)">
       <use xlink:href="#DejaVuSans-48"/>
      </g>
     </g>
    </g>
    <g id="ytick_3">
     <g id="line2d_8">
      <g>
       <use style="stroke:#000000;stroke-width:0.8;" x="71.82" xlink:href="#m236f6d7a31" y="359.91"/>
      </g>
     </g>
     <g id="text_8">
      <!-- 1 -->
      <g transform="translate(58.4575 363.709219)scale(0.1 -0.1)">
       <use xlink:href="#DejaVuSans-49"/>
      </g>
     </g>
    </g>
    <g id="ytick_4">
     <g id="line2d_9">
      <g>
       <use style="stroke:#000000;stroke-width:0.8;" x="71.82" xlink:href="#m236f6d7a31" y="294.81"/>
      </g>
     </g>
     <g id="text_9">
      <!-- 2 -->
      <g transform="translate(58.4575 298.609219)scale(0.1 -0.1)">
       <use xlink:href="#DejaVuSans-50"/>
      </g>
     </g>
    </g>
    <g id="ytick_5">
     <g id="line2d_10">
      <g>
       <use style="stroke:#000000;stroke-width:0.8;" x="71.82" xlink:href="#m236f6d7a31" y="229.71"/>
      </g>
     </g>
     <g id="text_10">
      <!-- 3 -->
      <g transform="translate(58.4575 233.509219)scale(0.1 -0.1)">
       <defs>
        <path d="M 40.578125 39.3125 
Q 47.65625 37.796875 51.625 33 
Q 55.609375 28.21875 55.609375 21.1875 
Q 55.609375 10.40625 48.1875 4.484375 
Q 40.765625 -1.421875 27.09375 -1.421875 
Q 22.515625 -1.421875 17.65625 -0.515625 
Q 12.796875 0.390625 7.625 2.203125 
L 7.625 11.71875 
Q 11.71875 9.328125 16.59375 8.109375 
Q 21.484375 6.890625 26.8125 6.890625 
Q 36.078125 6.890625 40.9375 10.546875 
Q 45.796875 14.203125 45.796875 21.1875 
Q 45.796875 27.640625 41.28125 31.265625 
Q 36.765625 34.90625 28.71875 34.90625 
L 20.21875 34.90625 
L 20.21875 43.015625 
L 29.109375 43.015625 
Q 36.375 43.015625 40.234375 45.921875 
Q 44.09375 48.828125 44.09375 54.296875 
Q 44.09375 59.90625 40.109375 62.90625 
Q 36.140625 65.921875 28.71875 65.921875 
Q 24.65625 65.921875 20.015625 65.03125 
Q 15.375 64.15625 9.8125 62.3125 
L 9.8125 71.09375 
Q 15.4375 72.65625 20.34375 73.4375 
Q 25.25 74.21875 29.59375 74.21875 
Q 40.828125 74.21875 47.359375 69.109375 
Q 53.90625 64.015625 53.90625 55.328125 
Q 53.90625 49.265625 50.4375 45.09375 
Q 46.96875 40.921875 40.578125 39.3125 
z
" id="DejaVuSans-51"/>
       </defs>
       <use xlink:href="#DejaVuSans-51"/>
      </g>
     </g>
    </g>
    <g id="ytick_6">
     <g id="line2d_11">
      <g>
       <use style="stroke:#000000;stroke-width:0.8;" x="71.82" xlink:href="#m236f6d7a31" y="164.61"/>
      </g>
     </g>
     <g id="text_11">
      <!-- 4 -->
      <g transform="translate(58.4575 168.409219)scale(0.1 -0.1)">
       <use xlink:href="#DejaVuSans-52"/>
      </g>
     </g>
    </g>
    <g id="ytick_7">
     <g id="line2d_12">
      <g>
       <use style="stroke:#000000;stroke-width:0.8;" x="71.82" xlink:href="#m236f6d7a31" y="99.51"/>
      </g>
     </g>
     <g id="text_12">
      <!-- 5 -->
      <g transform="translate(58.4575 103.309219)scale(0.1 -0.1)">
       <defs>
        <path d="M 10.796875 72.90625 
L 49.515625 72.90625 
L 49.515625 64.59375 
L 19.828125 64.59375 
L 19.828125 46.734375 
Q 21.96875 47.46875 24.109375 47.828125 
Q 26.265625 48.1875 28.421875 48.1875 
Q 40.625 48.1875 47.75 41.5 
Q 54.890625 34.8125 54.890625 23.390625 
Q 54.890625 11.625 47.5625 5.09375 
Q 40.234375 -1.421875 26.90625 -1.421875 
Q 22.3125 -1.421875 17.546875 -0.640625 
Q 12.796875 0.140625 7.71875 1.703125 
L 7.71875 11.625 
Q 12.109375 9.234375 16.796875 8.0625 
Q 21.484375 6.890625 26.703125 6.890625 
Q 35.15625 6.890625 40.078125 11.328125 
Q 45.015625 15.765625 45.015625 23.390625 
Q 45.015625 31 40.078125 35.4375 
Q 35.15625 39.890625 26.703125 39.890625 
Q 22.75 39.890625 18.8125 39.015625 
Q 14.890625 38.140625 10.796875 36.28125 
z
" id="DejaVuSans-53"/>
       </defs>
       <use xlink:href="#DejaVuSans-53"/>
      </g>
     </g>
    </g>
   </g>
   <g id="line2d_13">
    <path clip-path="url(#p1ce6238a83)" d="M 294.462 425.01 
L 294.462 359.91 
L 294.462 294.81 
L 294.462 229.71 
L 294.462 164.61 
L 294.462 99.51 
" style="fill:none;stroke:#ff0000;stroke-linecap:square;stroke-opacity:0.005;stroke-width:1.5;"/>
    <defs>
     <path d="M 0 3 
C 0.795609 3 1.55874 2.683901 2.12132 2.12132 
C 2.683901 1.55874 3 0.795609 3 0 
C 3 -0.795609 2.683901 -1.55874 2.12132 -2.12132 
C 1.55874 -2.683901 0.795609 -3 0 -3 
C -0.795609 -3 -1.55874 -2.683901 -2.12132 -2.12132 
C -2.683901 -1.55874 -3 -0.795609 -3 0 
C -3 0.795609 -2.683901 1.55874 -2.12132 2.12132 
C -1.55874 2.683901 -0.795609 3 0 3 
z
" id="m9b2f150244" style="stroke:#ff0000;stroke-opacity:0.005;"/>
    </defs>
    <g clip-path="url(#p1ce6238a83)">
     <use style="fill-opacity:0.005;stroke:#ff0000;stroke-opacity:0.005;" x="294.462" xlink:href="#m9b2f150244" y="425.01"/>
     <use style="fill-opacity:0.005;stroke:#ff0000;stroke-opacity:0.005;" x="294.462" xlink:href="#m9b2f150244" y="359.91"/>
     <use style="fill-opacity:0.005;stroke:#ff0000;stroke-opacity:0.005;" x="294.462" xlink:href="#m9b2f150244" y="294.81"/>
     <use style="fill-opacity:0.005;stroke:#ff0000;stroke-opacity:0.005;" x="294.462" xlink:href="#m9b2f150244" y="229.71"/>
     <use style="fill-opacity:0.005;stroke:#ff0000;stroke-opacity:0.005;" x="294.462" xlink:href="#m9b2f150244" y="164.61"/>
     <use style="fill-opacity:0.005;stroke:#ff0000;stroke-opacity:0.005;" x="294.462" xlink:href="#m9b2f150244" y="99.51"/>
    </g>
   </g>
   <g id="line2d_14">
    <path clip-path="url(#p1ce6238a83)" d="M 294.462 425.01 
L 314.187118 368.161561 
L 331.792425 309.540703 
L 349.692761 251.151376 
L 360.389797 188.365451 
L 361.879418 123.309543 
" style="fill:none;stroke:#ff0000;stroke-linecap:square;stroke-opacity:0.1;stroke-width:1.5;"/>
    <defs>
     <path d="M 0 3 
C 0.795609 3 1.55874 2.683901 2.12132 2.12132 
C 2.683901 1.55874 3 0.795609 3 0 
C 3 -0.795609 2.683901 -1.55874 2.12132 -2.12132 
C 1.55874 -2.683901 0.795609 -3 0 -3 
C -0.795609 -3 -1.55874 -2.683901 -2.12132 -2.12132 
C -2.683901 -1.55874 -3 -0.795609 -3 0 
C -3 0.795609 -2.683901 1.55874 -2.12132 2.12132 
C -1.55874 2.683901 -0.795609 3 0 3 
z
" id="me80bc26a51" style="stroke:#ff0000;stroke-opacity:0.1;"/>
    </defs>
    <g clip-path="url(#p1ce6238a83)">
     <use style="fill-opacity:0.1;stroke:#ff0000;stroke-opacity:0.1;" x="294.462" xlink:href="#me80bc26a51" y="425.01"/>
     <use style="fill-opacity:0.1;stroke:#ff0000;stroke-opacity:0.1;" x="314.187118" xlink:href="#me80bc26a51" y="368.161561"/>
     <use style="fill-opacity:0.1;stroke:#ff0000;stroke-opacity:0.1;" x="331.792425" xlink:href="#me80bc26a51" y="309.540703"/>
     <use style="fill-opacity:0.1;stroke:#ff0000;stroke-opacity:0.1;" x="349.692761" xlink:href="#me80bc26a51" y="251.151376"/>
     <use style="fill-opacity:0.1;stroke:#ff0000;stroke-opacity:0.1;" x="360.389797" xlink:href="#me80bc26a51" y="188.365451"/>
     <use style="fill-opacity:0.1;stroke:#ff0000;stroke-opacity:0.1;" x="361.879418" xlink:href="#me80bc26a51" y="123.309543"/>
    </g>
   </g>
   <g id="line2d_15">
    <path clip-path="url(#p1ce6238a83)" d="M 294.462 425.01 
L 332.612126 403.241314 
L 363.731063 361.605987 
L 383.167058 304.500578 
L 375.864727 240.468556 
L 341.494488 206.07641 
" style="fill:none;stroke:#ff0000;stroke-linecap:square;stroke-opacity:0.2;stroke-width:1.5;"/>
    <defs>
     <path d="M 0 3 
C 0.795609 3 1.55874 2.683901 2.12132 2.12132 
C 2.683901 1.55874 3 0.795609 3 0 
C 3 -0.795609 2.683901 -1.55874 2.12132 -2.12132 
C 1.55874 -2.683901 0.795609 -3 0 -3 
C -0.795609 -3 -1.55874 -2.683901 -2.12132 -2.12132 
C -2.683901 -1.55874 -3 -0.795609 -3 0 
C -3 0.795609 -2.683901 1.55874 -2.12132 2.12132 
C -1.55874 2.683901 -0.795609 3 0 3 
z
" id="m687cba5087" style="stroke:#ff0000;stroke-opacity:0.2;"/>
    </defs>
    <g clip-path="url(#p1ce6238a83)">
     <use style="fill-opacity:0.2;stroke:#ff0000;stroke-opacity:0.2;" x="294.462" xlink:href="#m687cba5087" y="425.01"/>
     <use style="fill-opacity:0.2;stroke:#ff0000;stroke-opacity:0.2;" x="332.612126" xlink:href="#m687cba5087" y="403.241314"/>
     <use style="fill-opacity:0.2;stroke:#ff0000;stroke-opacity:0.2;" x="363.731063" xlink:href="#m687cba5087" y="361.605987"/>
     <use style="fill-opacity:0.2;stroke:#ff0000;stroke-opacity:0.2;" x="383.167058" xlink:href="#m687cba5087" y="304.500578"/>
     <use style="fill-opacity:0.2;stroke:#ff0000;stroke-opacity:0.2;" x="375.864727" xlink:href="#m687cba5087" y="240.468556"/>
     <use style="fill-opacity:0.2;stroke:#ff0000;stroke-opacity:0.2;" x="341.494488" xlink:href="#m687cba5087" y="206.07641"/>
    </g>
   </g>
   <g id="line2d_16">
    <path clip-path="url(#p1ce6238a83)" d="M 294.462 425.01 
L 334.151647 437.814215 
L 369.621689 406.442776 
L 375.879642 342.125386 
L 341.334034 308.190702 
L 315.948978 358.899848 
" style="fill:none;stroke:#ff0000;stroke-linecap:square;stroke-opacity:0.3;stroke-width:1.5;"/>
    <defs>
     <path d="M 0 3 
C 0.795609 3 1.55874 2.683901 2.12132 2.12132 
C 2.683901 1.55874 3 0.795609 3 0 
C 3 -0.795609 2.683901 -1.55874 2.12132 -2.12132 
C 1.55874 -2.683901 0.795609 -3 0 -3 
C -0.795609 -3 -1.55874 -2.683901 -2.12132 -2.12132 
C -2.683901 -1.55874 -3 -0.795609 -3 0 
C -3 0.795609 -2.683901 1.55874 -2.12132 2.12132 
C -1.55874 2.683901 -0.795609 3 0 3 
z
" id="mb588a9fd81" style="stroke:#ff0000;stroke-opacity:0.3;"/>
    </defs>
    <g clip-path="url(#p1ce6238a83)">
     <use style="fill-opacity:0.3;stroke:#ff0000;stroke-opacity:0.3;" x="294.462" xlink:href="#mb588a9fd81" y="425.01"/>
     <use style="fill-opacity:0.3;stroke:#ff0000;stroke-opacity:0.3;" x="334.151647" xlink:href="#mb588a9fd81" y="437.814215"/>
     <use style="fill-opacity:0.3;stroke:#ff0000;stroke-opacity:0.3;" x="369.621689" xlink:href="#mb588a9fd81" y="406.442776"/>
     <use style="fill-opacity:0.3;stroke:#ff0000;stroke-opacity:0.3;" x="375.879642" xlink:href="#mb588a9fd81" y="342.125386"/>
     <use style="fill-opacity:0.3;stroke:#ff0000;stroke-opacity:0.3;" x="341.334034" xlink:href="#mb588a9fd81" y="308.190702"/>
     <use style="fill-opacity:0.3;stroke:#ff0000;stroke-opacity:0.3;" x="315.948978" xlink:href="#mb588a9fd81" y="358.899848"/>
    </g>
   </g>
   <g id="line2d_17">
    <path clip-path="url(#p1ce6238a83)" d="M 294.462 425.01 
L 330.629638 454.249026 
L 369.057038 433.780477 
L 375.207034 369.436161 
L 338.12745 343.31788 
L 321.738281 402.843726 
" style="fill:none;stroke:#ff0000;stroke-linecap:square;stroke-opacity:0.4;stroke-width:1.5;"/>
    <defs>
     <path d="M 0 3 
C 0.795609 3 1.55874 2.683901 2.12132 2.12132 
C 2.683901 1.55874 3 0.795609 3 0 
C 3 -0.795609 2.683901 -1.55874 2.12132 -2.12132 
C 1.55874 -2.683901 0.795609 -3 0 -3 
C -0.795609 -3 -1.55874 -2.683901 -2.12132 -2.12132 
C -2.683901 -1.55874 -3 -0.795609 -3 0 
C -3 0.795609 -2.683901 1.55874 -2.12132 2.12132 
C -1.55874 2.683901 -0.795609 3 0 3 
z
" id="m6f781333b4" style="stroke:#ff0000;stroke-opacity:0.4;"/>
    </defs>
    <g clip-path="url(#p1ce6238a83)">
     <use style="fill-opacity:0.4;stroke:#ff0000;stroke-opacity:0.4;" x="294.462" xlink:href="#m6f781333b4" y="425.01"/>
     <use style="fill-opacity:0.4;stroke:#ff0000;stroke-opacity:0.4;" x="330.629638" xlink:href="#m6f781333b4" y="454.249026"/>
     <use style="fill-opacity:0.4;stroke:#ff0000;stroke-opacity:0.4;" x="369.057038" xlink:href="#m6f781333b4" y="433.780477"/>
     <use style="fill-opacity:0.4;stroke:#ff0000;stroke-opacity:0.4;" x="375.207034" xlink:href="#m6f781333b4" y="369.436161"/>
     <use style="fill-opacity:0.4;stroke:#ff0000;stroke-opacity:0.4;" x="338.12745" xlink:href="#m6f781333b4" y="343.31788"/>
     <use style="fill-opacity:0.4;stroke:#ff0000;stroke-opacity:0.4;" x="321.738281" xlink:href="#m6f781333b4" y="402.843726"/>
    </g>
   </g>
   <g id="line2d_18">
    <path clip-path="url(#p1ce6238a83)" d="M 294.462 425.01 
L 327.927147 461.637985 
L 368.406462 461.169396 
L 392.14846 408.44201 
L 372.375238 351.636807 
L 332.548574 363.288857 
" style="fill:none;stroke:#ff0000;stroke-linecap:square;stroke-opacity:0.5;stroke-width:1.5;"/>
    <defs>
     <path d="M 0 3 
C 0.795609 3 1.55874 2.683901 2.12132 2.12132 
C 2.683901 1.55874 3 0.795609 3 0 
C 3 -0.795609 2.683901 -1.55874 2.12132 -2.12132 
C 1.55874 -2.683901 0.795609 -3 0 -3 
C -0.795609 -3 -1.55874 -2.683901 -2.12132 -2.12132 
C -2.683901 -1.55874 -3 -0.795609 -3 0 
C -3 0.795609 -2.683901 1.55874 -2.12132 2.12132 
C -1.55874 2.683901 -0.795609 3 0 3 
z
" id="m141130ac0d" style="stroke:#ff0000;stroke-opacity:0.5;"/>
    </defs>
    <g clip-path="url(#p1ce6238a83)">
     <use style="fill-opacity:0.5;stroke:#ff0000;stroke-opacity:0.5;" x="294.462" xlink:href="#m141130ac0d" y="425.01"/>
     <use style="fill-opacity:0.5;stroke:#ff0000;stroke-opacity:0.5;" x="327.927147" xlink:href="#m141130ac0d" y="461.637985"/>
     <use style="fill-opacity:0.5;stroke:#ff0000;stroke-opacity:0.5;" x="368.406462" xlink:href="#m141130ac0d" y="461.169396"/>
     <use style="fill-opacity:0.5;stroke:#ff0000;stroke-opacity:0.5;" x="392.14846" xlink:href="#m141130ac0d" y="408.44201"/>
     <use style="fill-opacity:0.5;stroke:#ff0000;stroke-opacity:0.5;" x="372.375238" xlink:href="#m141130ac0d" y="351.636807"/>
     <use style="fill-opacity:0.5;stroke:#ff0000;stroke-opacity:0.5;" x="332.548574" xlink:href="#m141130ac0d" y="363.288857"/>
    </g>
   </g>
   <g id="line2d_19">
    <path clip-path="url(#p1ce6238a83)" d="M 294.462 425.01 
L 327.796066 461.945822 
L 367.28311 476.278839 
L 403.346445 446.708492 
L 412.329681 383.231708 
L 388.614826 330.47274 
" style="fill:none;stroke:#ff0000;stroke-linecap:square;stroke-opacity:0.6;stroke-width:1.5;"/>
    <defs>
     <path d="M 0 3 
C 0.795609 3 1.55874 2.683901 2.12132 2.12132 
C 2.683901 1.55874 3 0.795609 3 0 
C 3 -0.795609 2.683901 -1.55874 2.12132 -2.12132 
C 1.55874 -2.683901 0.795609 -3 0 -3 
C -0.795609 -3 -1.55874 -2.683901 -2.12132 -2.12132 
C -2.683901 -1.55874 -3 -0.795609 -3 0 
C -3 0.795609 -2.683901 1.55874 -2.12132 2.12132 
C -1.55874 2.683901 -0.795609 3 0 3 
z
" id="m1226227d81" style="stroke:#ff0000;stroke-opacity:0.6;"/>
    </defs>
    <g clip-path="url(#p1ce6238a83)">
     <use style="fill-opacity:0.6;stroke:#ff0000;stroke-opacity:0.6;" x="294.462" xlink:href="#m1226227d81" y="425.01"/>
     <use style="fill-opacity:0.6;stroke:#ff0000;stroke-opacity:0.6;" x="327.796066" xlink:href="#m1226227d81" y="461.945822"/>
     <use style="fill-opacity:0.6;stroke:#ff0000;stroke-opacity:0.6;" x="367.28311" xlink:href="#m1226227d81" y="476.278839"/>
     <use style="fill-opacity:0.6;stroke:#ff0000;stroke-opacity:0.6;" x="403.346445" xlink:href="#m1226227d81" y="446.708492"/>
     <use style="fill-opacity:0.6;stroke:#ff0000;stroke-opacity:0.6;" x="412.329681" xlink:href="#m1226227d81" y="383.231708"/>
     <use style="fill-opacity:0.6;stroke:#ff0000;stroke-opacity:0.6;" x="388.614826" xlink:href="#m1226227d81" y="330.47274"/>
    </g>
   </g>
   <g id="line2d_20">
    <path clip-path="url(#p1ce6238a83)" d="M 294.462 425.01 
L 331.114599 452.643075 
L 370.005619 470.705556 
L 409.661154 457.630844 
L 438.993028 412.765565 
L 449.813634 350.034427 
" style="fill:none;stroke:#ff0000;stroke-linecap:square;stroke-opacity:0.7;stroke-width:1.5;"/>
    <defs>
     <path d="M 0 3 
C 0.795609 3 1.55874 2.683901 2.12132 2.12132 
C 2.683901 1.55874 3 0.795609 3 0 
C 3 -0.795609 2.683901 -1.55874 2.12132 -2.12132 
C 1.55874 -2.683901 0.795609 -3 0 -3 
C -0.795609 -3 -1.55874 -2.683901 -2.12132 -2.12132 
C -2.683901 -1.55874 -3 -0.795609 -3 0 
C -3 0.795609 -2.683901 1.55874 -2.12132 2.12132 
C -1.55874 2.683901 -0.795609 3 0 3 
z
" id="m4d480d8f69" style="stroke:#ff0000;stroke-opacity:0.7;"/>
    </defs>
    <g clip-path="url(#p1ce6238a83)">
     <use style="fill-opacity:0.7;stroke:#ff0000;stroke-opacity:0.7;" x="294.462" xlink:href="#m4d480d8f69" y="425.01"/>
     <use style="fill-opacity:0.7;stroke:#ff0000;stroke-opacity:0.7;" x="331.114599" xlink:href="#m4d480d8f69" y="452.643075"/>
     <use style="fill-opacity:0.7;stroke:#ff0000;stroke-opacity:0.7;" x="370.005619" xlink:href="#m4d480d8f69" y="470.705556"/>
     <use style="fill-opacity:0.7;stroke:#ff0000;stroke-opacity:0.7;" x="409.661154" xlink:href="#m4d480d8f69" y="457.630844"/>
     <use style="fill-opacity:0.7;stroke:#ff0000;stroke-opacity:0.7;" x="438.993028" xlink:href="#m4d480d8f69" y="412.765565"/>
     <use style="fill-opacity:0.7;stroke:#ff0000;stroke-opacity:0.7;" x="449.813634" xlink:href="#m4d480d8f69" y="350.034427"/>
    </g>
   </g>
   <g id="line2d_21">
    <path clip-path="url(#p1ce6238a83)" d="M 294.462 425.01 
L 333.963714 439.238086 
L 373.390273 453.995451 
L 413.713352 448.262269 
L 451.933673 426.814401 
L 484.013526 387.109995 
" style="fill:none;stroke:#ff0000;stroke-linecap:square;stroke-opacity:0.8;stroke-width:1.5;"/>
    <defs>
     <path d="M 0 3 
C 0.795609 3 1.55874 2.683901 2.12132 2.12132 
C 2.683901 1.55874 3 0.795609 3 0 
C 3 -0.795609 2.683901 -1.55874 2.12132 -2.12132 
C 1.55874 -2.683901 0.795609 -3 0 -3 
C -0.795609 -3 -1.55874 -2.683901 -2.12132 -2.12132 
C -2.683901 -1.55874 -3 -0.795609 -3 0 
C -3 0.795609 -2.683901 1.55874 -2.12132 2.12132 
C -1.55874 2.683901 -0.795609 3 0 3 
z
" id="md0acedf5da" style="stroke:#ff0000;stroke-opacity:0.8;"/>
    </defs>
    <g clip-path="url(#p1ce6238a83)">
     <use style="fill-opacity:0.8;stroke:#ff0000;stroke-opacity:0.8;" x="294.462" xlink:href="#md0acedf5da" y="425.01"/>
     <use style="fill-opacity:0.8;stroke:#ff0000;stroke-opacity:0.8;" x="333.963714" xlink:href="#md0acedf5da" y="439.238086"/>
     <use style="fill-opacity:0.8;stroke:#ff0000;stroke-opacity:0.8;" x="373.390273" xlink:href="#md0acedf5da" y="453.995451"/>
     <use style="fill-opacity:0.8;stroke:#ff0000;stroke-opacity:0.8;" x="413.713352" xlink:href="#md0acedf5da" y="448.262269"/>
     <use style="fill-opacity:0.8;stroke:#ff0000;stroke-opacity:0.8;" x="451.933673" xlink:href="#md0acedf5da" y="426.814401"/>
     <use style="fill-opacity:0.8;stroke:#ff0000;stroke-opacity:0.8;" x="484.013526" xlink:href="#md0acedf5da" y="387.109995"/>
    </g>
   </g>
   <g id="line2d_22">
    <path clip-path="url(#p1ce6238a83)" d="M 294.462 425.01 
L 334.749514 431.356953 
L 374.866573 440.059222 
L 415.283064 436.403605 
L 455.586983 430.331985 
L 494.453064 412.131203 
" style="fill:none;stroke:#ff0000;stroke-linecap:square;stroke-opacity:0.9;stroke-width:1.5;"/>
    <defs>
     <path d="M 0 3 
C 0.795609 3 1.55874 2.683901 2.12132 2.12132 
C 2.683901 1.55874 3 0.795609 3 0 
C 3 -0.795609 2.683901 -1.55874 2.12132 -2.12132 
C 1.55874 -2.683901 0.795609 -3 0 -3 
C -0.795609 -3 -1.55874 -2.683901 -2.12132 -2.12132 
C -2.683901 -1.55874 -3 -0.795609 -3 0 
C -3 0.795609 -2.683901 1.55874 -2.12132 2.12132 
C -1.55874 2.683901 -0.795609 3 0 3 
z
" id="mc6359245e7" style="stroke:#ff0000;stroke-opacity:0.9;"/>
    </defs>
    <g clip-path="url(#p1ce6238a83)">
     <use style="fill-opacity:0.9;stroke:#ff0000;stroke-opacity:0.9;" x="294.462" xlink:href="#mc6359245e7" y="425.01"/>
     <use style="fill-opacity:0.9;stroke:#ff0000;stroke-opacity:0.9;" x="334.749514" xlink:href="#mc6359245e7" y="431.356953"/>
     <use style="fill-opacity:0.9;stroke:#ff0000;stroke-opacity:0.9;" x="374.866573" xlink:href="#mc6359245e7" y="440.059222"/>
     <use style="fill-opacity:0.9;stroke:#ff0000;stroke-opacity:0.9;" x="415.283064" xlink:href="#mc6359245e7" y="436.403605"/>
     <use style="fill-opacity:0.9;stroke:#ff0000;stroke-opacity:0.9;" x="455.586983" xlink:href="#mc6359245e7" y="430.331985"/>
     <use style="fill-opacity:0.9;stroke:#ff0000;stroke-opacity:0.9;" x="494.453064" xlink:href="#mc6359245e7" y="412.131203"/>
    </g>
   </g>
   <g id="line2d_23">
    <path clip-path="url(#p1ce6238a83)" d="M 294.462 425.01 
L 334.874353 428.782057 
L 375.305991 431.975229 
L 415.726102 428.424626 
L 456.199003 429.674606 
L 496.468686 423.041461 
" style="fill:none;stroke:#ff0000;stroke-linecap:square;stroke-opacity:0.995;stroke-width:1.5;"/>
    <defs>
     <path d="M 0 3 
C 0.795609 3 1.55874 2.683901 2.12132 2.12132 
C 2.683901 1.55874 3 0.795609 3 0 
C 3 -0.795609 2.683901 -1.55874 2.12132 -2.12132 
C 1.55874 -2.683901 0.795609 -3 0 -3 
C -0.795609 -3 -1.55874 -2.683901 -2.12132 -2.12132 
C -2.683901 -1.55874 -3 -0.795609 -3 0 
C -3 0.795609 -2.683901 1.55874 -2.12132 2.12132 
C -1.55874 2.683901 -0.795609 3 0 3 
z
" id="m538acf1a1d" style="stroke:#ff0000;stroke-opacity:0.995;"/>
    </defs>
    <g clip-path="url(#p1ce6238a83)">
     <use style="fill-opacity:0.995;stroke:#ff0000;stroke-opacity:0.995;" x="294.462" xlink:href="#m538acf1a1d" y="425.01"/>
     <use style="fill-opacity:0.995;stroke:#ff0000;stroke-opacity:0.995;" x="334.874353" xlink:href="#m538acf1a1d" y="428.782057"/>
     <use style="fill-opacity:0.995;stroke:#ff0000;stroke-opacity:0.995;" x="375.305991" xlink:href="#m538acf1a1d" y="431.975229"/>
     <use style="fill-opacity:0.995;stroke:#ff0000;stroke-opacity:0.995;" x="415.726102" xlink:href="#m538acf1a1d" y="428.424626"/>
     <use style="fill-opacity:0.995;stroke:#ff0000;stroke-opacity:0.995;" x="456.199003" xlink:href="#m538acf1a1d" y="429.674606"/>
     <use style="fill-opacity:0.995;stroke:#ff0000;stroke-opacity:0.995;" x="496.468686" xlink:href="#m538acf1a1d" y="423.041461"/>
    </g>
   </g>
   <g id="line2d_24">
    <path clip-path="url(#p1ce6238a83)" d="M 294.462 425.01 
L 334.876576 428.719953 
L 375.315386 431.668916 
L 415.735229 428.110461 
L 456.204938 429.604001 
L 496.5001 423.383883 
" style="fill:none;stroke:#ff0000;stroke-linecap:square;stroke-width:1.5;"/>
    <defs>
     <path d="M 0 3 
C 0.795609 3 1.55874 2.683901 2.12132 2.12132 
C 2.683901 1.55874 3 0.795609 3 0 
C 3 -0.795609 2.683901 -1.55874 2.12132 -2.12132 
C 1.55874 -2.683901 0.795609 -3 0 -3 
C -0.795609 -3 -1.55874 -2.683901 -2.12132 -2.12132 
C -2.683901 -1.55874 -3 -0.795609 -3 0 
C -3 0.795609 -2.683901 1.55874 -2.12132 2.12132 
C -1.55874 2.683901 -0.795609 3 0 3 
z
" id="m3a443d5cb4" style="stroke:#ff0000;"/>
    </defs>
    <g clip-path="url(#p1ce6238a83)">
     <use style="stroke:#ff0000;" x="294.462" xlink:href="#m3a443d5cb4" y="425.01"/>
     <use style="stroke:#ff0000;" x="334.876576" xlink:href="#m3a443d5cb4" y="428.719953"/>
     <use style="stroke:#ff0000;" x="375.315386" xlink:href="#m3a443d5cb4" y="431.668916"/>
     <use style="stroke:#ff0000;" x="415.735229" xlink:href="#m3a443d5cb4" y="428.110461"/>
     <use style="stroke:#ff0000;" x="456.204938" xlink:href="#m3a443d5cb4" y="429.604001"/>
     <use style="stroke:#ff0000;" x="496.5001" xlink:href="#m3a443d5cb4" y="423.383883"/>
    </g>
   </g>
   <g id="patch_3">
    <path d="M 71.82 496.62 
L 71.82 66.96 
" style="fill:none;stroke:#000000;stroke-linecap:square;stroke-linejoin:miter;stroke-width:0.8;"/>
   </g>
   <g id="patch_4">
    <path d="M 517.104 496.62 
L 517.104 66.96 
" style="fill:none;stroke:#000000;stroke-linecap:square;stroke-linejoin:miter;stroke-width:0.8;"/>
   </g>
   <g id="patch_5">
    <path d="M 71.82 496.62 
L 517.104 496.62 
" style="fill:none;stroke:#000000;stroke-linecap:square;stroke-linejoin:miter;stroke-width:0.8;"/>
   </g>
   <g id="patch_6">
    <path d="M 71.82 66.96 
L 517.104 66.96 
" style="fill:none;stroke:#000000;stroke-linecap:square;stroke-linejoin:miter;stroke-width:0.8;"/>
   </g>
  </g>
 </g>
 <defs>
  <clipPath id="p1ce6238a83">
   <rect height="429.66" width="445.284" x="71.82" y="66.96"/>
  </clipPath>
 </defs>
</svg>
