<?xml version="1.0" encoding="UTF-8" standalone="no"?>
<svg
   xmlns:xhtml="http://www.w3.org/1999/xhtml"
   xmlns:dc="http://purl.org/dc/elements/1.1/"
   xmlns:cc="http://creativecommons.org/ns#"
   xmlns:rdf="http://www.w3.org/1999/02/22-rdf-syntax-ns#"
   xmlns:svg="http://www.w3.org/2000/svg"
   xmlns="http://www.w3.org/2000/svg"
   xmlns:sodipodi="http://sodipodi.sourceforge.net/DTD/sodipodi-0.dtd"
   xmlns:inkscape="http://www.inkscape.org/namespaces/inkscape"
   viewBox="0 0 600 300"
   version="1.1"
   id="svg1249"
   sodipodi:docname="cup.svg"
   inkscape:version="0.92.4 (5da689c313, 2019-01-14)">
  <metadata
     id="metadata1255">
    <rdf:RDF>
      <cc:Work
         rdf:about="">
        <dc:format>image/svg+xml</dc:format>
        <dc:type
           rdf:resource="http://purl.org/dc/dcmitype/StillImage" />
      </cc:Work>
    </rdf:RDF>
  </metadata>
  <defs
     id="defs1253" />
  <sodipodi:namedview
     pagecolor="#ffffff"
     bordercolor="#666666"
     borderopacity="1"
     objecttolerance="10"
     gridtolerance="10"
     guidetolerance="10"
     inkscape:pageopacity="0"
     inkscape:pageshadow="2"
     inkscape:window-width="1598"
     inkscape:window-height="877"
     id="namedview1251"
     showgrid="false"
     inkscape:zoom="1.865"
     inkscape:cx="300"
     inkscape:cy="150"
     inkscape:window-x="0"
     inkscape:window-y="0"
     inkscape:window-maximized="0"
     inkscape:current-layer="svg1249" />
  <g
     id="g1075">
    <text
       x="50%"
       y="0"
       style="font-weight:bold;font-family:sans-serif;dominant-baseline:text-before-edge;text-anchor:middle;fill:#363a3d"
       id="text1055">Ball-in-a-cup Task</text>
    <svg
       viewBox="0 0 1024 1024"
       x="188.816650390625"
       y="26.10003662109375"
       height="11"
       width="11"
       version="1.1"
       id="svg1059">
      <path
         d="M128 533.333h768c23.564 0 42.667-19.103 42.667-42.667v-85.333c0-23.564-19.103-42.667-42.667-42.667h-768c-23.564 0-42.667 19.103-42.667 42.667v85.333c0 23.564 19.103 42.667 42.667 42.667z"
         style="fill: rgb(71, 154, 95);"
         id="path1057" />
    </svg>
    <text
       x="207.816650390625"
       y="24.10003662109375"
       style="fill: rgb(71, 154, 95); dominant-baseline: text-before-edge; font-family: sans-serif;"
       id="text1061">BLR</text>
    <svg
       viewBox="0 0 1024 1024"
       x="241.2833251953125"
       y="26.10003662109375"
       height="11"
       width="11"
       version="1.1"
       id="svg1065">
      <path
         d="M128 533.333h768c23.564 0 42.667-19.103 42.667-42.667v-85.333c0-23.564-19.103-42.667-42.667-42.667h-768c-23.564 0-42.667 19.103-42.667 42.667v85.333c0 23.564 19.103 42.667 42.667 42.667z"
         style="fill: rgb(83, 135, 221);"
         id="path1063" />
    </svg>
    <text
       x="260.2833251953125"
       y="24.10003662109375"
       style="fill: rgb(83, 135, 221); dominant-baseline: text-before-edge; font-family: sans-serif;"
       id="text1067">RLS</text>
    <svg
       viewBox="0 0 1024 1024"
       x="293.75"
       y="26.10003662109375"
       height="11"
       width="11"
       version="1.1"
       id="svg1071">
      <path
         d="M128 533.333h768c23.564 0 42.667-19.103 42.667-42.667v-85.333c0-23.564-19.103-42.667-42.667-42.667h-768c-23.564 0-42.667 19.103-42.667 42.667v85.333c0 23.564 19.103 42.667 42.667 42.667z"
         style="fill: rgb(161, 40, 100);"
         id="path1069" />
    </svg>
    <text
       x="312.75"
       y="24.10003662109375"
       style="fill: rgb(161, 40, 100); dominant-baseline: text-before-edge; font-family: sans-serif;"
       id="text1073">Ridge Regression</text>
  </g>
  <g
     transform="translate(0, 36.70001220703125)"
     id="g1247">
    <svg
       class="rv-xy-plot__inner"
       width="600"
       height="263"
       version="1.1"
       id="svg1245">
      <g
         transform="translate(34,5)"
         class="rv-xy-plot__grid-lines"
         id="g1087">
        <line
           y1="223.6201022427998"
           y2="223.6201022427998"
           x1="0"
           x2="546"
           class="rv-xy-plot__grid-lines__line"
           style="stroke-width: 0.5px;"
           id="line1077" />
        <line
           y1="160.45115924126958"
           y2="160.45115924126958"
           x1="0"
           x2="546"
           class="rv-xy-plot__grid-lines__line"
           style="stroke-width: 0.5px;"
           id="line1079" />
        <line
           y1="107.04257893466445"
           y2="107.04257893466445"
           x1="0"
           x2="546"
           class="rv-xy-plot__grid-lines__line"
           style="stroke-width: 0.5px;"
           id="line1081" />
        <line
           y1="60.77796229832217"
           y2="60.77796229832217"
           x1="0"
           x2="546"
           class="rv-xy-plot__grid-lines__line"
           style="stroke-width: 0.5px;"
           id="line1083" />
        <line
           y1="19.969678315020992"
           y2="19.969678315020992"
           x1="0"
           x2="546"
           class="rv-xy-plot__grid-lines__line"
           style="stroke-width: 0.5px;"
           id="line1085" />
      </g>
      <path
         d="M2.1927710843373487,210.90603061063638L4.385542168674697,216.01787806082157L6.578313253012048,225.3259000850848L8.771084337349398,226.64336359053942L10.963855421686747,227.3361905236211L13.156626506024093,228L15.349397590361443,227.42958269626803L17.542168674698793,225.41540722279908L19.73493975903614,221.6634364463147L21.927710843373493,214.60338264013217L24.120481927710845,211.7743225005616L26.31325301204819,212.20821168258126L28.50602409638554,204.3941831001645L37.27710843373493,193.4884258436074L54.81927710843374,164.20218541354882L57.01204819277109,169.561849676959L59.204819277108435,167.41194445882152L61.39759036144577,161.67742765487512L63.59036144578314,160.70156401211628L65.7831325301205,161.96629440477784L67.97590361445783,162.4320118655194L70.16867469879517,172.73918676563025L72.36144578313252,177.09881268355082L74.55421686746988,180.06550643867345L76.74698795180723,172.37130041759715L78.9397590361446,169.66571972843266L81.13253012048192,168.69372484832667L83.32530120481928,166.12264933872376L85.51807228915663,165.02491082314566L87.71084337349397,166.55362270797502L89.90361445783132,166.56242428463347L92.09638554216866,160.1777651369772L96.48192771084338,156.8824147356862L103.06024096385542,162.5548894283711L105.25301204819277,163.92599717817663L107.44578313253012,162.24462384220047L109.63855421686749,160.5527071727023L120.60240963855424,166.03778205926258L122.79518072289156,168.0741978892518L124.98795180722891,166.74164718689343L127.18072289156628,165.74819411797168L129.3734939759036,163.68638523028247L131.56626506024097,164.03171764207525L133.75903614457832,164.58115636217173L135.95180722891567,165.1831995034721L138.14457831325302,162.12922813852936L140.33734939759034,155.5106438003386L142.53012048192772,160.7618731349723L144.72289156626508,166.3201811050406L146.9156626506024,160.2609097850612L149.10843373493972,160.24005738940207L151.3012048192771,162.147873158628L160.07228915662645,116.49245962117553L162.26506024096383,121.00255507833906L164.45783132530119,120.55026796702946L166.65060240963854,120.35630754957016L177.61445783132527,164.97167673093608L179.80722891566262,162.4045259082232L181.99999999999997,149.84564933157816L184.19277108433732,138.1210448734602L186.38554216867468,98.85763243813219L188.57831325301203,94.69560504967367L195.1566265060241,138.49545091725L197.34939759036143,150.03252955758884L199.54216867469876,151.5594923913543L201.7349397590361,152.76522453583755L203.92771084337346,150.7749878480026L206.12048192771084,153.83104256569737L208.31325301204816,146.00549613133524L210.50602409638552,148.15671491422782L212.69879518072287,149.3274051377839L217.0843373493976,158.03066150217467L219.27710843373495,157.0777640034842L221.46987951807225,156.96795543656913L223.6626506024096,154.82743120172984L225.85542168674698,153.08991851555123L228.04819277108433,153.04054139337737L230.24096385542168,151.76847519782388L232.433734939759,151.84916912369445L234.62650602409636,152.0584387169862L236.81927710843374,150.34013882025926L239.0120481927711,148.5862018406491L241.2048192771084,149.58072898856545L243.39759036144574,150.92392906788095L245.5903614457831,147.26895877110144L249.97590361445782,122.70665117849825L252.16867469879517,154.15564510085565L254.36144578313252,148.81836402103164L267.5180722891566,106.83908694504137L271.90361445783134,100.92185274175044L274.0963855421686,140.11090149397046L276.289156626506,113.13876500916534L320.14457831325296,102.89385379043095L322.3373493975903,133.12367010382502L328.91566265060237,139.39810983569762L331.10843373493975,135.42924885286L333.3012048192771,97.5294820504897L337.6867469879518,100.10631185066065L339.87951807228916,98.04520287766383L342.07228915662654,136.60493358033742L344.2650602409638,133.29170191209928L364,96.47888321967785L366.1927710843373,104.3554506389959L372.77108433734935,105.84296658286874L374.96385542168673,108.68316508366057L377.15662650602405,116.26915852288462L379.34939759036143,111.31359798723392L381.54216867469876,110.71607764722035L385.9277108433735,106.46466457964635L388.12048192771084,105.00193637876241L390.3132530120482,107.45664096632773L392.5060240963855,107.34167543864943L396.89156626506025,125.80232022207998L399.0843373493975,105.29522242439529L401.2771084337349,107.29690162162521L403.4698795180722,109.64367954676196L405.6626506024096,113.69948102564034L407.855421686747,114.32008884243903L410.0481927710843,113.83171363751772L412.2409638554217,146.13068489029723L414.43373493975895,146.9199679734311L418.8192771084337,114.98295105022027L421.01204819277103,147.4706940829258L425.3975903614458,107.73941429623957L427.5903614457831,143.1624871728311L429.7831325301205,111.22019801896025L464.867469879518,76.73234644416496L471.4457831325301,72.24019343599227L473.6385542168675,114.4890363572748L475.8313253012048,118.51549203095566L478.0240963855422,114.97526316586664L480.21686746987956,112.45403975945658L482.4096385542168,115.02228460133827L484.6024096385542,113.54983944906195L486.7951807228915,110.20562276260382L488.98795180722885,113.00465234071329L491.18072289156623,110.40072593026284L493.37349397590356,141.60678765944442L495.56626506024094,136.83957000430314L504.33734939759034,110.68463175088769L506.5301204819277,139.6586927132212L510.91566265060237,111.63766315492956L513.1084337349398,67.54411780223103L530.6506024096385,64.98892045949447L539.4216867469879,95.37813979106822L541.6144578313252,59.026479979045874L543.8072289156627,93.62212136442274L546,99.64505017278434"
         class="rv-xy-plot__series rv-xy-plot__series--line"
         transform="translate(34,5)"
         style="opacity: 1; stroke-width: 1.5px; stroke: rgb(161, 40, 100);"
         id="path1089" />
      <path
         d="M0,189.02089844287644L2.1927710843373487,214.1282258159455L4.385542168674697,220.7737820164973L6.578313253012048,219.52460133470362L8.771084337349398,220.205658044482L10.963855421686747,220.56468443620113L13.156626506024093,218.69310588033372L15.349397590361443,218.16845234759782L17.542168674698793,218.5320066266904L19.73493975903614,218.62179450271137L21.927710843373493,219.23361435172447L24.120481927710845,218.70178445027378L26.31325301204819,218.55741556636008L28.50602409638554,217.51138911293845L30.69879518072289,215.76531599102717L32.891566265060234,215.93868601115497L35.08433734939759,217.41655920926635L37.27710843373493,217.38210216801613L39.46987951807228,217.58103594735144L41.66265060240964,216.8180656443352L43.855421686746986,216.01718092942002L46.048192771084324,216.4057114767802L48.24096385542169,217.78045548683298L50.43373493975903,217.9843513542741L52.626506024096386,218.54953853543714L54.81927710843374,217.72139852258064L57.01204819277109,215.14161441109178L59.204819277108435,214.57162037484926L61.39759036144577,213.5403425901683L63.59036144578314,213.62756230541027L65.7831325301205,211.83480078270992L67.97590361445783,211.4765359906813L70.16867469879517,210.75307770615265L72.36144578313252,209.4441255152784L74.55421686746988,206.76499147193883L76.74698795180723,204.45962179910455L78.9397590361446,202.59844162142528L81.13253012048192,199.71453300259162L83.32530120481928,196.95041031485988L85.51807228915663,193.83694838720885L87.71084337349397,191.8229315738647L89.90361445783132,191.31700523532817L92.09638554216866,190.41751037720312L94.28915662650603,186.88135958177682L96.48192771084338,186.28145543276102L98.67469879518072,187.90715477924294L100.86746987951807,185.53303597171598L103.06024096385542,179.83105031312215L105.25301204819277,174.72824962926208L107.44578313253012,171.8659754093749L109.63855421686749,168.94750192189747L111.83132530120481,170.40638334958797L114.02409638554217,170.51958689309328L116.21686746987952,170.3552999385329L118.40963855421687,172.6625920576456L120.60240963855424,173.8640433890648L122.79518072289156,173.1961810219329L124.98795180722891,172.9347953139137L127.18072289156628,172.42167537814663L129.3734939759036,172.53808146381056L131.56626506024097,169.7427137785405L133.75903614457832,164.36254891779416L135.95180722891567,167.77443023763826L138.14457831325302,167.76517916034382L140.33734939759034,164.20669550147537L142.53012048192772,160.8107284741667L144.72289156626508,160.98685668977927L146.9156626506024,163.1865490821991L149.10843373493972,166.32611988572393L151.3012048192771,171.07731149424382L153.49397590361446,176.0955021396585L155.6867469879518,172.96994356073492L157.87951807228913,173.80541280228306L160.07228915662645,178.4328825082242L162.26506024096383,178.20885547572007L164.45783132530119,175.06225195718847L166.65060240963854,167.98162576808988L168.8433734939759,168.27144840928983L171.03614457831324,167.2888338722886L173.2289156626506,162.03593368190766L175.42168674698794,155.82822161951634L177.61445783132527,149.9435100910814L179.80722891566262,163.01855274030837L181.99999999999997,166.5299102431851L184.19277108433732,166.98817694389982L186.38554216867468,165.36262387332357L188.57831325301203,164.57856322014143L190.77108433734938,166.24460007065315L192.96385542168673,167.12794132871838L195.1566265060241,165.98354624500604L197.34939759036143,166.8293533133797L199.54216867469876,166.26877088599593L201.7349397590361,164.85327581481565L203.92771084337346,160.27216858928975L206.12048192771084,154.28604068283235L208.31325301204816,157.52617963613616L210.50602409638552,151.69413031988233L212.69879518072287,148.17079466959575L214.89156626506025,147.35854883541901L217.0843373493976,145.9945473180879L219.27710843373495,144.62686315605373L221.46987951807225,147.7058953708707L223.6626506024096,152.1789900448427L225.85542168674698,157.75570504528244L228.04819277108433,158.7319319810693L230.24096385542168,153.6706411355601L232.433734939759,158.0191172854934L234.62650602409636,159.48714554491318L236.81927710843374,161.96813348723364L239.0120481927711,159.0235840547549L241.2048192771084,156.8483494153264L243.39759036144574,111.6282664712254L245.5903614457831,137.8925316656399L247.78313253012047,140.3426190867054L249.97590361445782,138.36828542607574L254.36144578313252,143.20004844588482L256.55421686746985,149.37283216257657L258.7469879518072,155.24014511858695L260.9397590361446,152.21374111782347L263.1325301204819,143.80842595745315L280.6746987951807,123.46585615876273L285.0602409638554,131.48613596097042L287.2530120481927,100.60282361674106L291.6385542168675,98.82690866965862L293.83132530120486,131.7501988697708L296.0240963855422,135.88049279052038L298.2168674698795,131.1337530010638L300.4096385542168,100.53714455992534L302.6024096385542,136.81427610875969L304.79518072289153,142.56385248907657L306.9879518072289,144.94223509993432L309.1807228915663,142.24825930715696L311.3734939759036,141.6931435828349L313.566265060241,144.9677585316791L315.75903614457826,147.13967780974053L317.95180722891564,143.74910176345358L320.14457831325296,138.5219475532026L322.3373493975903,135.06000934560046L324.53012048192767,133.1645278081642L326.722891566265,131.56729946201042L328.91566265060237,135.6540568830391L331.10843373493975,134.54076641302174L333.3012048192771,126.61602047124543L335.49397590361446,125.08981455509743L337.6867469879518,89.77975533668666L339.87951807228916,125.75656005817923L342.07228915662654,123.94050912159729L348.6506024096385,124.09860421730345L350.8433734939759,127.86487926586929L353.03614457831327,129.80264441616768L355.22891566265054,133.65908622214084L357.4216867469879,132.81873822426346L359.61445783132524,131.10660183273237L361.8072289156626,130.8421917277036L364,124.85686750882607L366.1927710843373,125.56271245282674L368.38554216867465,129.79593452448324L370.57831325301197,128.8567962539478L372.77108433734935,128.3651007669059L374.96385542168673,130.65772723620222L377.15662650602405,126.3556739088633L379.34939759036143,127.1600377611648L381.54216867469876,129.16529837437477L383.73493975903614,125.03646574250331L385.9277108433735,123.88574333693163L388.12048192771084,121.25094949306961L390.3132530120482,121.1646820163358L392.5060240963855,120.13330130953156L394.69879518072287,118.83729319615543L396.89156626506025,123.64470694913376L399.0843373493975,125.80162378531918L401.2771084337349,131.6468164270755L403.4698795180722,134.9760048435192L405.6626506024096,127.19028473927035L407.855421686747,125.13796718758026L410.0481927710843,93.70404074614194L412.2409638554217,91.30688977087831L414.43373493975895,116.27965593269516L416.62650602409633,111.15820505081436L418.8192771084337,110.2557222251771L421.01204819277103,79.4349906221823L423.2048192771084,83.50860728606554L425.3975903614458,115.47543501473741L427.5903614457831,119.47250268909363L431.9759036144578,123.89990408446715L438.5542168674699,119.51902276233845L442.9397590361445,80.63929359020761L445.1325301204819,80.39701204565753L447.32530120481925,55.44293550865364L449.5180722891566,56.74106213261699L451.71084337349396,57.49978551721884L453.9036144578313,80.88330648731929L456.09638554216866,80.58496248024473L458.28915662650604,78.4747213069596L460.48192771084337,76.45500185410006L462.67469879518075,77.5266777680219L464.867469879518,78.58320739718363L471.4457831325301,56.36435244487794L473.6385542168675,56.57364738409102L475.8313253012048,84.81924562970515L478.0240963855422,55.10221410696565L480.21686746987956,49.045742827447725L491.18072289156623,52.94757095608314L493.37349397590356,52.638860353876964L497.75903614457826,25.20616704193893L499.95180722891564,51.844983886467546L502.144578313253,75.80545886611648L504.33734939759034,1.7371592184700568L506.5301204819277,0.4242438476034307L521.8795180722892,27.191066168090494L524.0722891566265,25.2362806509451L526.2650602409637,47.67155504568941L528.4578313253012,0.7661823074260896L530.6506024096385,51.90274226822997L532.8433734939758,25.331024196786494L535.0361445783133,23.983558125401185L537.2289156626506,0L539.4216867469879,24.207852762887573L541.6144578313252,24.426705046184242L543.8072289156627,56.15857279111514"
         class="rv-xy-plot__series rv-xy-plot__series--line"
         transform="translate(34,5)"
         style="opacity: 1; stroke-width: 1.5px; stroke: rgb(83, 135, 221);"
         id="path1091" />
      <path
         d="M4.385542168674697,203.78403184094614L6.578313253012048,203.82856114426298L8.771084337349398,206.78534618033996L10.963855421686747,209.9169534172289L13.156626506024093,214.77508825144662L15.349397590361443,216.81723960396093L17.542168674698793,216.69871852166787L19.73493975903614,215.58338649614288L21.927710843373493,213.9098123642875L24.120481927710845,213.4884753116111L26.31325301204819,212.22578757677832L28.50602409638554,210.44793025534145L30.69879518072289,207.14398894416695L32.891566265060234,206.62632686314805L35.08433734939759,203.45020460524594L37.27710843373493,198.82959100339323L39.46987951807228,193.42543686047327L41.66265060240964,191.8172349061626L43.855421686746986,192.24848954888944L46.048192771084324,194.16456723648386L48.24096385542169,194.7017651249427L50.43373493975903,193.4875932447259L52.626506024096386,192.32456670428837L54.81927710843374,190.58054158841216L57.01204819277109,189.83434734965027L59.204819277108435,188.23515183247846L61.39759036144577,187.69149914860978L63.59036144578314,187.6358194831256L65.7831325301205,187.43443465936053L67.97590361445783,185.38922423666L70.16867469879517,184.88633558489641L72.36144578313252,182.8974077406634L74.55421686746988,182.11182927709658L76.74698795180723,181.6641931992819L78.9397590361446,180.77389058757456L81.13253012048192,179.56339891917332L83.32530120481928,178.47871292857894L85.51807228915663,176.94938644394728L87.71084337349397,176.35342806708636L89.90361445783132,175.9029299808267L92.09638554216866,175.38042833674479L94.28915662650603,174.35567507187088L96.48192771084338,172.3106965097306L98.67469879518072,174.00484028492875L100.86746987951807,172.98288541750435L103.06024096385542,170.99855017766396L105.25301204819277,168.44502934601275L107.44578313253012,167.6673843196585L109.63855421686749,166.1588942342161L111.83132530120481,162.13066873459826L114.02409638554217,161.5815103193445L116.21686746987952,161.90160200872165L118.40963855421687,162.12477137940022L120.60240963855424,159.92225048898968L122.79518072289156,162.50521527616704L124.98795180722891,161.79734286653678L127.18072289156628,163.53548079091627L129.3734939759036,163.0289002270436L131.56626506024097,161.2002943730833L133.75903614457832,157.5699680802117L135.95180722891567,155.16881461296285L138.14457831325302,154.01765675899367L140.33734939759034,152.36619347233886L142.53012048192772,151.3078754421099L144.72289156626508,150.46150701983711L146.9156626506024,147.62951002295674L149.10843373493972,143.80004117804148L151.3012048192771,142.32268902118545L153.49397590361446,142.40633973880264L155.6867469879518,139.6442163145675L157.87951807228913,137.12663508454023L160.07228915662645,136.10100488755575L162.26506024096383,135.157076770352L164.45783132530119,130.60249728760795L166.65060240963854,129.7509355066126L168.8433734939759,132.33149405197148L171.03614457831324,136.69513042616407L173.2289156626506,134.97556343977735L175.42168674698794,133.72668807987412L177.61445783132527,134.17176243781012L179.80722891566262,129.12698196362928L181.99999999999997,128.4157014573134L184.19277108433732,126.7733320287678L186.38554216867468,124.97769225383762L188.57831325301203,124.41832300216375L190.77108433734938,121.19623039872167L192.96385542168673,93.99054002103301L195.1566265060241,121.2932012020993L197.34939759036143,123.19787869274568L199.54216867469876,121.12917126725348L201.7349397590361,121.71027309093667L203.92771084337346,120.80382224538181L206.12048192771084,119.19147718042262L208.31325301204816,117.06081791111978L210.50602409638552,116.74524089713425L212.69879518072287,117.80744139608133L214.89156626506025,116.86301943189733L217.0843373493976,115.53600857658094L219.27710843373495,116.90502565779595L221.46987951807225,117.09859307758134L223.6626506024096,118.4099214538088L225.85542168674698,119.09346202030919L228.04819277108433,118.08267087003843L230.24096385542168,116.74530713460695L232.433734939759,115.45969595670138L234.62650602409636,114.10679756231296L236.81927710843374,113.40222786661758L239.0120481927711,113.19825140730794L241.2048192771084,115.72582423739752L243.39759036144574,114.35852693565539L245.5903614457831,113.59044760903046L247.78313253012047,114.1404373871904L249.97590361445782,111.75665100000641L252.16867469879517,113.46062396216094L254.36144578313252,87.97659998280713L256.55421686746985,88.88717002829543L258.7469879518072,89.5645714545755L260.9397590361446,90.62253238056022L263.1325301204819,92.06134514941203L265.32530120481925,92.04545311556679L267.5180722891566,114.5934181596361L269.71084337349396,114.80152209298045L271.90361445783134,112.56445132626503L274.0963855421686,111.43818415866619L276.289156626506,88.01768718762342L278.4819277108433,64.49098869152681L280.6746987951807,64.38694169791198L282.86746987951807,64.64758287146323L285.0602409638554,65.45329993703125L287.2530120481927,65.68516595210986L289.4457831325301,66.46985417821138L291.6385542168675,67.1419423231869L293.83132530120486,65.60438552359994L296.0240963855422,64.34066501688604L298.2168674698795,63.05237305264964L300.4096385542168,63.49040795026618L302.6024096385542,63.56890006214343L304.79518072289153,64.50327963887844L306.9879518072289,86.21714207669687L309.1807228915663,86.13252008842328L311.3734939759036,86.2545553241267L313.566265060241,64.71544819818294L315.75903614457826,66.45225244733793L317.95180722891564,67.20738581845227L320.14457831325296,66.2445819301043L322.3373493975903,66.5915468681155L324.53012048192767,65.32355805280075L326.722891566265,63.53972747464873L328.91566265060237,64.1913062858617L331.10843373493975,64.4082367059312L333.3012048192771,64.45977182976463L335.49397590361446,68.17938788894428L337.6867469879518,68.07218040710138L339.87951807228916,68.52266214769209L342.07228915662654,68.59057597382261L344.2650602409638,64.7512216464766L346.4578313253012,64.47386640915441L348.6506024096385,65.1585513858001L350.8433734939759,64.9104009121357L353.03614457831327,63.96571761426023L355.22891566265054,63.113042731888136L357.4216867469879,66.76899892017148L359.61445783132524,67.70582410662833L361.8072289156626,67.05205305119873L364,66.95857036242315L366.1927710843373,63.46867327835832L368.38554216867465,62.98822851030563L370.57831325301197,62.52717271194462L372.77108433734935,62.450264398190576L374.96385542168673,62.96836271845526L377.15662650602405,63.77907621234744L379.34939759036143,63.734621544562444L381.54216867469876,64.1395569776048L383.73493975903614,65.39924203210497L385.9277108433735,64.87309497983088L388.12048192771084,65.5169488133012L390.3132530120482,63.70621230864223L392.5060240963855,63.87251286109172L394.69879518072287,64.05843485113225L396.89156626506025,63.424615235281294L399.0843373493975,63.739717255946005L401.2771084337349,63.2133991789563L403.4698795180722,63.94028120550833L405.6626506024096,63.97153850825077L407.855421686747,64.13810808988762L410.0481927710843,63.01242543238458L412.2409638554217,63.281125002802774L414.43373493975895,64.11701432210954L416.62650602409633,64.31278391828188L418.8192771084337,64.31969019815189L421.01204819277103,64.50146504024572L423.2048192771084,63.37615809276857L425.3975903614458,63.23268833583921L427.5903614457831,63.5427190373552L429.7831325301205,63.79041275105527L431.9759036144578,63.84523614975683L434.1686746987952,63.87227676381608L436.3614457831326,63.33747818257947L438.5542168674699,63.3314195135852L440.74698795180717,63.593276912273026L442.9397590361445,63.69363525399104L445.1325301204819,63.79551841602856L447.32530120481925,63.552537287505125L449.5180722891566,63.60314820994709L451.71084337349396,63.5156486247423L453.9036144578313,63.58970818490048L456.09638554216866,63.841590635738264L458.28915662650604,66.32877413738852L460.48192771084337,66.26473807933559L462.67469879518075,63.4033180841932L464.867469879518,63.02045035161845L467.0602409638554,65.56704653308358L469.2530120481928,62.63500234823574L471.4457831325301,63.01105125059354L473.6385542168675,62.740269544806374L475.8313253012048,63.27260626173212L478.0240963855422,63.03190973586537L480.21686746987956,63.73927343238288L482.4096385542168,63.155048729149556L484.6024096385542,62.7578424893229L486.7951807228915,63.21970522795541L488.98795180722885,62.48429204653704L491.18072289156623,62.631967013329394L493.37349397590356,62.9158390581967L495.56626506024094,62.811337438708335L497.75903614457826,62.77164092516283L499.95180722891564,65.17951669767356L502.144578313253,65.57086950667653L504.33734939759034,65.52739108705363L506.5301204819277,62.911161405524524L508.72289156626505,63.017371370369396L510.91566265060237,63.118132316953314L513.1084337349398,63.26174923699742L515.3012048192771,63.277906388229404L517.4939759036145,63.77434353211728L519.6867469879518,63.52485334415738L521.8795180722892,63.48599023635494L524.0722891566265,63.33034851542039L526.2650602409637,63.14530711509965L528.4578313253012,62.85259503540322L530.6506024096385,62.472291435893105L532.8433734939758,63.207537587017825L535.0361445783133,62.7309562666311L537.2289156626506,62.802236140701L539.4216867469879,63.321780383412694L541.6144578313252,63.51969844876692L543.8072289156627,63.27925307991695"
         class="rv-xy-plot__series rv-xy-plot__series--line"
         transform="translate(34,5)"
         style="opacity: 1; stroke-width: 1.5px; stroke: rgb(71, 154, 95);"
         id="path1093" />
      <g
         class="rv-xy-plot__series rv-xy-plot__series--mark"
         transform="translate(34,5)"
         id="g1097">
        <circle
           r="2"
           cx="543.8072289156627"
           cy="63.27925307991695"
           style="opacity: 1; stroke: rgb(71, 154, 95); fill: rgb(71, 154, 95); stroke-width: 1px;"
           id="circle1095" />
      </g>
      <g
         class="rv-xy-plot__series rv-xy-plot__series--mark"
         transform="translate(34,5)"
         id="g1101">
        <circle
           r="2"
           cx="543.8072289156627"
           cy="56.15857279111514"
           style="opacity: 1; stroke: rgb(83, 135, 221); fill: rgb(83, 135, 221); stroke-width: 1px;"
           id="circle1099" />
      </g>
      <g
         class="rv-xy-plot__series rv-xy-plot__series--mark"
         transform="translate(34,5)"
         id="g1105">
        <circle
           r="2"
           cx="546"
           cy="99.64505017278434"
           style="opacity: 1; stroke: rgb(161, 40, 100); fill: rgb(161, 40, 100); stroke-width: 1px;"
           id="circle1103" />
      </g>
      <defs
         class="rv-gradient-defs"
         id="defs1131">
        <linearGradient
           id="leftFadeGradient"
           x1="0"
           x2="1"
           y1="0"
           y2="0">
          <stop
             offset="0%"
             stop-color="white"
             stop-opacity="1"
             id="stop1107" />
          <stop
             offset="60%"
             stop-color="white"
             stop-opacity="1"
             id="stop1109" />
          <stop
             offset="100%"
             stop-color="white"
             stop-opacity="0"
             id="stop1111" />
        </linearGradient>
        <linearGradient
           id="rightFadeGradient"
           x1="1"
           x2="0"
           y1="0"
           y2="0">
          <stop
             offset="0%"
             stop-color="white"
             stop-opacity="1"
             id="stop1114" />
          <stop
             offset="100%"
             stop-color="white"
             stop-opacity="0"
             id="stop1116" />
        </linearGradient>
        <linearGradient
           id="bottomFadeGradient"
           x1="0"
           x2="0"
           y1="1"
           y2="0">
          <stop
             offset="0%"
             stop-color="white"
             stop-opacity="1"
             id="stop1119" />
          <stop
             offset="40%"
             stop-color="white"
             stop-opacity="1"
             id="stop1121" />
          <stop
             offset="100%"
             stop-color="white"
             stop-opacity="0"
             id="stop1123" />
        </linearGradient>
        <linearGradient
           id="topFadeGradient"
           x1="0"
           x2="0"
           y1="0"
           y2="1">
          <stop
             offset="0%"
             stop-color="white"
             stop-opacity="1"
             id="stop1126" />
          <stop
             offset="100%"
             stop-color="white"
             stop-opacity="0"
             id="stop1128" />
        </linearGradient>
      </defs>
      <g
         class="rv-xy-plot__borders plot-border"
         id="g1141">
        <rect
           class="rv-xy-plot__borders-bottom plot-border-bottom"
           style="fill: url(&quot;#bottomFadeGradient&quot;); opacity: 1;"
           x="0"
           y="233"
           width="600"
           height="30"
           id="rect1133" />
        <rect
           class="rv-xy-plot__borders-left plot-border-left"
           style="fill: url(&quot;#leftFadeGradient&quot;); opacity: 1;"
           x="0"
           y="0"
           width="34"
           height="263"
           id="rect1135" />
        <rect
           class="rv-xy-plot__borders-right plot-border-right"
           style="fill: url(&quot;#rightFadeGradient&quot;); opacity: 1;"
           x="580"
           y="0"
           width="20"
           height="263"
           id="rect1137" />
        <rect
           class="rv-xy-plot__borders-top plot-border-top"
           style="fill: url(&quot;#topFadeGradient&quot;); opacity: 1;"
           x="0"
           y="0"
           width="600"
           height="5"
           id="rect1139" />
      </g>
      <g
         transform="translate(34,NaN)"
         class="rv-xy-plot__axis rv-xy-plot__axis--horizontal"
         id="g1147">
        <line
           x1="0"
           x2="546"
           y1="0"
           y2="0"
           class="rv-xy-plot__axis__line"
           id="line1143" />
        <g
           transform="translate(0, 0)"
           class="rv-xy-plot__axis__ticks"
           id="g1145" />
      </g>
      <g
         transform="translate(34,233)"
         class="rv-xy-plot__axis rv-xy-plot__axis--horizontal"
         style="font-family: Source Sans Pro; fill: rgb(107, 107, 118); font-size: 11px;"
         id="g1177">
        <line
           x1="0"
           x2="546"
           y1="0"
           y2="0"
           class="rv-xy-plot__axis__line"
           style="font-family: Source Sans Pro; fill: rgb(107, 107, 118); font-size: 11px; stroke-width: 0px;"
           id="line1149" />
        <g
           transform="translate(0, 0)"
           class="rv-xy-plot__axis__ticks"
           id="g1169">
          <g
             transform="translate(133.71168394508265, 0)"
             class="rv-xy-plot__axis__tick"
             style="font-family: Source Sans Pro; fill: rgb(107, 107, 118); font-size: 11px;"
             id="g1155">
            <line
               x1="0"
               x2="0"
               y1="-6"
               y2="6"
               class="rv-xy-plot__axis__tick__line"
               style="font-family: Source Sans Pro; fill: rgb(107, 107, 118); font-size: 11px; stroke-width: 0px;"
               id="line1151" />
            <text
               text-anchor="middle"
               dy="0.72em"
               transform="translate(0, 14)"
               class="rv-xy-plot__axis__tick__text"
               style="font-family: sans-serif; fill: rgb(107, 107, 118); font-size: 11px;"
               id="text1153">2k</text>
          </g>
          <g
             transform="translate(279.4107593163351, 0)"
             class="rv-xy-plot__axis__tick"
             style="font-family: Source Sans Pro; fill: rgb(107, 107, 118); font-size: 11px;"
             id="g1161">
            <line
               x1="0"
               x2="0"
               y1="-6"
               y2="6"
               class="rv-xy-plot__axis__tick__line"
               style="font-family: Source Sans Pro; fill: rgb(107, 107, 118); font-size: 11px; stroke-width: 0px;"
               id="line1157" />
            <text
               text-anchor="middle"
               dy="0.72em"
               transform="translate(0, 14)"
               class="rv-xy-plot__axis__tick__text"
               style="font-family: sans-serif; fill: rgb(107, 107, 118); font-size: 11px;"
               id="text1159">4k</text>
          </g>
          <g
             transform="translate(425.1098346875875, 0)"
             class="rv-xy-plot__axis__tick"
             style="font-family: Source Sans Pro; fill: rgb(107, 107, 118); font-size: 11px;"
             id="g1167">
            <line
               x1="0"
               x2="0"
               y1="-6"
               y2="6"
               class="rv-xy-plot__axis__tick__line"
               style="font-family: Source Sans Pro; fill: rgb(107, 107, 118); font-size: 11px; stroke-width: 0px;"
               id="line1163" />
            <text
               text-anchor="middle"
               dy="0.72em"
               transform="translate(0, 14)"
               class="rv-xy-plot__axis__tick__text"
               style="font-family: sans-serif; fill: rgb(107, 107, 118); font-size: 11px;"
               id="text1165">6k</text>
          </g>
        </g>
        <g
           transform="translate(0, 0)"
           class="rv-xy-plot__axis__title"
           id="g1175">
          <g
             style="text-anchor: end; font-family: Source Sans Pro; fill: rgb(107, 107, 118); font-size: 11px;"
             transform="translate(540, -6) rotate(0)"
             id="g1173">
            <text
               style="font-size:11px;font-family:sans-serif;fill:#6b6b76"
               id="text1171"
               x="-34.852547">total_samples</text>
          </g>
        </g>
      </g>
      <g
         transform="translate(34,233)"
         class="rv-xy-plot__axis rv-xy-plot__axis--horizontal"
         id="g1201">
        <line
           x1="0"
           x2="0"
           y1="0"
           y2="0"
           class="rv-xy-plot__axis__line"
           id="line1179" />
        <g
           transform="translate(0, 0)"
           class="rv-xy-plot__axis__ticks"
           id="g1199">
          <g
             transform="translate(133.71168394508265, 0)"
             class="rv-xy-plot__axis__tick"
             id="g1185">
            <line
               x1="0"
               x2="0"
               y1="-6"
               y2="6"
               class="rv-xy-plot__axis__tick__line"
               id="line1181" />
            <text
               text-anchor="middle"
               dy="0.72em"
               transform="translate(0, 14)"
               class="rv-xy-plot__axis__tick__text"
               style="font-family: sans-serif;"
               id="text1183" />
          </g>
          <g
             transform="translate(279.4107593163351, 0)"
             class="rv-xy-plot__axis__tick"
             id="g1191">
            <line
               x1="0"
               x2="0"
               y1="-6"
               y2="6"
               class="rv-xy-plot__axis__tick__line"
               id="line1187" />
            <text
               text-anchor="middle"
               dy="0.72em"
               transform="translate(0, 14)"
               class="rv-xy-plot__axis__tick__text"
               style="font-family: sans-serif;"
               id="text1189" />
          </g>
          <g
             transform="translate(425.1098346875875, 0)"
             class="rv-xy-plot__axis__tick"
             id="g1197">
            <line
               x1="0"
               x2="0"
               y1="-6"
               y2="6"
               class="rv-xy-plot__axis__tick__line"
               id="line1193" />
            <text
               text-anchor="middle"
               dy="0.72em"
               transform="translate(0, 14)"
               class="rv-xy-plot__axis__tick__text"
               style="font-family: sans-serif;"
               id="text1195" />
          </g>
        </g>
      </g>
      <g
         transform="translate(0,5)"
         class="rv-xy-plot__axis rv-xy-plot__axis--vertical"
         style="font-family: Source Sans Pro; fill: rgb(107, 107, 118); font-size: 11px;"
         id="g1243">
        <line
           x1="34"
           x2="34"
           y1="0"
           y2="228"
           class="rv-xy-plot__axis__line"
           style="font-family: Source Sans Pro; fill: rgb(107, 107, 118); font-size: 11px; stroke: none;"
           id="line1203" />
        <g
           transform="translate(34, 0)"
           class="rv-xy-plot__axis__ticks"
           id="g1235">
          <g
             transform="translate(0, 223.6201022427998)"
             class="rv-xy-plot__axis__tick"
             style="font-family: Source Sans Pro; fill: rgb(107, 107, 118); font-size: 11px;"
             id="g1209">
            <line
               y1="0"
               y2="0"
               x1="6"
               x2="-6"
               class="rv-xy-plot__axis__tick__line"
               style="font-family: Source Sans Pro; fill: rgb(107, 107, 118); font-size: 11px; stroke: none;"
               id="line1205" />
            <text
               text-anchor="end"
               dy="0.32em"
               transform="translate(-14, 0)"
               class="rv-xy-plot__axis__tick__text"
               style="font-family: sans-serif; fill: rgb(107, 107, 118); font-size: 11px;"
               id="text1207">0.5</text>
          </g>
          <g
             transform="translate(0, 160.45115924126958)"
             class="rv-xy-plot__axis__tick"
             style="font-family: Source Sans Pro; fill: rgb(107, 107, 118); font-size: 11px;"
             id="g1215">
            <line
               y1="0"
               y2="0"
               x1="6"
               x2="-6"
               class="rv-xy-plot__axis__tick__line"
               style="font-family: Source Sans Pro; fill: rgb(107, 107, 118); font-size: 11px; stroke: none;"
               id="line1211" />
            <text
               text-anchor="end"
               dy="0.32em"
               transform="translate(-14, 0)"
               class="rv-xy-plot__axis__tick__text"
               style="font-family: sans-serif; fill: rgb(107, 107, 118); font-size: 11px;"
               id="text1213">0.6</text>
          </g>
          <g
             transform="translate(0, 107.04257893466445)"
             class="rv-xy-plot__axis__tick"
             style="font-family: Source Sans Pro; fill: rgb(107, 107, 118); font-size: 11px;"
             id="g1221">
            <line
               y1="0"
               y2="0"
               x1="6"
               x2="-6"
               class="rv-xy-plot__axis__tick__line"
               style="font-family: Source Sans Pro; fill: rgb(107, 107, 118); font-size: 11px; stroke: none;"
               id="line1217" />
            <text
               text-anchor="end"
               dy="0.32em"
               transform="translate(-14, 0)"
               class="rv-xy-plot__axis__tick__text"
               style="font-family: sans-serif; fill: rgb(107, 107, 118); font-size: 11px;"
               id="text1219">0.7</text>
          </g>
          <g
             transform="translate(0, 60.77796229832217)"
             class="rv-xy-plot__axis__tick"
             style="font-family: Source Sans Pro; fill: rgb(107, 107, 118); font-size: 11px;"
             id="g1227">
            <line
               y1="0"
               y2="0"
               x1="6"
               x2="-6"
               class="rv-xy-plot__axis__tick__line"
               style="font-family: Source Sans Pro; fill: rgb(107, 107, 118); font-size: 11px; stroke: none;"
               id="line1223" />
            <text
               text-anchor="end"
               dy="0.32em"
               transform="translate(-14, 0)"
               class="rv-xy-plot__axis__tick__text"
               style="font-family: sans-serif; fill: rgb(107, 107, 118); font-size: 11px;"
               id="text1225">0.8</text>
          </g>
          <g
             transform="translate(0, 19.969678315020992)"
             class="rv-xy-plot__axis__tick"
             style="font-family: Source Sans Pro; fill: rgb(107, 107, 118); font-size: 11px;"
             id="g1233">
            <line
               y1="0"
               y2="0"
               x1="6"
               x2="-6"
               class="rv-xy-plot__axis__tick__line"
               style="font-family: Source Sans Pro; fill: rgb(107, 107, 118); font-size: 11px; stroke: none;"
               id="line1229" />
            <text
               text-anchor="end"
               dy="0.32em"
               transform="translate(-14, 0)"
               class="rv-xy-plot__axis__tick__text"
               style="font-family: sans-serif; fill: rgb(107, 107, 118); font-size: 11px;"
               id="text1231">0.9</text>
          </g>
        </g>
        <g
           transform="translate(34, 0)"
           class="rv-xy-plot__axis__title"
           id="g1241">
          <g
             style="text-anchor: end; font-family: Source Sans Pro; fill: rgb(107, 107, 118); font-size: 11px;"
             transform="translate(16, 6) rotate(-90)"
             id="g1239">
            <text
               style="font-family: sans-serif; fill: rgb(107, 107, 118); font-size: 11px;"
               id="text1237" />
          </g>
        </g>
      </g>
      <text
         y="37.734123"
         style="font-size:11px;font-family:sans-serif;text-anchor:end;fill:#6b6b76"
         id="text1171-3"
         x="-79.132729"
         transform="rotate(-90)">Reward at mean</text>
    </svg>
  </g>
  <xhtml:style>/*&lt;![CDATA[*/<xhtml:br />
text { font-size: 10px; fill: black }<xhtml:br />
.react-vis-magic-css-import-rule{display:inherit}.rv-treemap{font-size:12px;position:relative}.rv-treemap__leaf{overflow:hidden;position:absolute}.rv-treemap__leaf--circle{align-items:center;border-radius:100%;display:flex;justify-content:center}.rv-treemap__leaf__content{overflow:hidden;padding:10px;text-overflow:ellipsis}.rv-xy-plot{color:#c3c3c3;position:relative}.rv-xy-plot canvas{pointer-events:none}.rv-xy-plot .rv-xy-canvas{pointer-events:none;position:absolute}.rv-xy-plot__inner{display:block}.rv-xy-plot__axis__line{fill:none;stroke-width:2px;stroke:#e6e6e9}.rv-xy-plot__axis__tick__line{stroke:#e6e6e9}.rv-xy-plot__axis__tick__text{fill:#6b6b76;font-size:11px}.rv-xy-plot__axis__title text{fill:#6b6b76;font-size:11px}.rv-xy-plot__grid-lines__line{stroke:#e6e6e9}.rv-xy-plot__circular-grid-lines__line{fill-opacity:0;stroke:#e6e6e9}.rv-xy-plot__series,.rv-xy-plot__series path{pointer-events:all}.rv-xy-plot__series--line{fill:none;stroke:#000;stroke-width:2px}.rv-crosshair{position:absolute;font-size:11px;pointer-events:none}.rv-crosshair__line{background:#47d3d9;width:1px}.rv-crosshair__inner{position:absolute;text-align:left;top:0}.rv-crosshair__inner__content{border-radius:4px;background:#3a3a48;color:#fff;font-size:12px;padding:7px 10px;box-shadow:0 2px 4px rgba(0,0,0,0.5)}.rv-crosshair__inner--left{right:4px}.rv-crosshair__inner--right{left:4px}.rv-crosshair__title{font-weight:bold;white-space:nowrap}.rv-crosshair__item{white-space:nowrap}.rv-hint{position:absolute;pointer-events:none}.rv-hint__content{border-radius:4px;padding:7px 10px;font-size:12px;background:#3a3a48;box-shadow:0 2px 4px rgba(0,0,0,0.5);color:#fff;text-align:left;white-space:nowrap}.rv-discrete-color-legend{box-sizing:border-box;overflow-y:auto;font-size:12px}.rv-discrete-color-legend.horizontal{white-space:nowrap}.rv-discrete-color-legend-item{color:#3a3a48;border-radius:1px;padding:9px 10px}.rv-discrete-color-legend-item.horizontal{display:inline-block}.rv-discrete-color-legend-item.horizontal .rv-discrete-color-legend-item__title{margin-left:0;display:block}.rv-discrete-color-legend-item__color{display:inline-block;vertical-align:middle;overflow:visible}.rv-discrete-color-legend-item__color__path{stroke:#dcdcdc;stroke-width:2px}.rv-discrete-color-legend-item__title{margin-left:10px}.rv-discrete-color-legend-item.disabled{color:#b8b8b8}.rv-discrete-color-legend-item.clickable{cursor:pointer}.rv-discrete-color-legend-item.clickable:hover{background:#f9f9f9}.rv-search-wrapper{display:flex;flex-direction:column}.rv-search-wrapper__form{flex:0}.rv-search-wrapper__form__input{width:100%;color:#a6a6a5;border:1px solid #e5e5e4;padding:7px 10px;font-size:12px;box-sizing:border-box;border-radius:2px;margin:0 0 9px;outline:0}.rv-search-wrapper__contents{flex:1;overflow:auto}.rv-continuous-color-legend{font-size:12px}.rv-continuous-color-legend .rv-gradient{height:4px;border-radius:2px;margin-bottom:5px}.rv-continuous-size-legend{font-size:12px}.rv-continuous-size-legend .rv-bubbles{text-align:justify;overflow:hidden;margin-bottom:5px;width:100%}.rv-continuous-size-legend .rv-bubble{background:#d8d9dc;display:inline-block;vertical-align:bottom}.rv-continuous-size-legend .rv-spacer{display:inline-block;font-size:0;line-height:0;width:100%}.rv-legend-titles{height:16px;position:relative}.rv-legend-titles__left,.rv-legend-titles__right,.rv-legend-titles__center{position:absolute;white-space:nowrap;overflow:hidden}.rv-legend-titles__center{display:block;text-align:center;width:100%}.rv-legend-titles__right{right:0}.rv-radial-chart .rv-xy-plot__series--label{pointer-events:none}<xhtml:br />
<xhtml:br />
/*]]&gt;*/</xhtml:style>
</svg>
