<?xml version="1.0" encoding="UTF-8" standalone="no"?>
<svg
   xmlns:xhtml="http://www.w3.org/1999/xhtml"
   xmlns:dc="http://purl.org/dc/elements/1.1/"
   xmlns:cc="http://creativecommons.org/ns#"
   xmlns:rdf="http://www.w3.org/1999/02/22-rdf-syntax-ns#"
   xmlns:svg="http://www.w3.org/2000/svg"
   xmlns="http://www.w3.org/2000/svg"
   xmlns:sodipodi="http://sodipodi.sourceforge.net/DTD/sodipodi-0.dtd"
   xmlns:inkscape="http://www.inkscape.org/namespaces/inkscape"
   viewBox="0 0 600 300"
   version="1.1"
   id="svg1722"
   sodipodi:docname="reaching_task.svg"
   inkscape:version="0.92.4 (5da689c313, 2019-01-14)">
  <metadata
     id="metadata1728">
    <rdf:RDF>
      <cc:Work
         rdf:about="">
        <dc:format>image/svg+xml</dc:format>
        <dc:type
           rdf:resource="http://purl.org/dc/dcmitype/StillImage" />
      </cc:Work>
    </rdf:RDF>
  </metadata>
  <defs
     id="defs1726" />
  <sodipodi:namedview
     pagecolor="#ffffff"
     bordercolor="#666666"
     borderopacity="1"
     objecttolerance="10"
     gridtolerance="10"
     guidetolerance="10"
     inkscape:pageopacity="0"
     inkscape:pageshadow="2"
     inkscape:window-width="1598"
     inkscape:window-height="862"
     id="namedview1724"
     showgrid="false"
     inkscape:zoom="1.6593439"
     inkscape:cx="242.61919"
     inkscape:cy="113.90726"
     inkscape:window-x="0"
     inkscape:window-y="16"
     inkscape:window-maximized="0"
     inkscape:current-layer="g1656" />
  <g
     id="g1540">
    <text
       x="50%"
       y="0"
       style="font-weight:bold;font-family:sans-serif;dominant-baseline:text-before-edge;text-anchor:middle;fill:#363a3d"
       id="text1520">Reaching Task</text>
    <svg
       viewBox="0 0 1024 1024"
       x="188.816650390625"
       y="26.10003662109375"
       height="11"
       width="11"
       version="1.1"
       id="svg1524">
      <path
         d="M128 533.333h768c23.564 0 42.667-19.103 42.667-42.667v-85.333c0-23.564-19.103-42.667-42.667-42.667h-768c-23.564 0-42.667 19.103-42.667 42.667v85.333c0 23.564 19.103 42.667 42.667 42.667z"
         style="fill: rgb(161, 40, 100);"
         id="path1522" />
    </svg>
    <text
       x="207.816650390625"
       y="24.10003662109375"
       style="fill: rgb(161, 40, 100); dominant-baseline: text-before-edge; font-family: sans-serif;"
       id="text1526">Ridge Regression</text>
    <svg
       viewBox="0 0 1024 1024"
       x="320.58331298828125"
       y="26.10003662109375"
       height="11"
       width="11"
       version="1.1"
       id="svg1530">
      <path
         d="M128 533.333h768c23.564 0 42.667-19.103 42.667-42.667v-85.333c0-23.564-19.103-42.667-42.667-42.667h-768c-23.564 0-42.667 19.103-42.667 42.667v85.333c0 23.564 19.103 42.667 42.667 42.667z"
         style="fill: rgb(83, 135, 221);"
         id="path1528" />
    </svg>
    <text
       x="339.58331298828125"
       y="24.10003662109375"
       style="fill: rgb(83, 135, 221); dominant-baseline: text-before-edge; font-family: sans-serif;"
       id="text1532">RLS</text>
    <svg
       viewBox="0 0 1024 1024"
       x="373.04998779296875"
       y="26.10003662109375"
       height="11"
       width="11"
       version="1.1"
       id="svg1536">
      <path
         d="M128 533.333h768c23.564 0 42.667-19.103 42.667-42.667v-85.333c0-23.564-19.103-42.667-42.667-42.667h-768c-23.564 0-42.667 19.103-42.667 42.667v85.333c0 23.564 19.103 42.667 42.667 42.667z"
         style="fill: rgb(71, 154, 95);"
         id="path1534" />
    </svg>
    <text
       x="392.04998779296875"
       y="24.10003662109375"
       style="fill: rgb(71, 154, 95); dominant-baseline: text-before-edge; font-family: sans-serif;"
       id="text1538">BLR</text>
  </g>
  <g
     transform="translate(0, 36.70001220703125)"
     id="g1720">
    <svg
       class="rv-xy-plot__inner"
       width="600"
       height="263"
       version="1.1"
       id="svg1718">
      <g
         transform="translate(26,5)"
         class="rv-xy-plot__grid-lines"
         id="g1548">
        <line
           y1="171.0643518985591"
           y2="171.0643518985591"
           x1="0"
           x2="554"
           class="rv-xy-plot__grid-lines__line"
           style="stroke-width: 0.5px;"
           id="line1542" />
        <line
           y1="98.31340354425123"
           y2="98.31340354425123"
           x1="0"
           x2="554"
           class="rv-xy-plot__grid-lines__line"
           style="stroke-width: 0.5px;"
           id="line1544" />
        <line
           y1="25.562455189943357"
           y2="25.562455189943357"
           x1="0"
           x2="554"
           class="rv-xy-plot__grid-lines__line"
           style="stroke-width: 0.5px;"
           id="line1546" />
      </g>
      <path
         d="M0,15.680874889501972L2.224899598393574,19.89037811941367L4.449799196787148,22.512681338666752L6.674698795180722,23.919011802158565L8.899598393574296,25.003600977554104L11.124497991967871,27.1696039387519L13.349397590361445,7.184690243540298L15.57429718875502,36.466875880561105L17.799196787148592,41.671886432031634L20.02409638554217,13.331104085665833L22.248995983935743,14.978761483763883L24.473895582329313,59.01872094515207L26.69879518072289,0L28.923694779116463,19.346779722087195L31.14859437751004,74.64119054300758L33.373493975903614,20.370463716377728L35.598393574297184,20.94087193510439L37.823293172690754,87.44799998831397L40.04819277108434,91.92144904950136L42.27309236947791,95.70556625599804L44.49799196787149,99.36380310549076L46.72289156626506,102.42647637524217L48.947791164658646,104.35488526380868L51.172690763052216,105.92878056747884L53.397590361445786,107.63812715500795L55.62248995983936,110.31657013347981L57.84738955823293,113.42665223830782L60.07228915662652,115.56090737530337L62.297188755020095,117.70973590692664L64.52208835341368,120.27903325539651L66.74698795180724,121.33776072042944L68.97188755020082,123.51498722056344L71.19678714859438,125.50537669930081L73.42168674698797,127.28493550568474L75.64658634538155,128.90368589187568L77.87148594377511,130.17306009384106L80.09638554216869,130.67246240293295L82.32128514056225,131.20644505636903L84.54618473895584,132.6658468193675L86.77108433734942,134.74273399815544L88.99598393574298,137.3988579406935L91.22088353413656,139.88961069013533L93.44578313253012,142.05689955062516L95.6706827309237,143.89044412973038L97.89558232931729,145.37354099560696L100.12048192771086,146.17511371232166L102.34538152610443,146.86472302997734L104.570281124498,147.4860478102079L106.79518072289157,148.35274425515723L109.02008032128516,149.6436103689111L111.24497991967873,151.72420535563458L113.4698795180723,153.62432986280692L115.69477911646587,154.93181759741088L117.91967871485944,155.8995539401764L120.14457831325304,156.6231129306482L122.3694779116466,157.41466106553534L124.59437751004018,158.22446226933224L126.81927710843374,159.12004554747938L129.0441767068273,160.39688646816455L131.2690763052209,161.7135749485093L133.49397590361448,162.84426245573655L135.71887550200805,163.53249270700547L137.9437751004016,163.89703516862264L140.1686746987952,163.69126941825982L142.39357429718876,163.50766213555585L144.61847389558235,164.2451943025269L146.84337349397592,165.5884038808626L149.06827309236948,166.6147376717955L151.29317269076304,167.52661651762853L153.51807228915663,168.2106707688383L155.7429718875502,168.7478090151482L157.96787148594376,169.02426599806176L160.19277108433735,169.30398222419402L162.41767068273094,169.5048382346007L164.6425702811245,170.13281605858907L166.8674698795181,170.89963022839106L169.09236947791166,171.73260932383405L171.31726907630522,172.43133782430792L173.54216867469881,172.93387398628514L175.76706827309238,173.3021396927054L177.99196787148594,173.67207194732103L180.21686746987953,174.11165611380883L182.4417670682731,174.5259886554276L184.66666666666669,174.99024855642583L186.89156626506022,175.42389817991793L189.11646586345384,175.94771781912837L191.34136546184737,176.4659743533453L193.566265060241,177.04088971243354L195.7911646586345,177.67986575507297L198.01606425702815,178.30639310976645L200.24096385542168,178.8695132954958L202.46586345381527,179.3446987889815L204.69076305220884,179.6961366643195L206.91566265060243,180.03122320327768L209.14056224899596,180.30735690717327L211.36546184738958,180.59397740598524L213.59036144578312,181.07127583274556L215.81526104417674,181.50580900523616L218.04016064257024,181.9215366369421L220.2650602409639,182.35903964475438L222.48995983935743,182.8570292561713L224.71485943775102,183.21686433934224L226.93975903614458,183.5101475006895L229.16465863453817,183.69747500207L231.3895582329317,183.8397788310604L233.61445783132532,184.07180956307175L235.83935742971886,184.42293079041897L238.06425702811245,184.92031452740568L240.28915662650599,185.46049426132112L242.51405622489963,185.95659581478L244.73895582329314,186.33023399436155L246.9638554216868,186.57613447319176L249.18875502008032,186.77120752605714L251.4136546184739,187.00666235887448L253.63855421686745,187.15158852379352L255.86345381526107,187.38126254999878L258.0883534136546,187.5727181356501L260.3132530120482,187.82522673522385L262.5381526104417,188.09872542563352L264.76305220883535,188.33357737255474L266.9879518072289,188.63096669641644L269.21285140562253,189.0276213975855L271.43775100401604,189.41369028330385L273.66265060240966,189.7519748128423L275.8875502008032,190.0324894523924L278.1124497991968,190.22783086610175L280.33734939759034,190.32516292301946L282.56224899598396,190.3211441224611L284.7871485943775,190.30595346599975L287.0120481927711,190.3791903217267L289.2369477911647,190.5647639293836L291.4618473895582,190.98585388891513L293.6867469879519,191.37431424547114L295.9116465863454,191.71843239029698L298.136546184739,191.9786846203223L300.3614457831326,192.11479182134872L302.5863453815262,192.14870049278576L304.8112449799197,192.13030510194844L307.0361445783133,192.20466742653483L309.26104417670683,192.2574890843635L311.48594377510045,192.33589924460668L313.710843373494,192.6302547050344L315.9357429718876,192.92702472766635L318.16064257028114,193.1937725142752L320.38554216867476,193.38060707743116L322.61044176706827,193.5463506330115L324.8353413654619,193.70842233737008L327.06024096385545,193.8500063181148L329.285140562249,194.0388240406254L331.5100401606426,194.17716135780068L333.73493975903614,194.25862751277006L335.9598393574297,194.32702335074242L338.1847389558234,194.47003419552928L340.4096385542169,194.63148071002976L342.6345381526104,194.86895284384045L344.85943775100407,195.04481711724804L347.0843373493977,195.1585720809671L349.3092369477912,195.30231077487187L351.53413654618475,195.4552256850055L353.7590361445783,195.56254963554574L355.9839357429719,195.61539197182051L358.2088353413655,195.71915767945592L360.433734939759,195.80987051991522L362.6586345381526,195.9156233226685L364.8835341365462,196.0179116720875L367.10843373493975,196.0746831856702L369.3333333333333,196.10298259974607L371.55823293172693,196.08348303967455L373.78313253012044,196.0736966462022L376.00803212851406,196.17689762732215L378.2329317269076,196.33227034680988L380.4578313253012,196.50215320874457L382.68273092369475,196.6488629025191L384.90763052208837,196.72793821251602L387.1325301204819,196.75243778342892L389.3574297188755,196.796574995453L391.582329317269,196.82567015455467L393.8072289156627,196.87338543120345L396.0321285140562,196.89410892967922L398.2570281124498,196.9309465318976L400.48192771084337,196.99341941232746L402.706827309237,197.09661391015104L404.9317269076305,197.22466103824235L407.1566265060241,197.32921112143134L409.3815261044177,197.39617877397944L411.60642570281124,197.43265132267786L413.8313253012048,197.47606891324705L416.0562248995984,197.48049347478226L418.2811244979919,197.49761500064164L420.50602409638554,197.54742922088212L422.7309236947791,197.5834450253137L424.95582329317267,197.62445806903474L427.1807228915663,197.70783134009878L429.40562248995985,197.86968996010557L431.6305220883535,197.9997782359882L433.855421686747,198.0663500005865L436.08032128514066,198.0756483915634L438.30522088353416,198.0505613843374L440.5301204819278,198.050439984521L442.75502008032134,198.04286612032217L444.9799196787149,198.0561864822308L447.20481927710847,198.09934092269566L449.42971887550203,198.1568296179931L451.6546184738956,198.2323925841104L453.8795180722892,198.36213673305323L456.1044176706827,198.47602488770426L458.32931726907634,198.54241000216982L460.5542168674699,198.56262964763621L462.77911646586347,198.57343310094453L465.00401606425703,198.59953481768545L467.22891566265065,198.60065403159777L469.45381526104416,198.58897168485578L471.6787148594378,198.56253769417896L473.90361445783134,198.5943771876131L476.1285140562249,198.64280391702195L478.35341365461846,198.74264948136158L480.57831325301214,198.84372257252392L482.8032128514056,198.92975360153218L485.02811244979927,199.06199835136707L487.25301204819283,199.1530445034634L489.4779116465864,199.1876236159483L491.70281124497996,199.17514240263816L493.9277108433736,199.13157132725328L496.1526104417671,199.0922248692443L498.3775100401607,199.02202888202777L500.6024096385542,198.9723344120957L502.8273092369478,199.01100707931954L505.0522088353414,199.11842774639516L507.27710843373495,199.2396035527982L509.5020080321285,199.33558388787296L511.72690763052213,199.40766322804768L513.9518072289156,199.43129969352327L516.1767068273092,199.4093340202393L518.4016064257028,199.36059680062462L520.6265060240964,199.3501935469654L522.8514056224899,199.3398361972402L525.0763052208836,199.339647765691L527.3012048192771,199.36073494037794L529.5261044176707,199.4263047083523L531.7510040160643,199.51934818737809L533.9759036144579,199.6149048907441L536.2008032128514,199.69156170580288L538.4257028112451,199.74464847434228L540.6506024096386,199.77611642600775L542.8755020080322,199.78034777478888L545.1004016064257,199.75584823262886L547.3253012048193,199.72781666762523L549.5502008032129,199.71683353271712L551.7751004016064,199.72380407704705L554,199.74312338641025"
         class="rv-xy-plot__series rv-xy-plot__series--line"
         transform="translate(26,5)"
         style="opacity: 1; stroke-width: 1.5px; stroke: rgb(71, 154, 95);"
         id="path1550" />
      <path
         d="M0,11.107767759471383L2.224899598393574,12.680199776305244L4.449799196787148,14.37100079620309L6.674698795180722,16.092037945056315L8.899598393574296,17.768058538970443L11.124497991967871,19.388442943271276L13.349397590361445,21.02796342385289L15.57429718875502,22.8469770405039L17.799196787148592,25.002652969611894L20.02409638554217,27.743602092460634L22.248995983935743,31.09049987042725L24.473895582329313,34.969876461344114L26.69879518072289,39.4476320209368L28.923694779116463,44.59805208978001L31.14859437751004,50.35079715634678L33.373493975903614,56.37643495229937L35.598393574297184,61.553736703559586L37.823293172690754,65.54571343677958L40.04819277108434,68.4496463974858L42.27309236947791,71.40804196861531L44.49799196787149,73.6117588787294L46.72289156626506,19.643087896771846L48.947791164658646,1.3853714374586965L51.172690763052216,20.123113829530034L53.397590361445786,1.6316112049978218L55.62248995983936,80.94687814595481L57.84738955823293,82.61686662461511L60.07228915662652,84.30552719440252L62.297188755020095,85.8564638816184L64.52208835341368,86.97444022117743L66.74698795180724,87.56833935326208L68.97188755020082,88.70257073374815L71.19678714859438,90.68904197900945L73.42168674698797,93.10176706362033L75.64658634538155,96.2535814524623L77.87148594377511,99.29092986502766L80.09638554216869,101.95395405570332L82.32128514056225,104.06564159342597L84.54618473895584,106.16197769034082L86.77108433734942,108.24566619238287L88.99598393574298,111.00236739439947L91.22088353413656,114.13848527886722L93.44578313253012,115.90337438221904L95.6706827309237,117.66497819365232L97.89558232931729,119.72306536712627L100.12048192771086,121.73168482483815L102.34538152610443,124.47637537398651L104.570281124498,127.94384175316158L106.79518072289157,131.22460674405383L109.02008032128516,134.07483885265455L111.24497991967873,136.27482948653102L113.4698795180723,139.07189751181676L115.69477911646587,141.62359588240244L117.91967871485944,143.29064643478884L120.14457831325304,144.60453588917244L122.3694779116466,146.0608436882015L124.59437751004018,147.62626819220958L126.81927710843374,149.92882019522077L129.0441767068273,152.35195418823582L131.2690763052209,154.3932805960203L133.49397590361448,155.32431930021565L135.71887550200805,156.98808445197614L137.9437751004016,157.4391171188474L140.1686746987952,158.51439967062535L142.39357429718876,159.71975407227293L144.61847389558235,160.6990351289714L146.84337349397592,161.52464949505358L149.06827309236948,162.45602682399144L151.29317269076304,163.90141894078764L153.51807228915663,164.54962378659116L155.7429718875502,165.36422864243323L157.96787148594376,166.49459044278862L160.19277108433735,167.72156097100128L162.41767068273094,168.61618472122453L164.6425702811245,169.78508721595216L166.8674698795181,170.9522782171154L169.09236947791166,172.4301360037778L171.31726907630522,174.143286138532L173.54216867469881,175.4115241455143L175.76706827309238,176.25393836912417L177.99196787148594,177.09337184270456L180.21686746987953,178.17288651000902L182.4417670682731,179.9502596947831L184.66666666666669,181.2697788620381L186.89156626506022,181.75061575916305L189.11646586345384,181.83317106473334L191.34136546184737,182.37700024362724L193.566265060241,182.52824615508734L195.7911646586345,183.4096014215533L198.01606425702815,184.69834553469954L200.24096385542168,185.49640662697408L202.46586345381527,187.0067778493679L204.69076305220884,187.9811022551482L206.91566265060243,188.90197775424622L209.14056224899596,189.2104994255067L211.36546184738958,189.71071409655568L213.59036144578312,190.14559266036602L215.81526104417674,190.63600793497073L218.04016064257024,191.37678122695712L220.2650602409639,192.55311710486205L222.48995983935743,193.86082985118435L224.71485943775102,194.85998673940063L226.93975903614458,195.47451195069726L229.16465863453817,196.26355826031073L231.3895582329317,197.10207291647114L233.61445783132532,197.89362616044087L235.83935742971886,198.48168054329494L238.06425702811245,199.14237865974133L240.28915662650599,199.68001065993886L242.51405622489963,200.0979999704304L244.73895582329314,200.5232245210203L246.9638554216868,200.87504377629168L249.18875502008032,201.1495928932619L251.4136546184739,201.46882902236746L253.63855421686745,201.9920065423837L255.86345381526107,202.4896615775208L258.0883534136546,203.17251039057393L260.3132530120482,203.8005659496334L262.5381526104417,204.23978266593275L264.76305220883535,204.71111304674181L266.9879518072289,205.38194134957877L269.21285140562253,206.16305782758485L271.43775100401604,206.81235195215623L273.66265060240966,207.28512081958033L275.8875502008032,207.5551365357729L278.1124497991968,208.00744994045647L280.33734939759034,208.22634210080585L282.56224899598396,208.31747436711595L284.7871485943775,208.760930688628L287.0120481927711,209.3256350257858L289.2369477911647,209.88879855850723L291.4618473895582,210.36782804507214L293.6867469879519,210.72866450072257L295.9116465863454,211.10675613728756L298.136546184739,211.4281491471663L300.3614457831326,211.7802655026491L302.5863453815262,212.1572364180709L304.8112449799197,212.57475593747978L307.0361445783133,212.96072691619062L309.26104417670683,213.32484424581742L311.48594377510045,213.6740163142238L313.710843373494,213.99091067356727L315.9357429718876,214.25410489706996L318.16064257028114,214.49713665080571L320.38554216867476,214.77889099394457L322.61044176706827,215.0945131852305L324.8353413654619,215.34929639508553L327.06024096385545,215.6326115776612L329.285140562249,215.90328594749604L331.5100401606426,216.17657564428183L333.73493975903614,216.43591378921317L335.9598393574297,216.66659326643253L338.1847389558234,216.90448606724172L340.4096385542169,217.13670348195996L342.6345381526104,217.37160186456288L344.85943775100407,217.59682435356453L347.0843373493977,217.82394598374606L349.3092369477912,218.0878493413127L351.53413654618475,218.33574456927718L353.7590361445783,218.5870662314806L355.9839357429719,218.82599281140924L358.2088353413655,219.05902739134015L360.433734939759,219.27525586462068L362.6586345381526,219.48961372310004L364.8835341365462,219.68630371179438L367.10843373493975,219.8726711408103L369.3333333333333,220.05045135852737L371.55823293172693,220.21396263815416L373.78313253012044,220.37778390329206L376.00803212851406,220.54452687118564L378.2329317269076,220.70102905505797L380.4578313253012,220.87651657216563L382.68273092369475,221.05144186010727L384.90763052208837,221.21803622821994L387.1325301204819,221.3792859126407L389.3574297188755,221.52876738360868L391.582329317269,221.6658876242426L393.8072289156627,221.79889187215113L396.0321285140562,221.93068884776196L398.2570281124498,222.06412421640346L400.48192771084337,222.1938725429871L402.706827309237,222.32009950927537L404.9317269076305,222.4459916356803L407.1566265060241,222.5663779958572L409.3815261044177,222.68498603388946L411.60642570281124,222.80120686358416L413.8313253012048,222.91629684199066L416.0562248995984,223.02948611420243L418.2811244979919,223.1444221348715L420.50602409638554,223.26044041514032L422.7309236947791,223.3783318555583L424.95582329317267,223.49431287672635L427.1807228915663,223.60540645357207L429.40562248995985,223.71608991900754L431.6305220883535,223.82400504901537L433.855421686747,223.9311643762243L436.08032128514066,224.03613609890323L438.30522088353416,224.1407165813196L440.5301204819278,224.24025191225934L442.75502008032134,224.33813253954844L444.9799196787149,224.43728029609173L447.20481927710847,224.53480675320125L449.42971887550203,224.63255734030844L451.6546184738956,224.7285937007715L453.8795180722892,224.8247865542607L456.1044176706827,224.919812074586L458.32931726907634,225.0140863007426L460.5542168674699,225.10605248592498L462.77911646586347,225.1955722201375L465.00401606425703,225.28375298469658L467.22891566265065,225.3688326214226L469.45381526104416,225.45135702982458L471.6787148594378,225.52983175575656L473.90361445783134,225.60958055513248L476.1285140562249,225.6883966428595L478.35341365461846,225.76397196270452L480.57831325301214,225.8364936677775L482.8032128514056,225.9109878581402L485.02811244979927,225.98395779242517L487.25301204819283,226.05731470222184L489.4779116465864,226.13130675628108L491.70281124497996,226.2050551898138L493.9277108433736,226.27722794898656L496.1526104417671,226.34959235875138L498.3775100401607,226.42280537198548L500.6024096385542,226.49430317684994L502.8273092369478,226.5635383724811L505.0522088353414,226.63144486321767L507.27710843373495,226.69927833273368L509.5020080321285,226.76531539061398L511.72690763052213,226.83096380189141L513.9518072289156,226.8945632495937L516.1767068273092,226.95798282137537L518.4016064257028,227.02144817960155L520.6265060240964,227.08572269552525L522.8514056224899,227.14923342845168L525.0763052208836,227.2120343943099L527.3012048192771,227.27504126675345L529.5261044176707,227.33802619381615L531.7510040160643,227.40038897737898L533.9759036144579,227.46162316650623L536.2008032128514,227.52032394780247L538.4257028112451,227.5804311705895L540.6506024096386,227.63906602524892L542.8755020080322,227.69972868745626L545.1004016064257,227.7592027498252L547.3253012048193,227.81972213612573L549.5502008032129,227.880391284039L551.7751004016064,227.9406394911064L554,228"
         class="rv-xy-plot__series rv-xy-plot__series--line"
         transform="translate(26,5)"
         style="opacity: 1; stroke-width: 1.5px; stroke: rgb(83, 135, 221);"
         id="path1552" />
      <path
         d="M0,10.06503157942048L2.224899598393574,11.466090510064944L4.449799196787148,13.18507112193492L6.674698795180722,15.112100865861457L8.899598393574296,17.189718954522288L11.124497991967871,19.35754327255555L13.349397590361445,21.57339045708138L15.57429718875502,24.131823290465597L17.799196787148592,27.337984160449466L20.02409638554217,31.528277724337926L22.248995983935743,36.79864297155612L24.473895582329313,42.115604987063456L26.69879518072289,46.02136180616263L28.923694779116463,48.76582410141697L31.14859437751004,50.290783591446925L33.373493975903614,14.701045307851919L35.598393574297184,14.600034117661991L37.823293172690754,14.601254600351645L40.04819277108434,15.101694525010748L42.27309236947791,15.610161516818462L44.49799196787149,57.68762294326959L46.72289156626506,60.501713582008975L48.947791164658646,63.92767263269352L51.172690763052216,67.57214359689387L53.397590361445786,18.905562894635704L55.62248995983936,19.258005758957378L57.84738955823293,20.01963818324608L60.07228915662652,20.857596520983293L62.297188755020095,20.94662068164634L64.52208835341368,21.043233520224554L66.74698795180724,81.96479439343014L68.97188755020082,83.01375936831074L71.19678714859438,83.76150649081671L73.42168674698797,84.07196230809649L75.64658634538155,82.55183501694584L77.87148594377511,79.2081637381323L80.09638554216869,83.34487281947406L82.32128514056225,88.38005550629512L84.54618473895584,91.11311841273684L86.77108433734942,93.40221446984765L88.99598393574298,95.09464893899474L91.22088353413656,92.4876200635093L93.44578313253012,22.441237574018505L95.6706827309237,91.04413053342849L97.89558232931729,93.70565770904605L100.12048192771086,94.19627027698039L102.34538152610443,97.07191310103589L104.570281124498,98.89407366868981L106.79518072289157,100.67555653895491L109.02008032128516,100.27464518926692L111.24497991967873,100.68784682635848L113.4698795180723,103.1737278489093L115.69477911646587,100.98616679297362L117.91967871485944,109.12961014665602L120.14457831325304,114.67312913561639L122.3694779116466,114.18467333303334L124.59437751004018,24.124390978843895L126.81927710843374,111.03196920134208L129.0441767068273,112.20071768856087L131.2690763052209,114.21077186171438L133.49397590361448,109.38926960616573L135.71887550200805,113.06625044058926L137.9437751004016,115.19302074329134L140.1686746987952,114.76979791529791L142.39357429718876,113.77534537724264L144.61847389558235,114.05890296495919L146.84337349397592,116.49857606882927L149.06827309236948,117.75038167616519L151.29317269076304,117.87401023625156L153.51807228915663,122.20413831247521L155.7429718875502,126.49889988292719L157.96787148594376,125.03924157142545L160.19277108433735,24.290257356125515L162.41767068273094,126.24072634717426L164.6425702811245,132.10119794126507L166.8674698795181,133.9156966792612L169.09236947791166,135.92438728503205L171.31726907630522,137.06577278870904L173.54216867469881,139.30320000388951L175.76706827309238,142.38407790660335L177.99196787148594,146.14504873050836L180.21686746987953,149.0250055660112L182.4417670682731,148.2167434534373L184.66666666666669,145.06973475680846L186.89156626506022,146.0494499647758L189.11646586345384,147.65584218602675L191.34136546184737,149.3173285889806L193.566265060241,150.1707536395001L195.7911646586345,146.68522598263286L198.01606425702815,152.19174538275718L200.24096385542168,152.46777381470096L202.46586345381527,151.98419998801802L204.69076305220884,150.56452585765808L206.91566265060243,154.47366993382423L209.14056224899596,156.311624923632L211.36546184738958,158.66074406808772L213.59036144578312,160.62027454150598L215.81526104417674,25.152038627219355L218.04016064257024,25.14215656897018L220.2650602409639,3.440979743582231L222.48995983935743,25.189856555047285L224.71485943775102,165.29948645346127L226.93975903614458,166.85400687910956L229.16465863453817,164.5361938306548L231.3895582329317,166.23557679258786L233.61445783132532,164.71044575858133L235.83935742971886,164.41322448704747L238.06425702811245,151.23738253312385L240.28915662650599,156.5957863988462L242.51405622489963,157.6905916949928L244.73895582329314,152.44675947033295L246.9638554216868,136.2390533701879L249.18875502008032,149.5496852223171L251.4136546184739,151.29702805574743L253.63855421686745,161.06078654356622L255.86345381526107,163.49150731435805L258.0883534136546,164.73885762154953L260.3132530120482,165.2218342191703L262.5381526104417,165.13585265981487L264.76305220883535,170.60952271556624L266.9879518072289,173.38072733797915L269.21285140562253,173.26983203510014L271.43775100401604,172.43066242363741L273.66265060240966,173.10967874736102L275.8875502008032,172.83368670319982L278.1124497991968,177.890728070907L280.33734939759034,179.7780140163328L282.56224899598396,178.9213808892599L284.7871485943775,174.86521158979093L287.0120481927711,179.75921497687932L289.2369477911647,182.97424568325465L291.4618473895582,184.45060669818236L293.6867469879519,183.82911714092427L295.9116465863454,180.2317845234475L298.136546184739,180.62445140052554L300.3614457831326,185.31619330756968L302.5863453815262,185.3947878824125L304.8112449799197,185.64647747032268L307.0361445783133,185.98975803476554L309.26104417670683,184.99288498449866L311.48594377510045,181.41246713325987L313.710843373494,185.38162693124252L315.9357429718876,187.22875751216094L318.16064257028114,187.8777288028317L320.38554216867476,186.83166476746837L322.61044176706827,188.6745435023046L324.8353413654619,189.53693885639012L327.06024096385545,188.60038578053562L329.285140562249,189.13828950951583L331.5100401606426,189.03877592794237L333.73493975903614,185.81152969168053L335.9598393574297,191.35401939277048L338.1847389558234,194.04446355606757L340.4096385542169,196.22489934745482L342.6345381526104,197.72012950462357L344.85943775100407,198.34759927248095L347.0843373493977,198.676170597921L349.3092369477912,199.25907170467693L351.53413654618475,199.6065848768701L353.7590361445783,198.77216782088178L355.9839357429719,200.37728937237418L358.2088353413655,201.10717565439475L360.433734939759,200.50145492287643L362.6586345381526,197.28904033870515L364.8835341365462,198.80723914224498L367.10843373493975,199.68547903102157L369.3333333333333,200.4143785377545L371.55823293172693,200.08258628602354L373.78313253012044,198.92094177507346L376.00803212851406,196.24899281766614L378.2329317269076,197.2008424648014L380.4578313253012,197.92038618209227L382.68273092369475,199.27129599188885L384.90763052208837,198.94727341902978L387.1325301204819,196.65088897348218L389.3574297188755,199.8643203958114L391.582329317269,202.23194356826664L393.8072289156627,203.45797186376933L396.0321285140562,204.13017654992663L398.2570281124498,205.43286938340503L400.48192771084337,206.32690544956853L402.706827309237,206.8998176309339L404.9317269076305,207.1685022764908L407.1566265060241,207.32876269311282L409.3815261044177,207.20561741693126L411.60642570281124,207.83283523751766L413.8313253012048,208.6514514371036L416.0562248995984,209.0650035827854L418.2811244979919,209.29394738946084L420.50602409638554,209.58164048423833L422.7309236947791,209.67603692644207L424.95582329317267,209.4649459751558L427.1807228915663,210.09721036777148L429.40562248995985,210.61783262772977L431.6305220883535,210.9475166735453L433.855421686747,210.9740072055842L436.08032128514066,210.56804245683315L438.30522088353416,211.3779932306552L440.5301204819278,211.61444718279498L442.75502008032134,211.8808601033951L444.9799196787149,212.02094783782016L447.20481927710847,212.20414279423073L449.42971887550203,212.32718015041883L451.6546184738956,212.29042584484603L453.8795180722892,212.27808755754813L456.1044176706827,212.21169239196314L458.32931726907634,212.09792258698346L460.5542168674699,212.20247741841848L462.77911646586347,212.15773920655906L465.00401606425703,211.53273710313078L467.22891566265065,212.4721372400123L469.45381526104416,213.20167777902938L471.6787148594378,213.5541855987177L473.90361445783134,213.6571874082652L476.1285140562249,213.97233401556164L478.35341365461846,214.24713461899847L480.57831325301214,214.5013714381878L482.8032128514056,214.5752932812608L485.02811244979927,214.175260659588L487.25301204819283,214.9718101576328L489.4779116465864,215.2892848750767L491.70281124497996,215.3923717284272L493.9277108433736,215.37672081973466L496.1526104417671,215.43487973271243L498.3775100401607,215.4806684938662L500.6024096385542,215.36104690715297L502.8273092369478,215.62549375507936L505.0522088353414,215.82364686494708L507.27710843373495,216.1259167951637L509.5020080321285,216.27419891317624L511.72690763052213,216.3827763172227L513.9518072289156,216.39530718116603L516.1767068273092,216.36064798600074L518.4016064257028,216.6771258182035L520.6265060240964,216.80184495645216L522.8514056224899,216.9982669486801L525.0763052208836,217.132314774834L527.3012048192771,217.26132082585457L529.5261044176707,217.37021014368213L531.7510040160643,217.46130791815753L533.9759036144579,217.5805278602036L536.2008032128514,217.69876700968663L538.4257028112451,217.78897899172665L540.6506024096386,217.9379648411256L542.8755020080322,218.0614390781558L545.1004016064257,218.1777131247047L547.3253012048193,218.23119795227512L549.5502008032129,218.34364511427287L551.7751004016064,218.52493142935697L554,218.64044664712884"
         class="rv-xy-plot__series rv-xy-plot__series--line"
         transform="translate(26,5)"
         style="opacity: 1; stroke-width: 1.5px; stroke: rgb(161, 40, 100);"
         id="path1554" />
      <g
         class="rv-xy-plot__series rv-xy-plot__series--mark"
         transform="translate(26,5)"
         id="g1558">
        <circle
           r="2"
           cx="554"
           cy="218.64044664712884"
           style="opacity: 1; stroke: rgb(161, 40, 100); fill: rgb(161, 40, 100); stroke-width: 1px;"
           id="circle1556" />
      </g>
      <g
         class="rv-xy-plot__series rv-xy-plot__series--mark"
         transform="translate(26,5)"
         id="g1562">
        <circle
           r="2"
           cx="554"
           cy="228"
           style="opacity: 1; stroke: rgb(83, 135, 221); fill: rgb(83, 135, 221); stroke-width: 1px;"
           id="circle1560" />
      </g>
      <g
         class="rv-xy-plot__series rv-xy-plot__series--mark"
         transform="translate(26,5)"
         id="g1566">
        <circle
           r="2"
           cx="554"
           cy="199.74312338641025"
           style="opacity: 1; stroke: rgb(71, 154, 95); fill: rgb(71, 154, 95); stroke-width: 1px;"
           id="circle1564" />
      </g>
      <defs
         class="rv-gradient-defs"
         id="defs1592">
        <linearGradient
           id="leftFadeGradient"
           x1="0"
           x2="1"
           y1="0"
           y2="0">
          <stop
             offset="0%"
             stop-color="white"
             stop-opacity="1"
             id="stop1568" />
          <stop
             offset="60%"
             stop-color="white"
             stop-opacity="1"
             id="stop1570" />
          <stop
             offset="100%"
             stop-color="white"
             stop-opacity="0"
             id="stop1572" />
        </linearGradient>
        <linearGradient
           id="rightFadeGradient"
           x1="1"
           x2="0"
           y1="0"
           y2="0">
          <stop
             offset="0%"
             stop-color="white"
             stop-opacity="1"
             id="stop1575" />
          <stop
             offset="100%"
             stop-color="white"
             stop-opacity="0"
             id="stop1577" />
        </linearGradient>
        <linearGradient
           id="bottomFadeGradient"
           x1="0"
           x2="0"
           y1="1"
           y2="0">
          <stop
             offset="0%"
             stop-color="white"
             stop-opacity="1"
             id="stop1580" />
          <stop
             offset="40%"
             stop-color="white"
             stop-opacity="1"
             id="stop1582" />
          <stop
             offset="100%"
             stop-color="white"
             stop-opacity="0"
             id="stop1584" />
        </linearGradient>
        <linearGradient
           id="topFadeGradient"
           x1="0"
           x2="0"
           y1="0"
           y2="1">
          <stop
             offset="0%"
             stop-color="white"
             stop-opacity="1"
             id="stop1587" />
          <stop
             offset="100%"
             stop-color="white"
             stop-opacity="0"
             id="stop1589" />
        </linearGradient>
      </defs>
      <g
         class="rv-xy-plot__borders plot-border"
         id="g1602">
        <rect
           class="rv-xy-plot__borders-bottom plot-border-bottom"
           style="fill: url(&quot;#bottomFadeGradient&quot;); opacity: 1;"
           x="0"
           y="233"
           width="600"
           height="30"
           id="rect1594" />
        <rect
           class="rv-xy-plot__borders-left plot-border-left"
           style="fill: url(&quot;#leftFadeGradient&quot;); opacity: 1;"
           x="0"
           y="0"
           width="26"
           height="263"
           id="rect1596" />
        <rect
           class="rv-xy-plot__borders-right plot-border-right"
           style="fill: url(&quot;#rightFadeGradient&quot;); opacity: 1;"
           x="580"
           y="0"
           width="20"
           height="263"
           id="rect1598" />
        <rect
           class="rv-xy-plot__borders-top plot-border-top"
           style="fill: url(&quot;#topFadeGradient&quot;); opacity: 1;"
           x="0"
           y="0"
           width="600"
           height="5"
           id="rect1600" />
      </g>
      <g
         class="rv-xy-plot__axis rv-xy-plot__axis--horizontal"
         id="g1608"
         transform="translate(26,NaN)">
        <line
           x1="0"
           x2="554"
           y1="0"
           y2="0"
           class="rv-xy-plot__axis__line"
           id="line1604" />
        <g
           class="rv-xy-plot__axis__ticks"
           id="g1606"
           transform="translate(0, 0)" />
      </g>
      <g
         transform="translate(26,233)"
         class="rv-xy-plot__axis rv-xy-plot__axis--horizontal"
         style="font-family: Source Sans Pro; fill: rgb(107, 107, 118); font-size: 11px;"
         id="g1656">
        <line
           x1="0"
           x2="554"
           y1="0"
           y2="0"
           class="rv-xy-plot__axis__line"
           style="font-family: Source Sans Pro; fill: rgb(107, 107, 118); font-size: 11px; stroke-width: 0px;"
           id="line1610" />
        <g
           class="rv-xy-plot__axis__ticks"
           id="g1648"
           transform="translate(0, 0)">
          <g
             transform="translate(59.09657654707775, 0)"
             class="rv-xy-plot__axis__tick"
             style="font-family: Source Sans Pro; fill: rgb(107, 107, 118); font-size: 11px;"
             id="g1616">
            <line
               x1="0"
               x2="0"
               y1="-6"
               y2="6"
               class="rv-xy-plot__axis__tick__line"
               style="font-family: Source Sans Pro; fill: rgb(107, 107, 118); font-size: 11px; stroke-width: 0px;"
               id="line1612" />
            <text
               dy="0.72em"
               transform="translate(0, 14)"
               class="rv-xy-plot__axis__tick__text"
               style="font-family: sans-serif; fill: rgb(107, 107, 118); font-size: 11px;"
               id="text1614"
               text-anchor="middle">500</text>
          </g>
          <g
             transform="translate(144.98677104960922, 0)"
             class="rv-xy-plot__axis__tick"
             style="font-family: Source Sans Pro; fill: rgb(107, 107, 118); font-size: 11px;"
             id="g1622">
            <line
               x1="0"
               x2="0"
               y1="-6"
               y2="6"
               class="rv-xy-plot__axis__tick__line"
               style="font-family: Source Sans Pro; fill: rgb(107, 107, 118); font-size: 11px; stroke-width: 0px;"
               id="line1618" />
            <text
               dy="0.72em"
               transform="translate(0, 14)"
               class="rv-xy-plot__axis__tick__text"
               style="font-family: sans-serif; fill: rgb(107, 107, 118); font-size: 11px;"
               id="text1620"
               text-anchor="middle">1k</text>
          </g>
          <g
             transform="translate(230.87696555214063, 0)"
             class="rv-xy-plot__axis__tick"
             style="font-family: Source Sans Pro; fill: rgb(107, 107, 118); font-size: 11px;"
             id="g1628">
            <line
               x1="0"
               x2="0"
               y1="-6"
               y2="6"
               class="rv-xy-plot__axis__tick__line"
               style="font-family: Source Sans Pro; fill: rgb(107, 107, 118); font-size: 11px; stroke-width: 0px;"
               id="line1624" />
            <text
               dy="0.72em"
               transform="translate(0, 14)"
               class="rv-xy-plot__axis__tick__text"
               style="font-family: sans-serif; fill: rgb(107, 107, 118); font-size: 11px;"
               id="text1626"
               text-anchor="middle">1.5k</text>
          </g>
          <g
             transform="translate(316.76716005467205, 0)"
             class="rv-xy-plot__axis__tick"
             style="font-family: Source Sans Pro; fill: rgb(107, 107, 118); font-size: 11px;"
             id="g1634">
            <line
               x1="0"
               x2="0"
               y1="-6"
               y2="6"
               class="rv-xy-plot__axis__tick__line"
               style="font-family: Source Sans Pro; fill: rgb(107, 107, 118); font-size: 11px; stroke-width: 0px;"
               id="line1630" />
            <text
               dy="0.72em"
               transform="translate(0, 14)"
               class="rv-xy-plot__axis__tick__text"
               style="font-family: sans-serif; fill: rgb(107, 107, 118); font-size: 11px;"
               id="text1632"
               text-anchor="middle">2k</text>
          </g>
          <g
             transform="translate(402.6573545572035, 0)"
             class="rv-xy-plot__axis__tick"
             style="font-family: Source Sans Pro; fill: rgb(107, 107, 118); font-size: 11px;"
             id="g1640">
            <line
               x1="0"
               x2="0"
               y1="-6"
               y2="6"
               class="rv-xy-plot__axis__tick__line"
               style="font-family: Source Sans Pro; fill: rgb(107, 107, 118); font-size: 11px; stroke-width: 0px;"
               id="line1636" />
            <text
               dy="0.72em"
               transform="translate(0, 14)"
               class="rv-xy-plot__axis__tick__text"
               style="font-family: sans-serif; fill: rgb(107, 107, 118); font-size: 11px;"
               id="text1638"
               text-anchor="middle">2.5k</text>
          </g>
          <g
             transform="translate(488.54754905973493, 0)"
             class="rv-xy-plot__axis__tick"
             style="font-family: Source Sans Pro; fill: rgb(107, 107, 118); font-size: 11px;"
             id="g1646">
            <line
               x1="0"
               x2="0"
               y1="-6"
               y2="6"
               class="rv-xy-plot__axis__tick__line"
               style="font-family: Source Sans Pro; fill: rgb(107, 107, 118); font-size: 11px; stroke-width: 0px;"
               id="line1642" />
            <text
               dy="0.72em"
               transform="translate(0, 14)"
               class="rv-xy-plot__axis__tick__text"
               style="font-family: sans-serif; fill: rgb(107, 107, 118); font-size: 11px;"
               id="text1644"
               text-anchor="middle">3k</text>
          </g>
        </g>
        <g
           class="rv-xy-plot__axis__title"
           id="g1654"
           transform="translate(225.39029,4.8211826)">
          <g
             style="font-size:11px;font-family:'Source Sans Pro';text-anchor:end;fill:#6b6b76"
             transform="translate(548,-6)"
             id="g1652">
            <text
               style="font-size:11px;font-family:sans-serif;fill:#6b6b76"
               id="text1650"
               x="-238.64854"
               y="11.450309">total samples</text>
          </g>
        </g>
      </g>
      <g
         transform="translate(26,233)"
         class="rv-xy-plot__axis rv-xy-plot__axis--horizontal"
         id="g1698">
        <line
           x1="0"
           x2="0"
           y1="0"
           y2="0"
           class="rv-xy-plot__axis__line"
           id="line1658" />
        <g
           class="rv-xy-plot__axis__ticks"
           id="g1696"
           transform="translate(0, 0)">
          <g
             transform="translate(59.09657654707775, 0)"
             class="rv-xy-plot__axis__tick"
             id="g1664">
            <line
               x1="0"
               x2="0"
               y1="-6"
               y2="6"
               class="rv-xy-plot__axis__tick__line"
               id="line1660" />
            <text
               dy="0.72em"
               transform="translate(0, 14)"
               class="rv-xy-plot__axis__tick__text"
               style="font-family: sans-serif;"
               id="text1662"
               text-anchor="middle" />
          </g>
          <g
             transform="translate(144.98677104960922, 0)"
             class="rv-xy-plot__axis__tick"
             id="g1670">
            <line
               x1="0"
               x2="0"
               y1="-6"
               y2="6"
               class="rv-xy-plot__axis__tick__line"
               id="line1666" />
            <text
               dy="0.72em"
               transform="translate(0, 14)"
               class="rv-xy-plot__axis__tick__text"
               style="font-family: sans-serif;"
               id="text1668"
               text-anchor="middle" />
          </g>
          <g
             transform="translate(230.87696555214063, 0)"
             class="rv-xy-plot__axis__tick"
             id="g1676">
            <line
               x1="0"
               x2="0"
               y1="-6"
               y2="6"
               class="rv-xy-plot__axis__tick__line"
               id="line1672" />
            <text
               dy="0.72em"
               transform="translate(0, 14)"
               class="rv-xy-plot__axis__tick__text"
               style="font-family: sans-serif;"
               id="text1674"
               text-anchor="middle" />
          </g>
          <g
             transform="translate(316.76716005467205, 0)"
             class="rv-xy-plot__axis__tick"
             id="g1682">
            <line
               x1="0"
               x2="0"
               y1="-6"
               y2="6"
               class="rv-xy-plot__axis__tick__line"
               id="line1678" />
            <text
               dy="0.72em"
               transform="translate(0, 14)"
               class="rv-xy-plot__axis__tick__text"
               style="font-family: sans-serif;"
               id="text1680"
               text-anchor="middle" />
          </g>
          <g
             transform="translate(402.6573545572035, 0)"
             class="rv-xy-plot__axis__tick"
             id="g1688">
            <line
               x1="0"
               x2="0"
               y1="-6"
               y2="6"
               class="rv-xy-plot__axis__tick__line"
               id="line1684" />
            <text
               dy="0.72em"
               transform="translate(0, 14)"
               class="rv-xy-plot__axis__tick__text"
               style="font-family: sans-serif;"
               id="text1686"
               text-anchor="middle" />
          </g>
          <g
             transform="translate(488.54754905973493, 0)"
             class="rv-xy-plot__axis__tick"
             id="g1694">
            <line
               x1="0"
               x2="0"
               y1="-6"
               y2="6"
               class="rv-xy-plot__axis__tick__line"
               id="line1690" />
            <text
               dy="0.72em"
               transform="translate(0, 14)"
               class="rv-xy-plot__axis__tick__text"
               style="font-family: sans-serif;"
               id="text1692"
               text-anchor="middle" />
          </g>
        </g>
      </g>
      <g
         transform="translate(0,5)"
         class="rv-xy-plot__axis rv-xy-plot__axis--vertical"
         style="font-family: Source Sans Pro; fill: rgb(107, 107, 118); font-size: 11px;"
         id="g1716">
        <line
           x1="26"
           x2="26"
           y1="0"
           y2="228"
           class="rv-xy-plot__axis__line"
           style="font-family: Source Sans Pro; fill: rgb(107, 107, 118); font-size: 11px; stroke: none;"
           id="line1700" />
        <g
           transform="translate(26, 0)"
           class="rv-xy-plot__axis__ticks"
           id="g1708">
          <g
             transform="translate(0, 98.31340354425123)"
             class="rv-xy-plot__axis__tick"
             style="font-family: Source Sans Pro; fill: rgb(107, 107, 118); font-size: 11px;"
             id="g1706">
            <line
               y1="0"
               y2="0"
               x1="6"
               x2="-6"
               class="rv-xy-plot__axis__tick__line"
               style="font-family: Source Sans Pro; fill: rgb(107, 107, 118); font-size: 11px; stroke: none;"
               id="line1702" />
            <text
               dy="0.32em"
               transform="translate(-14, 0)"
               class="rv-xy-plot__axis__tick__text"
               style="font-family: sans-serif; fill: rgb(107, 107, 118); font-size: 11px;"
               id="text1704"
               text-anchor="end">1</text>
          </g>
        </g>
        <g
           transform="translate(26, 0)"
           class="rv-xy-plot__axis__title"
           id="g1714">
          <g
             style="text-anchor: end; font-family: Source Sans Pro; fill: rgb(107, 107, 118); font-size: 11px;"
             transform="translate(16, 6) rotate(-90)"
             id="g1712">
            <text
               style="font-family: sans-serif; fill: rgb(107, 107, 118); font-size: 11px;"
               id="text1710" />
          </g>
        </g>
      </g>
    </svg>
  </g>
  <xhtml:style>/*&lt;![CDATA[*/<xhtml:br />
text { font-size: 10px; fill: black }<xhtml:br />
.react-vis-magic-css-import-rule{display:inherit}.rv-treemap{font-size:12px;position:relative}.rv-treemap__leaf{overflow:hidden;position:absolute}.rv-treemap__leaf--circle{align-items:center;border-radius:100%;display:flex;justify-content:center}.rv-treemap__leaf__content{overflow:hidden;padding:10px;text-overflow:ellipsis}.rv-xy-plot{color:#c3c3c3;position:relative}.rv-xy-plot canvas{pointer-events:none}.rv-xy-plot .rv-xy-canvas{pointer-events:none;position:absolute}.rv-xy-plot__inner{display:block}.rv-xy-plot__axis__line{fill:none;stroke-width:2px;stroke:#e6e6e9}.rv-xy-plot__axis__tick__line{stroke:#e6e6e9}.rv-xy-plot__axis__tick__text{fill:#6b6b76;font-size:11px}.rv-xy-plot__axis__title text{fill:#6b6b76;font-size:11px}.rv-xy-plot__grid-lines__line{stroke:#e6e6e9}.rv-xy-plot__circular-grid-lines__line{fill-opacity:0;stroke:#e6e6e9}.rv-xy-plot__series,.rv-xy-plot__series path{pointer-events:all}.rv-xy-plot__series--line{fill:none;stroke:#000;stroke-width:2px}.rv-crosshair{position:absolute;font-size:11px;pointer-events:none}.rv-crosshair__line{background:#47d3d9;width:1px}.rv-crosshair__inner{position:absolute;text-align:left;top:0}.rv-crosshair__inner__content{border-radius:4px;background:#3a3a48;color:#fff;font-size:12px;padding:7px 10px;box-shadow:0 2px 4px rgba(0,0,0,0.5)}.rv-crosshair__inner--left{right:4px}.rv-crosshair__inner--right{left:4px}.rv-crosshair__title{font-weight:bold;white-space:nowrap}.rv-crosshair__item{white-space:nowrap}.rv-hint{position:absolute;pointer-events:none}.rv-hint__content{border-radius:4px;padding:7px 10px;font-size:12px;background:#3a3a48;box-shadow:0 2px 4px rgba(0,0,0,0.5);color:#fff;text-align:left;white-space:nowrap}.rv-discrete-color-legend{box-sizing:border-box;overflow-y:auto;font-size:12px}.rv-discrete-color-legend.horizontal{white-space:nowrap}.rv-discrete-color-legend-item{color:#3a3a48;border-radius:1px;padding:9px 10px}.rv-discrete-color-legend-item.horizontal{display:inline-block}.rv-discrete-color-legend-item.horizontal .rv-discrete-color-legend-item__title{margin-left:0;display:block}.rv-discrete-color-legend-item__color{display:inline-block;vertical-align:middle;overflow:visible}.rv-discrete-color-legend-item__color__path{stroke:#dcdcdc;stroke-width:2px}.rv-discrete-color-legend-item__title{margin-left:10px}.rv-discrete-color-legend-item.disabled{color:#b8b8b8}.rv-discrete-color-legend-item.clickable{cursor:pointer}.rv-discrete-color-legend-item.clickable:hover{background:#f9f9f9}.rv-search-wrapper{display:flex;flex-direction:column}.rv-search-wrapper__form{flex:0}.rv-search-wrapper__form__input{width:100%;color:#a6a6a5;border:1px solid #e5e5e4;padding:7px 10px;font-size:12px;box-sizing:border-box;border-radius:2px;margin:0 0 9px;outline:0}.rv-search-wrapper__contents{flex:1;overflow:auto}.rv-continuous-color-legend{font-size:12px}.rv-continuous-color-legend .rv-gradient{height:4px;border-radius:2px;margin-bottom:5px}.rv-continuous-size-legend{font-size:12px}.rv-continuous-size-legend .rv-bubbles{text-align:justify;overflow:hidden;margin-bottom:5px;width:100%}.rv-continuous-size-legend .rv-bubble{background:#d8d9dc;display:inline-block;vertical-align:bottom}.rv-continuous-size-legend .rv-spacer{display:inline-block;font-size:0;line-height:0;width:100%}.rv-legend-titles{height:16px;position:relative}.rv-legend-titles__left,.rv-legend-titles__right,.rv-legend-titles__center{position:absolute;white-space:nowrap;overflow:hidden}.rv-legend-titles__center{display:block;text-align:center;width:100%}.rv-legend-titles__right{right:0}.rv-radial-chart .rv-xy-plot__series--label{pointer-events:none}<xhtml:br />
<xhtml:br />
/*]]&gt;*/</xhtml:style>
  <text
     style="font-size:11px;font-family:sans-serif;text-anchor:end;fill:#6b6b76"
     id="text1650-6"
     x="-126.68413"
     y="29.398087"
     transform="rotate(-90)">Loss at mean</text>
</svg>
