<?xml version="1.0" encoding="UTF-8" standalone="no"?>
<svg
   xmlns:xhtml="http://www.w3.org/1999/xhtml"
   xmlns:dc="http://purl.org/dc/elements/1.1/"
   xmlns:cc="http://creativecommons.org/ns#"
   xmlns:rdf="http://www.w3.org/1999/02/22-rdf-syntax-ns#"
   xmlns:svg="http://www.w3.org/2000/svg"
   xmlns="http://www.w3.org/2000/svg"
   xmlns:sodipodi="http://sodipodi.sourceforge.net/DTD/sodipodi-0.dtd"
   xmlns:inkscape="http://www.inkscape.org/namespaces/inkscape"
   viewBox="0 0 600 300"
   version="1.1"
   id="svg400"
   sodipodi:docname="total_dim15.svg"
   inkscape:version="0.92.4 (5da689c313, 2019-01-14)">
  <metadata
     id="metadata406">
    <rdf:RDF>
      <cc:Work
         rdf:about="">
        <dc:format>image/svg+xml</dc:format>
        <dc:type
           rdf:resource="http://purl.org/dc/dcmitype/StillImage" />
      </cc:Work>
    </rdf:RDF>
  </metadata>
  <defs
     id="defs404" />
  <sodipodi:namedview
     pagecolor="#ffffff"
     bordercolor="#666666"
     borderopacity="1"
     objecttolerance="10"
     gridtolerance="10"
     guidetolerance="10"
     inkscape:pageopacity="0"
     inkscape:pageshadow="2"
     inkscape:window-width="1918"
     inkscape:window-height="1042"
     id="namedview402"
     showgrid="false"
     inkscape:zoom="2.3983333"
     inkscape:cx="300"
     inkscape:cy="83.287005"
     inkscape:window-x="1600"
     inkscape:window-y="16"
     inkscape:window-maximized="0"
     inkscape:current-layer="g340" />
  <g
     id="g242">
    <svg
       viewBox="0 0 1024 1024"
       x="102.20001220703125"
       y="26.10003662109375"
       height="11"
       width="11"
       version="1.1"
       id="svg232">
      <path
         d="M128 533.333h768c23.564 0 42.667-19.103 42.667-42.667v-85.333c0-23.564-19.103-42.667-42.667-42.667h-768c-23.564 0-42.667 19.103-42.667 42.667v85.333c0 23.564 19.103 42.667 42.667 42.667z"
         style="fill: rgb(83, 135, 221);"
         id="path230" />
    </svg>
    <text
       x="121.20001220703125"
       y="24.10003662109375"
       style="fill: rgb(83, 135, 221); dominant-baseline: text-before-edge; font-family: sans-serif;"
       id="text234">RLS: 7 samples per iteration</text>
    <svg
       viewBox="0 0 1024 1024"
       x="307.16668701171875"
       y="26.10003662109375"
       height="11"
       width="11"
       version="1.1"
       id="svg238">
      <path
         d="M128 533.333h768c23.564 0 42.667-19.103 42.667-42.667v-85.333c0-23.564-19.103-42.667-42.667-42.667h-768c-23.564 0-42.667 19.103-42.667 42.667v85.333c0 23.564 19.103 42.667 42.667 42.667z"
         style="fill: rgb(161, 40, 100);"
         id="path236" />
    </svg>
    <text
       x="326.16668701171875"
       y="24.10003662109375"
       style="fill: rgb(161, 40, 100); dominant-baseline: text-before-edge; font-family: sans-serif;"
       id="text240">LS: 12 samples per iteration</text>
  </g>
  <g
     transform="translate(0, 36.70001220703125)"
     id="g398">
    <svg
       class="rv-xy-plot__inner"
       width="600"
       height="263"
       version="1.1"
       id="svg396">
      <g
         transform="translate(46,5)"
         class="rv-xy-plot__grid-lines"
         id="g250">
        <line
           y1="190.51624891108986"
           y2="190.51624891108986"
           x1="0"
           x2="534"
           class="rv-xy-plot__grid-lines__line"
           style="stroke-width: 0.5px;"
           id="line244" />
        <line
           y1="122.63879805301842"
           y2="122.63879805301842"
           x1="0"
           x2="534"
           class="rv-xy-plot__grid-lines__line"
           style="stroke-width: 0.5px;"
           id="line246" />
        <line
           y1="54.76134719494699"
           y2="54.76134719494699"
           x1="0"
           x2="534"
           class="rv-xy-plot__grid-lines__line"
           style="stroke-width: 0.5px;"
           id="line248" />
      </g>
      <g
         transform="translate(46,NaN)"
         class="rv-xy-plot__axis rv-xy-plot__axis--horizontal"
         id="g256">
        <line
           x1="0"
           x2="534"
           y1="0"
           y2="0"
           class="rv-xy-plot__axis__line"
           id="line252" />
        <g
           transform="translate(0, 0)"
           class="rv-xy-plot__axis__ticks"
           id="g254" />
      </g>
      <path
         d="M0,0.4980969666636983L0.3545816733067729,0L0.7091633466135459,1.275386599580989L1.0637450199203187,4.0110839468459245L1.4183266932270917,5.783140483449392L1.7729083665338645,8.508337536427408L2.1274900398406373,10.736445052392678L2.4820717131474104,11.416241064580785L2.8366533864541834,12.80234141456282L3.191235059760956,13.93449444737219L3.545816733067729,15.020618172723228L4.254980079681275,16.841340540309062L4.609561752988047,18.56057151581448L4.964143426294821,19.420261663311596L5.3187250996015925,15.427075378952916L6.0278884462151385,17.363093829114337L6.382470119521912,18.58193878556049L6.737051792828684,19.80320477889224L7.44621513944223,20.105483426101472L7.800796812749004,20.839077975816455L8.155378486055776,21.683785880675305L8.50996015936255,21.883153619510512L9.219123505976095,23.04994350233505L9.573705179282868,24.109634356596484L10.282868525896413,25.40145657489994L10.637450199203187,25.33518144381197L10.99203187250996,25.837568973329027L11.346613545816734,26.271348431592997L11.701195219123505,27.071318087254312L12.41035856573705,28.30157420544926L12.764940239043824,29.49977973426376L13.119521912350598,30.944352858309777L13.474103585657371,32.34908552827928L13.828685258964143,33.41990917648087L14.183266932270916,34.15916903099384L14.892430278884461,34.93802947778541L15.247011952191235,35.7250373009566L15.601593625498008,36.33984419839103L16.310756972111555,36.85858228609263L16.665338645418323,37.45252895234933L17.37450199203187,37.98114170928624L17.729083665338646,38.493825801807844L18.083665338645417,38.840731125907794L18.43824701195219,39.034967643333104L18.79282868525896,39.1859552584636L19.14741035856574,39.25295609616359L19.501992031872508,39.416005869956L19.856573705179283,39.564770517722955L20.211155378486055,39.66915603529445L20.56573705179283,39.7342628102492L20.9203187250996,39.78685702931232L21.274900398406373,39.805364989684165L21.629482071713145,39.843832623781566L21.98406374501992,39.88532249464206L22.338645418326692,39.92709229776895L22.693227091633464,39.97641535849768L23.402390438247014,40.04648391024111L23.75697211155379,40.103539682277436L24.111553784860558,40.14440331330133L24.820717131474108,40.18973468926636L25.17529880478088,40.238154307020274L25.529880478087648,40.27605747339149L25.884462151394427,40.306982988222785L26.948207171314742,40.35392018342046L27.302788844621517,40.389779198728036L27.65737051792829,40.416719072068254L28.011952191235064,40.444751390087895L28.366533864541832,40.46781264368875L28.721115537848608,40.487999711843514L29.075697211155383,40.508735958424026L30.1394422310757,40.542414816765174L30.494023904382473,40.57273670355326L30.84860557768925,40.60080452886662L31.203187250996017,40.62475207964606L32.26693227091634,40.668935195367325L32.62151394422311,40.70157435677183L33.685258964143436,40.749446210940604L34.0398406374502,40.785139270135744L34.74900398406375,40.8191309571484L35.10358565737052,40.84619080253033L35.45816733067729,40.86750356620054L36.16733067729084,40.895839498853235L36.52191235059762,40.916173787025485L36.87649402390438,40.93696716457444L37.58565737051793,40.963773818979135L37.940239043824704,40.987849531221485L38.29482071713148,41.01040591459345L38.64940239043825,41.028938818206896L39.00398406374502,41.04725878747042L39.3585657370518,41.065208680555685L39.713147410358566,41.08080864381777L40.06772908366534,41.09729176756117L40.42231075697211,41.11429979371437L41.13147410358566,41.13408242256569L41.48605577689243,41.15340789261373L42.195219123505986,41.17631823897609L42.54980079681275,41.197358286529095L43.258964143426304,41.22172253195923L43.96812749003984,41.24778262906116L44.322709163346616,41.269765356444104L44.67729083665339,41.28880780291601L45.74103585657371,41.31476922426041L46.095617529880485,41.336769186523846L46.450199203187246,41.35414168777942L46.80478087649403,41.37133102357739L47.513944223107565,41.3916910800352L47.86852589641435,41.408003242347164L48.223107569721115,41.426124022323286L48.5776892430279,41.44069390397135L48.932270916334666,41.455636933897026L49.99601593625498,41.47926235040767L50.35059760956175,41.4985949570358L51.768924302788854,41.52975347332775L52.123505976095615,41.5538106943288L52.4780876494024,41.57467947316613L52.832669322709165,41.591118885404605L53.18725099601593,41.607202444460306L53.541832669322716,41.622790406534264L53.896414342629484,41.63588218849377L54.25099601593626,41.65131214171259L54.605577689243034,41.66430838308356L54.9601593625498,41.675821982786296L55.31474103585658,41.69012688244593L55.669322709163346,41.70219081175065L56.3784860557769,41.717753925680114L56.733067729083665,41.732957883297104L57.08764940239045,41.74636040135313L57.442231075697215,41.76090141597394L57.79681274900398,41.775421745309366L58.50597609561753,41.79487330074041L58.8605577689243,41.812621603605784L59.215139442231084,41.82740921045743L59.569721115537845,41.845116624296246L59.92430278884463,41.858518270492794L60.2788844621514,41.8713299523501L60.633466135458164,41.88619622198242L60.98804780876495,41.901983479370024L61.69721115537848,41.92046029321453L62.051792828685265,41.9386701366722L62.40637450199203,41.95666003414097L62.76095617529881,41.97229985038089L63.115537848605584,41.98864835450516L63.82470119521913,42.010194670324445L64.1792828685259,42.02996345724381L64.53386454183267,42.048264333328504L64.88844621513944,42.062948064542894L65.24302788844622,42.07780056156636L65.597609561753,42.093360049672704L65.95219123505976,42.10606503742303L66.30677290836654,42.11836502474745L66.66135458167331,42.13130612594801L67.37051792828686,42.148836642674695L67.72509960159363,42.16531060413272L68.0796812749004,42.17930399145996L68.43426294820719,42.195166070473974L68.78884462151395,42.211915476288986L69.4980079681275,42.23165511738359L69.85258964143426,42.25330126864486L70.20717131474103,42.27068040440277L70.56175298804781,42.28700486428805L70.91633466135458,42.30260218922437L71.27091633466136,42.31594689730138L71.62549800796813,42.33170520575516L71.9800796812749,42.34377571368672L72.33466135458168,42.35355655301167L72.68924302788845,42.36488225741731L73.04382470119522,42.37593939871874L73.75298804780876,42.39120979384179L74.10756972111555,42.40835400316061L74.46215139442232,42.423204337750214L74.81673306772907,42.43915826523221L75.17131474103586,42.45588981077836L75.52589641434264,42.470328816046106L75.8804780876494,42.48327017632868L76.23505976095618,42.499538005316445L77.65338645418328,42.52573926530326L78.00796812749005,42.544334722566575L78.36254980079681,42.55957124836678L78.7171314741036,42.57260057545939L79.07171314741036,42.58309727291418L79.42629482071713,42.59421972160114L79.78087649402391,42.60375335178986L80.13545816733068,42.6119013870462L80.49003984063745,42.618843503319425L80.84462151394422,42.62925389349829L81.199203187251,42.637883817416366L81.55378486055777,42.645520254277486L82.26294820717132,42.65709792786426L82.61752988047809,42.66722622650366L82.97211155378486,42.67527171652697L83.32669322709164,42.68195491352308L83.6812749003984,42.68905688099459L84.39043824701196,42.698588643604786L84.74501992031873,42.70750360173673L85.0996015936255,42.71605203168548L85.80876494023904,42.72567215160692L86.16334661354581,42.73462311461235L86.51792828685261,42.74184254172329L86.87250996015936,42.74911601709352L87.22709163346613,42.756517944004216L87.58167330677291,42.762933611728L87.93625498007968,42.768669723346925L88.29083665338646,42.77601168931921L88.64541832669323,42.78246252268L89,42.78914616563515L89.70916334661355,42.79774911677946L90.06374501992032,42.80660805772101L90.4183266932271,42.81386234226665L90.77290836653387,42.820137152909844L91.12749003984065,42.82592543597049L91.83665338645417,42.835430039577574L92.19123505976094,42.84436741188101L92.54581673306774,42.85289324730651L92.90039840637449,42.8603319866185L93.25498007968126,42.867213205654096L93.60956175298804,42.8738104610821L94.31872509960158,42.88547795807758L94.67330677290838,42.89615807458412L95.02788844621513,42.90620345578108L95.3824701195219,42.91442677603853L95.73705179282868,42.92134218414627L96.09163346613545,42.93008512084312L96.44621513944223,42.93753498902503L96.80079681274901,42.94676989818673L97.15537848605577,42.95457440777868L97.8645418326693,42.9649022281138L98.57370517928287,42.97653545001744L98.92828685258964,42.98651500245935L99.2828685258964,42.99630020757614L99.63745019920317,43.00464757992805L99.99203187250994,43.01349326456257L100.34661354581674,43.02307674867511L101.05577689243027,43.03459242318134L101.41035856573704,43.047431495848095L101.76494023904381,43.05809491619555L102.11952191235059,43.07061145186206L102.47410358565737,43.08089816272809L102.82868525896414,43.08992183346742L103.18326693227091,43.099369250265966L103.53784860557766,43.10823698609052L103.89243027888446,43.11608904625878L104.24701195219123,43.12286298027935L104.601593625498,43.131961881808465L105.31075697211153,43.146405806503836L106.0199203187251,43.160874071100906L106.37450199203187,43.17430078720918L106.72908366533864,43.18696273422757L107.08366533864542,43.197451954131424L107.43824701195217,43.208589080547526L107.79282868525897,43.21980690992581L108.5019920318725,43.232286788539504L108.85657370517927,43.244010188070526L109.21115537848605,43.25416823010663L109.56573705179284,43.2626748119522L109.9203187250996,43.27143656304888L110.62948207171314,43.28339901341616L111.33864541832668,43.29949238448188L111.69322709163347,43.31190030318422L112.04780876494023,43.325349742555176L112.402390438247,43.33645205450543L112.75697211155378,43.3458436647702L113.11155378486055,43.35623350706098L113.46613545816733,43.36710962533641L114.17529880478087,43.38085517166004L114.52988047808763,43.39284883926138L114.88446215139442,43.402808494251154L115.2390438247012,43.41295579458241L115.59362549800797,43.42291809073676L116.3027888446215,43.43790786828936L116.65737051792827,43.44946449635641L117.36653386454184,43.463812343837496L118.07569721115537,43.48018907870243L118.43027888446214,43.49478977701153L118.78486055776891,43.50816202835843L119.13944223107569,43.51923433549853L119.49402390438247,43.52921574082602L120.20318725099601,43.54551871811563L120.55776892430278,43.559808496092664L120.91235059760956,43.57307009991436L121.26693227091633,43.58407872407139L122.33067729083665,43.60375171087843L122.6852589641434,43.620769883548654L123.0398406374502,43.6335043117128L123.74900398406373,43.64895492022821L124.10358565737052,43.66302584434578L124.81274900398407,43.67792935460609L125.16733067729083,43.69218985452437L125.87649402390437,43.710155331853755L126.23107569721115,43.72663408269705L126.58565737051794,43.741738447793985L126.9402390438247,43.754370610793835L127.29482071713146,43.76945873314072L128.003984063745,43.78533978168379L128.71314741035857,43.804794842555104L129.06772908366534,43.81926438289427L129.4223107569721,43.83017903975956L129.77689243027888,43.84372549482156L130.48605577689244,43.86121396527189L130.8406374501992,43.87710451870663L131.19521912350595,43.890267616399555L131.54980079681275,43.90585574693139L131.90438247011951,43.91840164183824L132.25896414342628,43.929610377461486L132.61354581673308,43.9401875163337L132.96812749003985,43.95391112909578L133.3227091633466,43.96531332327573L133.67729083665338,43.97998229253451L134.03187250996012,43.99261480158871L134.38645418326692,44.00408772754611L134.74103585657372,44.01804166930736L135.09561752988049,44.029270913807764L135.45019920318725,44.04014119954448L135.80478087649402,44.05520965183064L136.1593625498008,44.06834643573517L136.51394422310756,44.08044160781671L136.86852589641433,44.09344897980439L137.22310756972112,44.10656835127668L137.5776892430279,44.11876687584157L137.93227091633466,44.13297382886519L138.28685258964143,44.14795352938392L138.6414342629482,44.16130541120703L138.99601593625496,44.17641829199767L139.35059760956176,44.19221742480751L140.0597609561753,44.21389785887505L140.41434262948206,44.233929964734095L140.76892430278883,44.250440316611446L141.1235059760956,44.26480807047394L141.4780876494024,44.28050878448188L141.83266932270917,44.29640199221469L142.18725099601593,44.31013887649427L142.5418326693227,44.32490506331405L143.25099601593624,44.34434961024808L143.605577689243,44.363338746392756L143.9601593625498,44.382703873518395L144.31474103585657,44.39969544206381L144.66932270916334,44.41855168007895L145.37848605577688,44.44449878331198L145.73306772908364,44.46830479555043L146.79681274900398,44.50492018219713L147.15139442231074,44.53341351223568L147.86055776892428,44.55923484564697L148.9243027888446,44.59414407755015L149.2788844621514,44.62105096721428L149.63346613545815,44.64114001379247L149.98804780876492,44.658228733733665L150.3426294820717,44.673911571490294L150.69721115537848,44.687392407529735L151.05179282868525,44.70349943637727L151.7609561752988,44.72593575420876L152.11553784860556,44.74370187748891L153.17928286852592,44.77881210887687L153.53386454183268,44.803316021610485L153.88844621513942,44.82210248063985L154.2430278884462,44.83969625525974L154.59760956175296,44.85663529396665L154.95219123505976,44.871376505388625L155.30677290836655,44.88522370543601L155.66135458167332,44.89828629506504L156.01593625498006,44.91035411122408L156.37051792828683,44.921671739059406L156.7250996015936,44.934483310329185L157.0796812749004,44.94903236148769L157.4342629482072,44.96208552492162L158.49800796812747,44.989363247943515L158.85258964143426,45.012817203451704L159.20717131474103,45.03354185718569L159.56175298804783,45.050467055433444L159.91633466135457,45.069741253440476L160.9800796812749,45.09446682228954L161.33466135458167,45.11431719189478L161.68924302788844,45.130408472454626L162.0438247011952,45.14440368046969L162.39840637450197,45.16077615958708L162.75298804780877,45.1747494681244L163.10756972111554,45.191998608725015L163.4621513944223,45.206762904420295L164.52589641434264,45.234841772565716L164.8804780876494,45.253965649452205L165.23505976095618,45.27209931840054L165.58964143426294,45.28971073005871L165.9442231075697,45.30415602640698L166.29880478087648,45.31902000115952L167.00796812749005,45.338478266332686L167.3625498007968,45.35759438272905L168.07171314741035,45.38122253311709L168.42629482071712,45.400881472533435L168.78087649402391,45.42453217742924L169.13545816733068,45.44423960274995L169.49003984063745,45.46178109935125L169.84462151394422,45.483950560655494L170.199203187251,45.50250770910078L171.97211155378486,45.55465098360582L172.32669322709162,45.59051870526414L172.6812749003984,45.61703520232321L173.03585657370516,45.644344727253795L173.39043824701196,45.6663171344639L173.74501992031873,45.685078324176196L174.0996015936255,45.704870382513306L174.45418326693226,45.72498609775276L174.80876494023903,45.743427208289866L175.1633466135458,45.766725906233304L175.87250996015936,45.794401576012724L176.22709163346613,45.82189591643197L176.5816733067729,45.84789214751161L176.93625498007967,45.87088965094947L177.29083665338644,45.89224847481623L177.6454183266932,45.92000926216486L178,45.94366689243232L178.35458167330677,45.96902959680454L178.70916334661354,45.99559042253718L179.41832669322707,46.02833633174448L179.77290836653384,46.056845216681104L180.12749003984064,46.08008662363994L180.83665338645417,46.11765792807113L181.19123505976094,46.14730580849515L181.54581673306774,46.17583459549476L182.60956175298807,46.2244956177577L182.9641434262948,46.264574400487696L183.3187250996016,46.295789167551604L183.67330677290835,46.32625074727118L184.02788844621512,46.356605753876806L184.38247011952194,46.38263412618985L184.73705179282868,46.409962775845074L185.09163346613548,46.436508875411484L185.80079681274898,46.47225820225775L186.15537848605578,46.50398083652372L186.86454183266935,46.54041454813221L187.21912350597609,46.573074540840935L187.57370517928288,46.59925402420374L187.92828685258962,46.62044918319257L188.2828685258964,46.64781394888526L188.6374501992032,46.67209914906122L189.34661354581675,46.707826432573135L189.7011952191235,46.74165857577939L190.05577689243026,46.770447965697805L190.41035856573706,46.795948058717016L190.7649402390438,46.82725221432247L191.1195219123506,46.85339660973474L191.47410358565736,46.88061586699269L191.82868525896416,46.909149306403876L192.18326693227093,46.933823088323564L192.53784860557766,46.95917206060959L192.89243027888446,46.98270873543498L193.60159362549803,47.01368530208465L194.66533864541833,47.06622748481511L195.01992031872507,47.10436999787242L195.37450199203187,47.13395412449891L195.72908366533866,47.15756941342948L196.0836653386454,47.18316175650671L197.14741035856574,47.229975476755975L197.5019920318725,47.26440272735473L197.85657370517927,47.29626548869469L198.21115537848607,47.326703550613075L198.5657370517928,47.35292915258341L198.9203187250996,47.3804715853896L199.62948207171314,47.41584401886671L199.9840637450199,47.45222304530499L200.69322709163347,47.4878491437258L201.0478087649402,47.518771266442464L201.75697211155378,47.55384922771922L202.11155378486055,47.585122941863226L202.46613545816732,47.61459625172999L202.82071713147408,47.63924794921653L203.52988047808765,47.67683777363965L203.88446215139442,47.706553901715175L204.23904382470118,47.73044782599162L204.59362549800792,47.759168102556806L204.94820717131475,47.784011926132635L205.30278884462155,47.80627451665667L205.65737051792829,47.83111193766252L206.01195219123505,47.856878405405084L206.7211155378486,47.88687854942559L207.07569721115541,47.92059352944329L207.78486055776892,47.956337866636915L208.49402390438246,47.992272999724364L208.84860557768926,48.01984764407058L209.203187250996,48.04912689471079L209.91235059760956,48.08557236190968L210.26693227091633,48.11941743542368L210.97609561752986,48.16011078178174L211.68525896414343,48.20535640709881L212.0398406374502,48.2398416006469L212.39442231075697,48.27536305547795L212.74900398406373,48.30327141776158L213.10358565737053,48.3334930130837L213.45816733067727,48.35827664920665L213.81274900398404,48.379357983357686L214.16733067729083,48.40637311211512L214.5219123505976,48.42993027164911L214.8764940239044,48.45067693845253L215.23107569721114,48.47134375067952L215.58565737051794,48.49315769905414L215.94023904382468,48.512626613013715L216.29482071713147,48.540085536487325L216.64940239043827,48.56398385695975L217.71314741035854,48.61320907364096L218.0677290836653,48.65110677837364L218.42231075697214,48.682380101351605L218.77689243027888,48.71851126875771L219.13147410358567,48.746584267266165L219.4860557768924,48.77090439855249L219.8406374501992,48.794692284166004L220.19521912350598,48.8188874271369L220.54980079681272,48.83974719660646L220.90438247011954,48.86161451880775L221.61354581673308,48.89383828397206L221.96812749003982,48.92102712064773L222.67729083665338,48.96282575696183L223.03187250996015,48.99643704793251L223.38645418326695,49.03576185068535L224.09561752988046,49.08234348316828L224.45019920318725,49.12302734040332L225.15936254980082,49.16880204464514L225.51394422310756,49.20720016184447L226.22310756972112,49.257516727360155L226.57768924302786,49.29619910299222L226.93227091633466,49.32736072949224L227.2868525896414,49.353956724150486L227.996015936255,49.39613670681079L228.35059760956173,49.43452443285701L228.70517928286853,49.46991607710436L229.05976095617527,49.50030784674635L229.76892430278886,49.54758613225369L230.12350597609563,49.58509569114908L230.4780876494024,49.62829434423134L230.83266932270914,49.66476654454496L231.18725099601593,49.69681964612465L231.5418326693227,49.730749552963076L231.89641434262947,49.76684277233241L232.25099601593627,49.798844322360445L232.605577689243,49.83248471470303L233.31474103585654,49.876625313132685L233.66932270916334,49.915573995998L234.37848605577688,49.96322646855442L234.73306772908367,50.01094078669165L235.79681274900398,50.06696402604116L236.15139442231074,50.11618296775325L236.50597609561754,50.16322527672419L236.86055776892428,50.202403533707574L237.21513944223108,50.237792434224254L237.56972111553785,50.28389632169738L237.9243027888446,50.324036597855745L238.27888446215138,50.36520047732403L238.98804780876495,50.41901113690329L239.34262948207174,50.460832260100766L240.05179282868525,50.51802475523514L240.40637450199202,50.565478397328576L240.7609561752988,50.608028046974745L241.1155378486056,50.642290070991514L241.47011952191235,50.67381330403178L241.82470119521912,50.71375115168294L242.1792828685259,50.74698973518862L242.53386454183266,50.78147043341432L242.88844621513945,50.81355715720001L243.2430278884462,50.83739726870349L243.59760956175302,50.8681341323491L243.95219123505976,50.90220053382189L244.30677290836653,50.93143619067578L244.6613545816733,50.959718097667185L245.01593625498006,50.99677653869607L245.37051792828686,51.02818359187507L245.72509960159363,51.068133100270984L246.0796812749004,51.103054457094096L246.43426294820716,51.13330235330123L246.78884462151393,51.165676731644744L247.14342629482073,51.199635721287926L247.8525896414343,51.24271974258458L248.20717131474103,51.280687694959056L248.5617529880478,51.310704466764115L248.9163346613546,51.34758969748188L249.27091633466134,51.377861226053255L249.98007968127487,51.41483568536192L250.68924302788847,51.464710078413056L251.398406374502,51.51256689876346L252.1075697211155,51.57061960616251L252.46215139442234,51.61454864336274L252.81673306772907,51.66189210603907L253.17131474103587,51.70088372655846L253.5258964143426,51.74092323193052L253.8804780876494,51.78145541373354L254.23505976095618,51.816903280628885L254.58964143426292,51.84763511400486L254.94422310756974,51.88768751118532L255.65338645418328,51.94538211150218L256.00796812749,51.990655669481285L256.3625498007968,52.027597747077955L256.7171314741036,52.068628314906604L257.0717131474103,52.10575256698043L257.78087649402386,52.160520089042286L258.1354581673307,52.212515995986436L258.8446215139442,52.27052498146162L259.55378486055776,52.346948221773935L259.9083665338645,52.41319353191512L260.26294820717135,52.47443823160754L260.61752988047806,52.524832475897945L260.9721115537849,52.57492757363204L261.3266932270916,52.62602805032667L261.6812749003984,52.67183659785496L262.0358565737052,52.722062547284466L262.7450199203187,52.79145809178302L263.0996015936255,52.85680727180993L264.1633466135458,52.96482691982366L264.51792828685257,53.0518280800253L264.87250996015933,53.12084508451802L265.22709163346616,53.17963749223546L265.9362549800797,53.273492890767216L266.29083665338646,53.368836277781945L266.6454183266932,53.445115805517034L267,53.51155411293448L268.0637450199203,53.634743916112505L268.4183266932271,53.72836605969002L268.77290836653384,53.810536365788856L269.1274900398406,53.88882131876567L269.48207171314743,53.95480797473127L269.8366533864542,54.01642490782661L270.54581673306774,54.12621191899107L270.9003984063745,54.21567909484906L271.2549800796813,54.314898488724914L271.60956175298804,54.3967361453025L271.9641434262948,54.48235972797352L272.3187250996016,54.56777272375682L272.67330677290835,54.6395858714798L273.0278884462151,54.716130977546165L273.3824701195219,54.79602018673918L273.73705179282865,54.86574406552576L274.44621513944224,54.97186819400855L274.800796812749,55.05528125300115L275.1553784860558,55.13424407162322L275.50996015936255,55.208682582834555L276.2191235059761,55.301571504044304L276.57370517928285,55.38054802329616L276.9282868525896,55.44390382995924L277.2828685258964,55.50577811571774L277.63745019920316,55.579201517580586L277.9920318725099,55.641667084164055L278.3466135458167,55.72003377313084L278.7011952191235,55.786071412179055L279.0557768924303,55.84564925596083L279.41035856573706,55.901893482318535L279.7649402390438,55.97467835825555L280.47410358565736,56.05429939983396L280.82868525896413,56.131281438130664L281.1832669322709,56.19150293542846L281.53784860557766,56.25031173060275L281.89243027888443,56.30896842218583L282.2470119521912,56.36185467283131L282.60159362549797,56.42503545498689L282.9561752988048,56.47934155523411L283.31075697211156,56.527013434705765L284.0199203187251,56.585714002496736L284.37450199203187,56.64399993515829L284.72908366533864,56.696452885523485L285.0836653386454,56.75079082368579L285.79282868525894,56.82610510170886L286.1474103585657,56.90558867603103L286.50199203187253,56.97028468284818L286.85657370517924,57.027107617163516L287.211155378486,57.08773068700632L287.56573705179284,57.153713761867664L287.9203187250996,57.21119233176658L288.27490039840643,57.27053536432612L288.62948207171314,57.33477472188527L288.9840637450199,57.39238578396893L289.3386454183267,57.464757948481704L289.69322709163345,57.528411126977446L290.0478087649402,57.58741769131744L290.402390438247,57.644031288480804L290.7569721115538,57.71926465858612L291.1115537848605,57.78631946026252L291.4661354581673,57.85757966502926L291.82071713147405,57.93115773191179L292.1752988047809,57.997276205241086L292.8844621513944,58.10078502151591L293.59362549800795,58.20509146674583L293.9482071713147,58.308328522664155L294.30278884462155,58.393316834206956L294.65737051792826,58.47920270691722L295.3665338645418,58.59414849522666L295.72111553784856,58.690199971263425L296.0756972111554,58.80579061535248L296.4302788844621,58.902871577762454L296.784860557769,59.00501486944432L297.1394422310757,59.11035508305175L297.49402390438246,59.20249772373998L297.8486055776893,59.30098147559109L298.203187250996,59.40209396300463L298.5577689243028,59.492270362575404L299.2669322709163,59.60473687050282L300.33067729083666,59.79096758355767L301.39442231075697,60.02294459096174L301.74900398406373,60.210739588513306L303.1673306772908,60.496415313870784L303.5219123505976,60.73020152110676L303.8764940239044,60.90425720393817L304.2310756972111,61.044732506181816L304.58565737051794,61.181710211695034L305.2948207171314,61.34891424005168L305.6494023904383,61.50105432531984L306.003984063745,61.64114198481978L306.35856573705183,61.756844613649264L306.71314741035854,61.888611664458544L307.06772908366537,62.002202735424916L307.42231075697214,62.10636305374087L308.1314741035857,62.25975335292357L308.4860557768924,62.38307139721706L308.8406374501992,62.519615869722216L309.195219123506,62.66385822385111L309.5498007968127,62.79037181602635L309.9043824701195,62.910915218454136L310.6135458167331,63.11913350937551L310.9681274900399,63.31016984766517L311.32270916334664,63.49060979892571L311.6772908366534,63.63714773331448L312.0318725099601,63.779879664367826L312.38645418326695,63.91976913150336L313.0956175298805,64.09843585631316L313.45019920318725,64.26714588531792L313.80478087649396,64.40560920305343L314.1593625498008,64.54642393954887L314.5139442231075,64.69322083797066L315.22310756972115,64.8563587845415L315.9322709163347,65.0867296567842L316.2868525896414,65.26862213276965L316.6414342629482,65.44179629129279L316.996015936255,65.61250411482231L317.7051792828685,65.8237443876155L318.41434262948206,66.05679111158544L318.76892430278883,66.25782937732595L319.12350597609566,66.4369283302L319.83266932270914,66.64522037914875L320.18725099601596,66.80902056638935L320.8964143426295,66.98689548381022L321.25099601593627,67.18149557416683L321.60557768924303,67.34115327755909L321.9601593625498,67.48277250752626L322.31474103585657,67.6611803791385L323.0239043824701,67.89585737508045L323.3784860557769,68.0802157093562L323.7330677290837,68.22642731052116L324.0876494023904,68.39835671026337L324.44223107569724,68.54650405863508L324.796812749004,68.68053161031548L325.1513944223108,68.85486696021421L325.50597609561754,69.0118874150984L325.8605577689243,69.16207897481304L326.2151394422311,69.33216444689899L326.56972111553785,69.52281110116525L326.9243027888446,69.69231949725636L327.2788844621514,69.87785471358823L327.63346613545815,70.07381188518617L327.9880478087649,70.24598559327325L328.34262948207174,70.43406976129698L328.6972111553785,70.63574426505761L329.0517928286853,70.81119496510928L329.40637450199205,70.99184261958897L329.7609561752988,71.18672906497395L330.1155378486056,71.36310551123871L330.47011952191235,71.52758424931994L330.8247011952191,71.71856342034127L331.1792828685259,71.93216402834554L331.53386454183266,72.12675667392334L331.8884462151394,72.33813824336988L332.2430278884462,72.56987963474697L332.59760956175296,72.7754090138079L332.9521912350598,72.99256063589385L333.6613545816733,73.29269061003633L334.0159362549801,73.58116692698455L334.7250996015936,73.92901693657346L335.0796812749004,74.27227452352099L335.43426294820716,74.54039847670899L336.1434262948207,74.87921345070905L336.49800796812747,75.15199780976675L336.85258964143424,75.39164224707926L337.20717131474106,75.63700721528225L337.9163346613546,75.99457033334171L338.27091633466136,76.31038370391306L338.62549800796813,76.61341780319286L338.9800796812749,76.88064919499166L339.33466135458167,77.20399793223078L339.68924302788844,77.48279341542857L340.398406374502,77.83960723598591L340.75298804780874,78.15024801177412L341.1075697211155,78.414295247564L341.4621513944223,78.68129343877483L341.8167330677291,78.96790333428467L342.17131474103587,79.22864031880961L342.52589641434264,79.56953330162528L342.8804780876494,79.86721354368905L343.2350597609562,80.14843893518837L343.58964143426294,80.45606491008363L343.9442231075697,80.77389126839924L344.2988047808765,81.05154705577505L344.65338645418325,81.40172645089429L345.00796812749,81.71820938239591L345.3625498007968,82.00403235387343L345.71713147410355,82.28898202416863L346.0717131474103,82.66562737917648L346.42629482071715,82.9779215488477L346.7808764940239,83.23996622314466L347.1354581673307,83.57787217225946L347.8446215139442,84.04929271011268L348.199203187251,84.52116872860996L348.55378486055776,85.01071612710618L349.2629482071713,85.53938505143579L349.9721115537848,86.2804061550542L350.3266932270916,86.94816227407851L350.68127490039836,87.60089638043249L351.0358565737052,88.17543073600046L351.39043824701196,88.84139909890735L351.7450199203187,89.43558312411871L352.0996015936255,89.97273435932675L352.45418326693226,90.59791865620265L352.8087649402391,91.25778978135607L353.1633466135458,91.82364493817929L354.5816733067729,93.21498983045106L355.64541832669323,94.91512957351948L356.3545816733068,96.60228714148742L356.70916334661354,98.33864040175092L357.0637450199203,99.773496427345L357.4183266932271,100.98155731541203L357.77290836653384,102.16736983427771L358.4820717131474,103.84972665654958L358.8366533864542,105.46128915080604L359.1912350597609,107.24715087632173L359.9003984063745,109.28866544397302L360.6095617529881,111.56768646404633L360.9641434262948,113.87602391304021L361.3187250996016,116.14510100082047L361.67330677290835,118.28303376770619L362.73705179282865,120.75825021543814L363.0916334661355,122.97991902038906L363.80079681274896,124.84525625920267L364.50996015936255,127.11442263876013L364.8645418326694,127.67933063571444L365.21912350597614,129.7942531073955L365.57370517928285,130.37566530972907L365.9282868525896,132.68734759960677L366.6374501992032,134.86879341530306L367.70119521912346,137.73653365380474L368.41035856573706,139.68530427287897L368.7649402390439,141.73977150506636L369.1195219123506,142.56686129141096L369.82868525896413,145.09289896094006L370.18326693227095,146.55249813868704L370.5378486055777,148.26203866164477L370.89243027888443,149.6494488374005L371.2470119521912,148.9205651580014L371.60159362549797,149.58957003692154L371.9561752988048,152.0584463636167L372.31075697211156,154.40958452380403L373.01992031872504,155.91385684263372L373.3745019920319,156.83941060100935L373.7290836653387,156.28201487704945L374.08366533864546,156.88726256549322L374.79282868525894,157.23647701194156L375.14741035856576,156.73103171713666L375.50199203187253,155.29093697508696L375.8565737051793,154.60908743497228L376.211155378486,157.2154886722861L376.5657370517928,159.93941431199462L377.2749003984064,161.59919274769157L377.62948207171314,161.06526257489637L378.3386454183267,163.3764428079725L378.6932270916335,164.52041298485264L379.04780876494027,161.98949678801608L379.40239043824704,164.66250063316417L379.75697211155375,166.5771093533227L380.46613545816734,164.714709503127L380.8207171314741,165.46205707757372L381.88446215139436,167.11365962546327L382.593625498008,169.56507904952463L382.9482071713148,168.93966927883136L383.3027888446215,170.79426171797556L383.6573705179283,172.02002359844127L384.0119521912351,172.6792091653669L384.7211155378486,174.359385912468L385.07569721115533,174.6714871789749L385.43027888446215,174.1047068136465L385.7848605577689,173.70384139461729L386.1394422310757,173.07515853712871L386.4940239043824,172.6992366452378L386.84860557768917,173.2009921135416L387.20318725099605,173.59084377334952L388.2669322709163,175.7800800100896L388.62151394422307,178.01207456124635L388.9760956175299,179.18402561062683L389.33067729083666,181.62898325103123L389.68525896414343,183.58932266898333L390.03984063745014,184.57722884850472L390.3944223107569,184.98487846514342L390.74900398406373,184.13813112917282L391.1035856573705,181.35897265875957L391.81274900398404,178.4176729540035L392.1673306772908,179.46947066684095L392.52191235059763,180.28350512974833L392.8764940239044,181.72906151268248L393.23107569721117,183.60011107730503L393.5856573705179,185.44059372172816L393.9402390438247,186.41426800801963L395.003984063745,184.14902402135942L395.3585657370517,186.2327246261157L395.71314741035854,186.14301289834987L396.06772908366537,186.09208810968497L396.42231075697214,185.83111318604125L397.1314741035856,187.77679995618146L397.48605577689244,186.94702156536204L398.195219123506,187.66235230153694L398.54980079681275,188.5316293527011L398.90438247011946,189.32670402506832L399.2589641434263,188.03733295115546L399.61354581673305,189.43040667177314L399.9681274900398,187.6264495512087L400.3227091633467,189.4984181377728L401.0318725099602,191.97604688154036L401.38645418326695,193.189560349361L401.7410358565737,195.10250582833984L402.45019920318725,196.79186964912975L403.1593625498008,196.29567898135457L403.51394422310756,197.27358776533956L403.8685258964144,198.63636439251275L404.2231075697211,195.07460328985846L404.57768924302786,196.98445083236948L405.28685258964146,196.91352634773375L405.6414342629483,196.71802254245426L405.996015936255,197.40790543260613L406.35059760956176,196.5412065156128L406.7051792828685,197.30663908460764L407.0597609561753,197.4208249627358L407.4143426294821,196.8990285757872L408.1235059760956,196.76115326880026L408.8326693227092,198.77336630012556L409.18725099601585,189.21691514791425L409.8964143426295,189.44786493744394L410.25099601593627,190.75848590673297L410.6055776892431,193.54746674010855L410.96015936254975,196.4144964052482L411.31474103585657,198.6822648465777L412.0239043824701,200.12302742646372L412.37848605577693,200.35203874648238L413.0876494023904,201.52589865483816L413.4422310756972,202.43566960905216L413.79681274900395,203.65089915159672L414.15139442231083,204.68357391389767L414.50597609561754,205.4776872018898L414.8605577689243,205.92871782902128L415.2151394422311,206.43318967557337L415.56972111553785,206.61111495759098L415.92430278884467,203.11491839194815L416.63346613545815,202.13339855860744L416.9880478087649,203.69680452477598L417.3426294820717,205.36803636478587L417.6972111553785,205.84126086029298L418.0517928286852,205.32270421889598L418.406374501992,206.06663632464782L418.7609561752988,205.94523820564427L419.11553784860564,207.77284540734124L419.4701195219124,209.15337140029456L419.8247011952191,210.24262032292978L420.53386454183266,211.0657123124802L420.8884462151395,211.64746554460217L421.24302788844625,213.15125258076577L421.59760956175296,214.72579138107739L421.95219123505973,215.76192958971052L422.3067729083665,212.8361910996115L423.01593625498015,211.6667631052748L423.37051792828686,209.8864864388141L423.7250996015936,211.05596586778097L424.0796812749004,211.10218829870576L424.4342629482072,206.46706057840495L424.788844621514,208.23487533256085L425.1434262948207,202.47204432945662L425.49800796812747,203.32817688850005L425.85258964143424,205.74490490823015L426.20717131474106,207.6674464143597L426.56175298804783,208.1559311467387L426.91633466135454,208.19288120138108L427.2709163346613,207.46093801495388L427.6254980079681,208.7029117901367L428.68924302788844,209.64669221193745L429.0438247011952,210.841990353863L429.39840637450203,210.7524339250869L429.7529880478088,205.86091480895666L430.10756972111557,204.71523344232068L430.4621513944223,204.7194761647713L430.81673306772905,203.32904904234306L431.17131474103587,203.39478948915212L431.52589641434264,202.82739441371461L431.88047808764935,204.32624638666374L432.2350597609561,204.10862731465835L432.94422310756977,204.54515281941423L433.65338645418325,205.6034504132978L434.3625498007968,205.58749608142736L434.7171314741036,204.3116523774489L435.0717131474104,205.16180584639275L435.78087649402386,203.5646585698016L436.1354581673306,200.9724867623439L436.49003984063745,201.29719452637286L436.8446215139443,202.66609955501286L437.199203187251,203.94328785520867L437.9083665338645,202.88225148739326L438.26294820717135,202.34926559122025L439.3266932270916,203.56363417977335L439.6812749003984,205.1455998666763L440.0358565737052,205.9116470184895L440.39043824701196,203.5471368772413L441.4541832669323,203.50756196989445L442.16334661354585,202.08305155331925L442.51792828685257,200.4872592362064L442.87250996015933,201.6958706476237L443.22709163346616,200.8572036950485L443.9362549800797,200.41293197686014L444.2908366533864,201.74784424755617L444.6454183266932,202.8373556968653L445,203.75387695812645L445.35458167330677,204.3529370930866L445.7091633466136,204.7746106113114L446.0637450199203,202.84206443584887L446.4183266932271,198.24443521800436L446.7729083665339,197.2637196712057L447.12749003984067,197.15994666102728L447.83665338645415,195.48572773357407L448.54581673306774,197.24128386210845L449.609561752988,195.7035385195909L449.9641434262948,197.06578223469447L450.31872509960164,197.57319681058692L450.6733067729084,198.58235339811597L451.0278884462152,201.31047767466382L451.3824701195219,202.15024206802377L451.7370517928287,203.9272449531525L452.0916334661355,204.58535724584112L452.44621513944224,207.10661619979444L452.800796812749,209.4566081729791L453.1553784860557,211.40424432817548L453.50996015936255,210.92597447320105L453.8645418326693,208.27016982981584L454.2191235059761,208.17253867512034L454.5737051792828,205.97513429350144L454.92828685258957,203.10714570188526L455.28286852589645,201.88920473111045L455.6374501992032,201.4733285343359L456.70119521912346,203.11656702467394L457.0557768924303,203.39582236523148L457.41035856573706,200.17564902946606L457.7649402390438,201.37464841059668L458.11952191235054,201.76905826187541L458.4741035856573,203.5766273147644L459.1832669322709,204.36524016202117L459.5378486055777,202.33697648445263L460.24701195219126,204.09309090278936L460.601593625498,205.79974182140748L461.31075697211156,207.84429260361662L461.6653386454183,209.59095007636378L462.0199203187251,210.80271716138927L462.37450199203187,208.13912337181213L462.72908366533864,207.61224701674396L463.0836653386454,206.35308206050803L463.4382470119521,205.4862071529072L463.79282868525894,203.45616037286607L464.14741035856576,202.94089563119832L464.8565737051793,201.37240947636315L465.211155378486,200.75017799974734L465.56573705179284,200.4973606990885L465.9203187250996,200.65176532969673L466.2749003984064,201.2043995260411L466.6294820717132,201.96928582606253L467.3386454183267,202.83767854128806L467.69322709163345,203.4650093674995L468.4023904382471,203.49912544518034L468.75697211155375,200.75067062325746L469.1115537848606,199.6071480978475L469.46613545816734,199.30453206817552L469.8207171314741,200.37223439022674L470.8844621513944,198.35529034408896L471.59362549800795,197.61400830075144L471.9482071713148,199.36572359108484L472.3027888446215,201.38411818842982L472.65737051792826,202.66143430776293L473.0119521912351,204.78271593631422L473.36653386454185,206.469099147697L474.0756972111554,206.67640066329056L474.43027888446215,206.38487415012173L475.1394422310757,206.8952374897161L475.4940239043825,207.3319893764838L475.8486055776892,208.45966255688072L476.203187250996,206.2802712153973L476.55776892430276,203.8345175405089L477.26693227091624,205.864020975547L477.6215139442231,207.27753605224606L478.33067729083666,206.46644249653139L478.6852589641435,201.09940980844968L479.39442231075697,198.71240447606766L479.74900398406373,199.72930909335352L480.1035856573705,200.0559360277572L480.4581673306773,201.22837036136278L480.81274900398404,201.4969238626933L481.1673306772908,201.80986545678417L481.5219123505976,203.27637046151676L481.87649402390434,204.1880602777436L482.2310756972112,203.3524336755614L482.58565737051794,204.31252125025534L482.9402390438247,205.37125507667957L483.2948207171315,204.7432889139809L483.64940239043824,204.51699141993703L484.00398406374507,202.17776199511553L484.3585657370518,197.4258237452246L484.71314741035854,197.57000316075911L485.0677290836653,199.34440583614233L485.4223107569721,199.61552563169863L485.7768924302789,200.82545361324674L486.1314741035856,202.5466140110644L486.8406374501992,201.02357125814353L487.19521912350604,200.82379458736804L487.5498007968128,202.5893866635647L488.2589641434263,204.12746637276845L488.61354581673305,202.9346450071102L488.9681274900399,202.7735930704838L489.32270916334664,203.94279194114424L489.67729083665336,205.13159869349735L490.3864541832669,206.6453738420625L490.7410358565737,207.1641522170145L491.09561752988054,207.17549419336248L491.45019920318725,207.18201954357497L491.804780876494,207.50774882462926L492.1593625498008,204.28540225141614L492.5139442231076,204.2448231165252L492.8685258964144,204.51301467587604L493.2231075697211,205.4362532241621L493.57768924302786,201.73028700138366L493.93227091633463,201.56619521877542L494.28685258964146,203.1079487848869L494.6414342629482,204.41108327672657L494.99601593625493,205.4928484850283L495.3505976095617,206.38367077285739L495.7051792828686,207.4472588570043L496.05976095617535,208.8509269621433L496.76892430278883,206.60467306386235L497.1235059760956,206.45099620125757L497.4780876494024,201.59701811966073L497.8326693227092,199.94998850990362L498.18725099601596,199.76671083453573L498.5418326693227,200.3218320814427L498.89641434262944,201.0876046701739L499.25099601593627,201.4391091007643L499.96015936254975,204.12013864331445L500.31474103585657,206.15484372905112L501.02390438247016,208.63297557857084L501.37848605577693,209.8213594132201L501.73306772908364,209.3010617418912L502.0876494023904,207.46843883824056L502.4422310756972,208.05883331218686L502.796812749004,210.06199752794063L503.1513944223108,210.50648189960478L503.5059760956175,209.91352218720198L503.86055776892425,211.07489118775885L504.215139442231,210.49031806957163L504.92430278884467,210.6368205849146L505.2788844621514,211.0383642931746L505.63346613545815,211.2820369721886L505.988047808765,211.88979496070442L506.34262948207174,212.8699872900507L507.0517928286852,214.10997712195015L507.406374501992,214.96136119418404L507.7609561752988,215.51249614465078L508.1155378486056,216.17735436355457L508.47011952191235,216.96420711694878L508.82470119521906,217.75120289460003L509.17928286852583,218.92251765583563L509.8884462151395,215.6512344222414L510.24302788844625,213.45718894607128L510.59760956175296,214.8645090034025L510.95219123505973,215.75259343506968L511.30677290836655,216.33061785804148L512.0159362549801,216.57062364384217L512.3705179282869,216.7130477210116L512.7250996015936,215.88621084020843L513.0796812749004,215.9707931824864L513.4342629482072,216.2959219980007L513.7888446215139,216.54983975706418L514.1434262948206,216.7008074841351L514.4980079681275,217.71911053059415L514.8525896414343,218.7267997099525L515.207171314741,219.394507875516L515.5617529880478,219.91886250008446L515.9163346613545,220.35402447207676L516.2709163346614,220.61934407082902L516.6254980079682,221.02412351766063L516.9800796812749,221.26987089054668L517.3346613545817,221.4158170600745L517.6892430278884,221.78112571098416L518.0438247011953,222.30693399479995L518.398406374502,222.9723220699295L518.7529880478088,223.58286735247992L519.1075697211155,224.175723984582L519.4621513944222,225.02207261916058L519.816733067729,226.14121811090345L520.1713147410359,226.24987151483336L520.8804780876494,223.4362399156101L521.2350597609561,222.43135584397527L521.9442231075698,222.07178180987842L522.2988047808765,222.17329627297866L523.00796812749,217.56567477372L523.3625498007968,217.41316406096078L523.7171314741036,214.83861017918758L524.7808764940238,215.83895746907817L525.4900398406375,217.73294557507026L526.199203187251,218.73622519569793L526.5537848605578,219.69482906586546L526.9083665338645,220.21446731257927L527.2629482071713,219.6733943800625L527.6175298804781,220.20101039028094L527.9721115537848,221.81639789627445L528.6812749003984,222.1738919370958L529.0358565737051,223.6216970668174L529.390438247012,224.64892474137963L529.7450199203187,225.87956851214753L530.0996015936255,226.72330868478716L530.4541832669323,227.26887949485933L530.808764940239,227.6067431369073L531.1633466135459,227.80996247213682L531.5179282868526,227.92995110350876L531.8725099601594,228L532.2270916334661,226.58036571753175L532.5816733067729,224.3815358523349L532.9362549800798,222.3747915686151L533.2908366533864,217.47823246340747L534,215.18133939154774"
         class="rv-xy-plot__series rv-xy-plot__series--line"
         transform="translate(46,5)"
         style="opacity: 1; stroke-width: 1.5px; stroke: rgb(161, 40, 100);"
         id="path258" />
      <path
         d="M0,3.154931688192952L0.3545816733067729,4.830364355940386L0.7091633466135459,6.168424200628515L1.0637450199203187,7.761128688258388L1.4183266932270917,9.405435890482543L1.7729083665338645,11.169106003748684L2.1274900398406373,12.878469479453745L2.4820717131474104,14.622000907711687L2.8366533864541834,16.437477715847308L3.545816733067729,18.392912888983165L3.900398406374502,19.985099725518847L4.254980079681275,20.70900382261566L4.609561752988047,21.172170407213457L5.3187250996015925,20.941088643602374L5.673306772908367,21.71053257332707L6.0278884462151385,22.48320347972846L6.382470119521912,23.21124477462066L6.737051792828684,23.852639497388566L7.091633466135458,23.64717944826921L7.44621513944223,24.098218700379775L7.800796812749004,24.953792895589398L8.155378486055776,25.581565675903562L8.50996015936255,25.380845871362702L8.864541832669323,25.342488308665825L9.219123505976095,25.551597304361138L9.573705179282868,26.14931107843428L9.928286852589641,27.291399128176046L10.637450199203187,27.807588446893757L10.99203187250996,29.036189504735468L11.346613545816734,30.104342944170938L11.701195219123505,30.90865256245806L12.055776892430279,31.377308135170303L12.41035856573705,31.70047842703623L12.764940239043824,32.1330999501896L13.119521912350598,32.886021671936724L13.474103585657371,33.47657649142339L13.828685258964143,33.67902586219866L14.183266932270916,34.06443017473481L14.537848605577688,34.82711310519579L14.892430278884461,35.28082594914005L15.247011952191235,35.60570492423638L15.601593625498008,35.97215558072071L15.95617529880478,36.42767070903788L16.310756972111555,36.982674666451835L16.665338645418323,37.28958378185267L17.0199203187251,37.714273339256046L17.37450199203187,37.97113140262741L17.729083665338646,38.319558986030415L18.083665338645417,38.750989507202945L18.43824701195219,39.140162490954765L19.14741035856574,39.50550459817103L19.501992031872508,39.72084739359103L19.856573705179283,39.937193291856474L20.211155378486055,40.10134858030905L20.56573705179283,40.26656489179654L20.9203187250996,40.428094118257704L21.274900398406373,40.55051584310747L21.98406374501992,40.59758056346471L22.338645418326692,40.680561179415854L22.693227091633464,40.736793208458636L23.047808764940243,40.79839115846401L23.402390438247014,40.84048947856717L23.75697211155379,40.87667479096167L24.111553784860558,40.914614870069315L24.466135458167333,40.94353415204761L24.820717131474108,40.93858993092205L25.17529880478088,40.95362755127795L25.529880478087648,40.96559610924451L25.884462151394427,40.98016928753809L26.2390438247012,40.98437913699529L26.593625498007974,40.99643595423258L26.948207171314742,41.01147706659021L27.302788844621517,41.02062037696994L27.65737051792829,41.03206714068563L28.011952191235064,41.04445085423608L28.366533864541832,41.06244904690587L28.721115537848608,41.07906241674989L29.075697211155383,41.08957744624923L29.430278884462155,41.10182570322144L29.784860557768923,41.12005852277828L30.1394422310757,41.134348086790816L30.494023904382473,41.145947411367345L30.84860557768925,41.157208253736094L31.203187250996017,41.17143315244302L31.557768924302792,41.18473228726265L31.912350597609564,41.19789625743744L32.26693227091634,41.20963598035372L32.62151394422311,41.22251814632613L32.97609561752988,41.23872531433683L33.330677290836654,41.254129142567415L33.685258964143436,41.27162138718127L34.0398406374502,41.28660093680941L34.39442231075697,41.30497796877899L34.74900398406375,41.32457034733546L35.10358565737052,41.3412956975271L35.45816733067729,41.357914321919296L35.81274900398407,41.372092504314146L36.16733067729084,41.38649163924251L36.52191235059762,41.399623060754045L36.87649402390438,41.41031704256243L37.23107569721116,41.41951561261222L37.58565737051793,41.42608736102552L37.940239043824704,41.43380751977345L38.64940239043825,41.446843660563346L39.00398406374502,41.4577875663458L39.3585657370518,41.470833554824885L39.713147410358566,41.48411464624571L40.06772908366534,41.496052222921385L40.42231075697211,41.51235250881746L40.776892430278885,41.524942221146645L41.13147410358566,41.534791815362915L41.48605577689243,41.54035396283055L41.8406374501992,41.548846775876L42.195219123505986,41.56162563202834L42.90438247011952,41.58452678764544L43.258964143426304,41.603104181147245L43.61354581673307,41.62245004041746L43.96812749003984,41.63769577214488L44.322709163346616,41.65155646579225L44.67729083665339,41.66713551730609L45.031872509960166,41.68293503798338L45.386454183266935,41.693427565505516L45.74103585657371,41.70380578427091L46.095617529880485,41.72073601080684L46.450199203187246,41.735073609453785L46.80478087649403,41.749076718635536L47.1593625498008,41.75982421264779L47.513944223107565,41.770376872728725L47.86852589641435,41.780545269229464L48.223107569721115,41.791691994855285L48.932270916334666,41.8068529684336L49.286852589641434,41.8186687242326L49.641434262948216,41.82699910593005L49.99601593625498,41.833204623865875L50.705179282868535,41.84591333037878L51.059760956175296,41.85856820772215L51.41434262948208,41.870526429404855L51.768924302788854,41.883539034449335L52.123505976095615,41.89497581377389L52.4780876494024,41.90900554703732L52.832669322709165,41.91746150582865L53.18725099601593,41.92589057878994L53.541832669322716,41.93608105316667L53.896414342629484,41.94298935417233L54.605577689243034,41.95626776185759L54.9601593625498,41.97083608976937L55.31474103585658,41.984405034887644L55.669322709163346,41.999975662472096L56.023904382470114,42.014209016978356L56.3784860557769,42.02685778654629L56.733067729083665,42.03727187987433L57.08764940239045,42.049006767065485L57.442231075697215,42.060289288592415L57.79681274900398,42.07232742985476L58.151394422310766,42.084392632893355L58.50597609561753,42.0957696650808L58.8605577689243,42.10933053633831L59.215139442231084,42.1286050224628L59.569721115537845,42.1423399306234L59.92430278884463,42.153039880594804L60.2788844621514,42.16258538287393L60.633466135458164,42.1705428237419L60.98804780876495,42.17766975180126L61.342629482071715,42.188270039305216L61.69721115537848,42.19886256646677L62.051792828685265,42.208787598627666L62.40637450199203,42.216870941337085L62.76095617529881,42.2280598567798L63.115537848605584,42.24103916533656L63.47011952191235,42.25363963029484L63.82470119521913,42.27067132230208L64.1792828685259,42.28629244875786L64.53386454183267,42.29974362207925L64.88844621513944,42.312753533478414L65.24302788844622,42.325793576276105L65.597609561753,42.340342114792286L65.95219123505976,42.35214566638913L66.30677290836654,42.36838176493974L66.66135458167331,42.3845672811328L67.37051792828686,42.40489172760375L67.72509960159363,42.423462068717924L68.0796812749004,42.43828308834455L68.43426294820719,42.447815056777415L68.78884462151395,42.45719953460755L69.14342629482071,42.472841038225035L69.4980079681275,42.49609194775951L69.85258964143426,42.5131371101143L70.20717131474103,42.53024733042789L70.56175298804781,42.550773394515936L70.91633466135458,42.57357118701308L71.27091633466136,42.59490763663679L71.62549800796813,42.61537373657367L71.9800796812749,42.6390217571751L72.33466135458168,42.660658885296776L73.04382470119522,42.68173465014303L73.398406374502,42.71153673805622L73.75298804780876,42.735636623067606L74.10756972111555,42.75905889012812L74.46215139442232,42.783007798173074L74.81673306772907,42.8106923006388L75.17131474103586,42.83670201563914L75.52589641434264,42.8611071970201L75.8804780876494,42.891941646620296L76.23505976095618,42.91771523883139L76.58964143426296,42.942902793662334L76.94422310756973,42.97126950709218L77.2988047808765,43.00053403896968L77.65338645418328,43.03432204353857L78.00796812749005,43.064511943067814L78.36254980079681,43.1023712864347L78.7171314741036,43.13802183526827L79.07171314741036,43.16701383845164L79.42629482071713,43.20091068541514L79.78087649402391,43.242362222418315L80.13545816733068,43.287039715802905L80.49003984063745,43.33109502756486L80.84462151394422,43.379670385475706L81.199203187251,43.417417951670615L81.55378486055777,43.45623008219085L81.90836653386454,43.49010441013552L82.26294820717132,43.53219843179012L82.61752988047809,43.5674283054978L82.97211155378486,43.5927323404858L83.32669322709164,43.61674297116992L83.6812749003984,43.644798586186354L84.03585657370517,43.6692371902314L84.39043824701196,43.693090570321L84.74501992031873,43.718024672808525L85.45418326693229,43.75919647934553L85.80876494023904,43.79270243424587L86.16334661354581,43.81514910299904L86.51792828685261,43.84061774853306L86.87250996015936,43.86733783711274L87.22709163346613,43.892570093705665L87.58167330677291,43.9174647881719L87.93625498007968,43.94516112458238L88.29083665338646,43.97494279965545L88.64541832669323,44.00533284983236L89,44.03117608162273L89.35458167330678,44.058210437090736L89.70916334661355,44.088004773186306L90.06374501992032,44.113034627453835L90.4183266932271,44.128829360106394L91.12749003984065,44.161536266691606L91.4820717131474,44.192086652328086L91.83665338645417,44.22854092998108L92.19123505976094,44.26669381798133L92.54581673306774,44.30296320368463L92.90039840637449,44.3319610023532L93.25498007968126,44.35989993276994L93.60956175298804,44.38378733746687L93.96414342629481,44.41417751634742L94.31872509960158,44.45284937502751L94.67330677290838,44.4849011575707L95.02788844621513,44.519389674877246L95.3824701195219,44.561456524909275L95.73705179282868,44.60835888778146L96.09163346613545,44.64963142405178L96.44621513944223,44.68631756701346L96.80079681274901,44.73241491086499L97.15537848605577,44.76548759160408L97.50996015936254,44.7774504798598L97.8645418326693,44.81712179848826L98.2191235059761,44.86615033947186L98.57370517928287,44.9008858568355L98.92828685258964,44.938148922968644L99.2828685258964,44.97919185478059L99.63745019920317,45.030108957016616L99.99203187250994,45.06442491355915L100.34661354581674,45.09609615703943L100.7011952191235,45.13352651275522L101.05577689243027,45.17240369051416L101.41035856573704,45.2032946878832L101.76494023904381,45.23158744442859L102.11952191235059,45.261602163992926L102.47410358565737,45.310539782246764L102.82868525896414,45.36123422127405L103.18326693227091,45.41448033527077L103.89243027888446,45.46814422883074L104.24701195219123,45.52062409245232L104.601593625498,45.55431456417111L104.95617529880478,45.59384581375029L105.31075697211153,45.63546843323486L105.6653386454183,45.678789338996864L106.0199203187251,45.717849603345414L106.37450199203187,45.76266207223644L106.72908366533864,45.81526141659828L107.08366533864542,45.85957808104106L107.43824701195217,45.901675929275136L107.79282868525897,45.933780110354505L108.14741035856574,45.958947501362445L108.5019920318725,45.99304035772448L108.85657370517927,46.02872239826252L109.21115537848605,46.06509107327155L109.56573705179284,46.11802149558417L109.9203187250996,46.17081055237267L110.27490039840636,46.22405545771648L110.62948207171314,46.2762559288807L110.98406374501991,46.31431129280495L111.33864541832668,46.354665640135345L111.69322709163347,46.38309758547824L112.04780876494023,46.42380527249278L112.402390438247,46.47858075149426L112.75697211155378,46.52261902063326L113.11155378486055,46.56657837041323L113.46613545816733,46.618184635161626L113.82071713147411,46.66771120800577L114.17529880478087,46.71926136584721L114.52988047808763,46.76752262884147L114.88446215139442,46.82388896563458L115.2390438247012,46.870729813385196L115.59362549800797,46.91186244558733L115.94820717131473,46.945432376543415L116.3027888446215,46.97565305442568L116.65737051792827,47.012938779232925L117.01195219123504,47.052136132453846L117.36653386454184,47.107961676579556L117.7211155378486,47.16214007416052L118.07569721115537,47.219327746951244L118.43027888446214,47.27255909660051L118.78486055776891,47.34079693391665L119.13944223107569,47.398641592938546L119.49402390438247,47.44874581376589L119.84860557768924,47.495900349375326L120.20318725099601,47.53724675785897L120.55776892430278,47.60261601561553L120.91235059760956,47.66595655951944L121.26693227091633,47.73039863537073L121.6215139442231,47.81020893638348L121.97609561752988,47.880788929436285L122.33067729083665,47.948674670849925L122.6852589641434,48.04281147247774L123.0398406374502,48.13170566924427L123.39442231075697,48.20268179538317L123.74900398406373,48.27614480197616L124.10358565737052,48.34210668974939L124.45816733067727,48.38428554990857L124.81274900398407,48.42030987386439L125.16733067729083,48.48649199935198L125.5219123505976,48.565360292289974L125.87649402390437,48.66325632972852L126.23107569721115,48.73399611357791L126.58565737051794,48.827704326021404L126.9402390438247,48.92933525176562L127.64940239043824,49.06264572400177L128.003984063745,49.193456453087286L128.35856573705178,49.31639513852198L128.71314741035857,49.42284266182045L129.06772908366534,49.53303516263638L129.4223107569721,49.63211700716814L129.77689243027888,49.71880881345963L130.13147410358565,49.82513814032147L130.48605577689244,49.94643752506021L130.8406374501992,50.05030743657309L131.19521912350595,50.15802846116875L131.54980079681275,50.28266213189542L131.90438247011951,50.40902370880837L132.25896414342628,50.5234748145588L132.61354581673308,50.63304474313087L132.96812749003985,50.74686097673409L133.3227091633466,50.87266466389393L133.67729083665338,50.978196875489616L134.03187250996012,51.09647989757191L134.38645418326692,51.22152334951315L134.74103585657372,51.35377592438471L135.09561752988049,51.500628508993096L135.45019920318725,51.661018768517316L135.80478087649402,51.81094476252324L136.1593625498008,51.95051704473074L136.51394422310756,52.08548142479744L136.86852589641433,52.30425249045626L137.22310756972112,52.52530544591316L137.5776892430279,52.711265796654246L137.93227091633466,52.92851749701066L138.6414342629482,53.24005775431369L139.35059760956176,53.675979446592706L139.70517928286853,54.06146920602394L140.0597609561753,54.38287471249979L140.41434262948206,54.68748314207813L140.76892430278883,54.96380865361583L141.1235059760956,55.199204711272465L141.4780876494024,55.38762454554565L141.83266932270917,55.61100059785339L142.18725099601593,55.81811608594329L142.5418326693227,56.02716379270343L142.89641434262947,56.21757551553773L143.25099601593624,56.413675832473956L143.9601593625498,56.6897237894227L144.31474103585657,56.90855113750566L144.66932270916334,57.087855395455165L145.37848605577688,57.26845536667127L145.73306772908364,57.427141875987196L146.08764940239044,57.60557628118509L146.4422310756972,57.78902360912147L146.79681274900398,57.94495856167382L147.15139442231074,58.089135738594635L147.5059760956175,58.277594649137725L148.21513944223105,58.517524975883696L148.56972111553785,58.61615585708759L148.9243027888446,58.73282761587635L149.2788844621514,58.865867698230495L149.63346613545815,59.037921481964794L149.98804780876492,59.231403719796006L150.3426294820717,59.42931199155608L150.69721115537848,59.61873628046736L151.05179282868525,59.79735057730006L151.40637450199205,59.963799347048365L151.7609561752988,60.14601462489541L152.11553784860556,60.30500122444773L152.47011952191232,60.49710019971104L152.82470119521912,60.735648424595794L153.17928286852592,60.94634731134303L153.53386454183268,61.185765732362185L153.88844621513942,61.46605517952479L154.2430278884462,61.691533658912235L154.59760956175296,61.88502837406065L154.95219123505976,62.13398688327277L155.30677290836655,62.3775278767351L155.66135458167332,62.59668325069528L156.01593625498006,62.81538466455801L156.37051792828683,63.0107017020656L157.0796812749004,63.34253966443709L157.78884462151396,63.893745961382066L158.1434262948207,64.3539552175064L158.49800796812747,64.69248558671514L158.85258964143426,65.08079195673287L159.20717131474103,65.52680916482039L159.56175298804783,65.87243341075512L159.91633466135457,66.2769535528705L160.62549800796813,66.85954735733776L160.9800796812749,67.26458784776166L161.33466135458167,67.71128930670469L161.68924302788844,68.1039556388408L162.0438247011952,68.52653032124023L162.39840637450197,68.97828832800741L162.75298804780877,69.34113686931319L163.4621513944223,69.69853603742554L163.81673306772907,70.05534109561323L164.17131474103584,70.44897108599729L164.52589641434264,70.92500141406393L164.8804780876494,71.40151815894825L165.23505976095618,71.9472966281542L165.58964143426294,72.59152493070852L165.9442231075697,73.15040438287373L166.29880478087648,73.72947478131039L166.65338645418328,74.31284028548629L167.00796812749005,75.02420048512867L167.3625498007968,75.61345345059685L167.71713147410358,76.25278124650788L168.07171314741035,76.95074248025368L168.42629482071712,77.80685977504314L168.78087649402391,78.7361180108312L169.13545816733068,79.7069127016432L169.49003984063745,80.49542566433686L169.84462151394422,80.64774033913368L170.199203187251,81.07836417596162L170.55378486055776,82.24261996395168L170.90836653386455,83.60745784434438L171.26294820717132,85.2099580455923L171.6175298804781,86.6945967559152L171.97211155378486,87.95035798433541L172.32669322709162,88.69752158419502L172.6812749003984,89.02688835653778L173.03585657370516,89.09323329830858L173.39043824701196,89.57410617161973L173.74501992031873,90.0867660313525L174.0996015936255,90.69457000397449L174.45418326693226,91.37974472789004L174.80876494023903,92.32511159380292L175.1633466135458,93.02027029102666L175.5179282868526,94.29459019989199L175.87250996015936,95.96742126831542L176.22709163346613,97.51325961770948L176.5816733067729,98.96908239854992L177.29083665338644,100.5240031061253L177.6454183266932,101.1953296431791L178,102.02285339233958L178.35458167330677,102.7343941788893L178.70916334661354,103.76317508019208L179.41832669322707,105.25863227920364L179.77290836653384,106.58194225267317L180.12749003984064,107.35182990253826L180.4820717131474,109.20593577535614L180.83665338645417,110.51960874457451L181.19123505976094,110.7846297832176L181.54581673306774,111.41555780508695L181.90039840637448,112.3168427394889L182.25498007968127,113.51501374832644L182.60956175298807,114.74675444327087L182.9641434262948,116.04421592605159L183.3187250996016,117.3893820457875L183.67330677290835,118.65286750767332L184.73705179282868,120.56500260731318L185.44621513944222,122.60381119965828L185.80079681274898,124.484801214982L186.15537848605578,125.50240628740207L186.50996015936252,126.73889433842314L186.86454183266935,127.97604184669832L187.21912350597609,129.38404756479574L187.57370517928288,130.7814901827362L187.92828685258962,131.1344502179864L188.2828685258964,132.25059751261136L188.6374501992032,133.27931707749812L188.99203187250993,134.57112442856962L189.34661354581675,134.14171118335534L189.7011952191235,135.33827611781095L190.05577689243026,137.08041201494115L190.41035856573706,138.33954401081292L190.7649402390438,139.75065761479934L191.1195219123506,140.7019465612817L191.47410358565736,141.4212611318409L192.18326693227093,142.436909714962L192.53784860557766,143.91399915092543L192.89243027888446,144.92769015016086L193.2470119521912,145.808969591767L193.60159362549803,146.79216226346784L193.9561752988048,147.79066119970943L194.31075697211153,148.43392666272956L194.66533864541833,149.00232170598713L195.01992031872507,150.28158778939755L195.37450199203187,151.29652045598812L195.72908366533866,151.44025877225914L196.0836653386454,153.05003394320318L196.4382470119522,154.5952030014693L196.79282868525894,154.65798788685254L197.14741035856574,154.7581037361258L197.5019920318725,154.81056788968348L197.85657370517927,155.00209973144607L198.21115537848607,155.61693070834784L198.5657370517928,156.47743061629365L198.9203187250996,157.7152326822214L199.27490039840634,158.52650442236032L199.62948207171314,159.36040539729433L199.9840637450199,159.99904927665418L200.33864541832665,160.539182122523L200.69322709163347,160.79921384531022L201.0478087649402,160.93028032608166L201.402390438247,160.9927703902131L201.75697211155378,161.63376486943113L202.11155378486055,162.48697165363728L202.46613545816732,163.1954073607447L202.82071713147408,163.5178160506583L203.17529880478088,164.03268188253278L203.52988047808765,164.54946676371054L203.88446215139442,164.9824831294649L204.23904382470118,165.6615942724633L204.59362549800792,166.35391588934363L204.94820717131475,167.30035962768292L205.30278884462155,168.23498178303L205.65737051792829,169.192733361831L206.01195219123505,170.3385558289008L206.36653386454182,171.19335577785353L206.7211155378486,172.17716491787812L207.07569721115541,173.21448889110007L207.43027888446215,174.02496887826098L207.78486055776892,174.69435182392738L208.1394422310757,175.21855043673347L208.49402390438246,175.66806385742248L208.84860557768926,175.94268645536295L209.203187250996,176.10642994499298L209.55776892430282,176.20259178175422L209.91235059760956,176.25855022945348L210.26693227091633,176.29093774167742L210.62151394422307,176.30962372755897L210.97609561752986,176.32038485257468L211.33067729083666,176.32657554234035L211.68525896414343,176.33013476472286L212.0398406374502,176.33218035442877L212.39442231075697,176.3333557772929L212.74900398406373,176.33403111231158L213.10358565737053,176.3344190977296L213.45816733067727,176.3346419899306L213.81274900398404,176.3347700355626L214.16733067729083,176.33484359343572L214.5219123505976,176.33488584963177L214.8764940239044,176.33491012410525L215.23107569721114,176.33492406877383L215.58565737051794,176.33493207939097L215.94023904382468,176.33493668114508L216.29482071713147,176.3349393246532L216.64940239043827,176.33494084323354L217.003984063745,176.3349417155917L217.3585657370518,176.33494221672333L217.71314741035854,176.33494250460163L218.0677290836653,176.33494266997508L218.42231075697214,176.3349427649749L218.77689243027888,176.33494281954813L219.13147410358567,176.3349428508981L219.4860557768924,176.33494286890726L219.8406374501992,176.33494287925274L220.19521912350598,176.33494288519577L220.54980079681272,176.3349428886098L220.90438247011954,176.33494289057097L221.25896414342628,176.3349428916976L221.61354581673308,176.3349428923448L221.96812749003982,176.33494289271658L222.3227091633466,176.33494289293017L223.38645418326695,176.33494289305287L223.7410358565737,176.33494289312333L224.09561752988046,176.3349428931638L224.45019920318725,176.33494289318708L224.804780876494,176.33494289320043L225.15936254980082,176.3349428932081L225.51394422310756,176.33494289321254L225.86852589641435,176.33494289321504L226.22310756972112,176.3349428932165L226.57768924302786,176.33494289321735L226.93227091633466,176.33494289321783L227.2868525896414,176.3349428932181L227.64143426294822,176.33494289321825L227.996015936255,176.33494289321834L228.35059760956173,176.3349428932184L228.70517928286853,176.33494289321843L229.05976095617527,176.33494289321845L229.41434262948206,176.33494289321845L229.76892430278886,176.33494289321845L230.12350597609563,176.33494289321845L230.4780876494024,176.33494289321848L230.83266932270914,176.33494289321848L231.5418326693227,176.33494289321848L232.25099601593627,176.60207695004252L232.605577689243,177.02941820853832L232.9601593625498,177.86431312163765L233.31474103585654,178.71697146225029L233.66932270916334,179.44248965837167L234.0239043824701,180.07153423581175L234.37848605577688,180.87663397236201L234.73306772908367,181.63923706616723L235.0876494023904,182.33605207354262L235.4422310756972,182.8170945164998L235.79681274900398,183.20337307365926L236.15139442231074,183.5361922937412L236.50597609561754,183.7692952960532L236.86055776892428,183.9074922790494L237.21513944223108,183.98837036053226L237.56972111553785,184.0353380032847L237.9243027888446,184.06248903704108L238.27888446215138,184.07814285015783L238.63346613545812,184.08715411266593L238.98804780876495,184.09233692427284L239.34262948207174,184.0953162845532L239.69721115537848,184.09702847784683L240.05179282868525,184.09801228292318L240.40637450199202,184.09857751016102L240.7609561752988,184.09890223299595L241.1155378486056,184.0990887801511L241.47011952191235,184.09919594600237L241.82470119521912,184.09925750897793L242.1792828685259,184.0992928745056L242.53386454183266,184.0993131905505L242.88844621513945,184.0993248612614L243.2430278884462,184.09933156558483L243.59760956175302,184.09933541692888L243.95219123505976,184.09933762935873L244.30677290836653,184.0993389003033L244.6613545816733,184.0993396304055L245.01593625498006,184.09934004981733L245.37051792828686,184.09934029075106L245.72509960159363,184.09934042915697L246.0796812749004,184.09934050866514L246.43426294820716,184.09934055433908L246.78884462151393,184.09934058057678L247.14342629482073,184.09934059564915L247.8525896414343,184.0993406043076L248.20717131474103,184.0993406092815L248.5617529880478,184.0993406121388L248.9163346613546,184.09934061378016L249.62549800796813,184.09934061472308L249.98007968127487,184.09934061526474L250.33466135458167,184.09934061557587L250.68924302788847,184.09934061575464L251.0438247011952,184.0993406158573L251.398406374502,184.0993406159163L251.75298804780874,184.09934061595018L252.1075697211155,184.09934061596965L252.46215139442234,184.09934061598082L252.81673306772907,184.09934061598727L253.17131474103587,184.09934061599094L253.5258964143426,184.09934061599307L253.8804780876494,184.09934061599427L254.23505976095618,184.09934061599498L254.58964143426292,184.0993406159954L254.94422310756974,184.09934061599563L255.29880478087648,184.09934061599574L255.65338645418328,184.09934061599583L256.00796812749,184.09934061599589L256.3625498007968,184.09934061599589L256.7171314741036,184.09934061599589L257.0717131474103,184.0993406159959L257.42629482071715,184.0993406159959L258.1354581673307,184.0993406159959L258.8446215139442,184.0993406159959L259.199203187251,184.0993406159959L259.55378486055776,184.0993406159959L259.9083665338645,184.0993406159959L260.26294820717135,184.0993406159959L260.61752988047806,184.0993406159959L260.9721115537849,184.0993406159959L261.3266932270916,184.0993406159959L261.6812749003984,184.0993406159959L262.0358565737052,184.0993406159959L262.3904382470119,184.0993406159959L262.7450199203187,184.0993406159959L263.0996015936255,184.0993406159959L263.45418326693226,184.0993406159959L263.80876494023903,184.0993406159959L264.1633466135458,184.0993406159959L264.51792828685257,184.0993406159959L264.87250996015933,184.0993406159959L265.22709163346616,184.0993406159959L265.5816733067729,184.0993406159959L265.9362549800797,184.0993406159959L266.29083665338646,184.0993406159959L266.6454183266932,184.0993406159959L267,184.0993406159959L267.35458167330677,184.0993406159959L267.70916334661354,184.0993406159959L268.0637450199203,184.0993406159959L268.4183266932271,184.0993406159959L268.77290836653384,184.0993406159959L269.1274900398406,184.0993406159959L269.48207171314743,184.0993406159959L269.8366533864542,184.0993406159959L270.19123505976097,184.0993406159959L270.54581673306774,184.0993406159959L270.9003984063745,184.0993406159959L271.2549800796813,184.0993406159959L271.60956175298804,184.0993406159959L271.9641434262948,184.0993406159959L272.3187250996016,184.0993406159959L272.67330677290835,184.0993406159959L273.0278884462151,184.0993406159959L273.3824701195219,184.0993406159959L273.73705179282865,184.0993406159959L274.0916334661355,184.0993406159959L274.44621513944224,184.0993406159959L275.1553784860558,184.0993406159959L275.50996015936255,184.0993406159959L275.8645418326693,184.0993406159959L276.2191235059761,184.0993406159959L276.57370517928285,184.0993406159959L276.9282868525896,184.0993406159959L277.2828685258964,184.0993406159959L277.63745019920316,184.0993406159959L277.9920318725099,184.0993406159959L278.3466135458167,184.0993406159959L279.0557768924303,184.0993406159959L279.41035856573706,184.0993406159959L279.7649402390438,184.0993406159959L280.1195219123506,184.0993406159959L280.47410358565736,184.0993406159959L280.82868525896413,184.0993406159959L281.1832669322709,184.0993406159959L281.53784860557766,184.0993406159959L281.89243027888443,184.0993406159959L282.2470119521912,184.0993406159959L282.60159362549797,184.0993406159959L282.9561752988048,184.0993406159959L283.31075697211156,184.0993406159959L284.0199203187251,184.0993406159959L284.37450199203187,184.0993406159959L284.72908366533864,184.0993406159959L285.0836653386454,184.0993406159959L285.43824701195217,184.0993406159959L285.79282868525894,184.0993406159959L286.1474103585657,184.0993406159959L286.50199203187253,184.0993406159959L286.85657370517924,184.0993406159959L287.211155378486,184.0993406159959L287.56573705179284,184.0993406159959L287.9203187250996,184.0993406159959L288.27490039840643,184.0993406159959L288.62948207171314,184.0993406159959L288.9840637450199,184.0993406159959L289.3386454183267,184.0993406159959L289.69322709163345,184.0993406159959L290.0478087649402,184.0993406159959L290.402390438247,184.0993406159959L290.7569721115538,184.0993406159959L291.1115537848605,184.0993406159959L291.4661354581673,184.0993406159959L291.82071713147405,184.0993406159959L292.1752988047809,184.0993406159959L292.5298804780877,184.0993406159959L293.2390438247012,184.0993406159959L293.59362549800795,184.0993406159959L293.9482071713147,184.0993406159959L294.30278884462155,184.0993406159959L294.65737051792826,184.0993406159959L295.011952191235,184.0993406159959L295.3665338645418,184.0993406159959L295.72111553784856,184.0993406159959L296.0756972111554,184.0993406159959L296.4302788844621,184.0993406159959L296.784860557769,184.0993406159959L297.49402390438246,184.0993406159959L297.8486055776893,184.0993406159959L298.203187250996,184.0993406159959L298.5577689243028,184.0993406159959L298.91235059760953,184.0993406159959L299.2669322709163,184.0993406159959L299.6215139442231,184.0993406159959L299.97609561752984,184.0993406159959L300.33067729083666,184.0993406159959L300.6852589641434,184.0993406159959L301.03984063745025,184.0993406159959L301.39442231075697,184.0993406159959L301.74900398406373,184.0993406159959L302.10358565737056,184.0993406159959L302.45816733067727,184.0993406159959L302.8127490039841,184.0993406159959L303.1673306772908,184.0993406159959L303.5219123505976,184.0993406159959L303.8764940239044,184.0993406159959L304.2310756972111,184.0993406159959L304.58565737051794,184.0993406159959L304.94023904382465,184.0993406159959L305.2948207171314,184.0993406159959L305.6494023904383,184.0993406159959L306.003984063745,184.0993406159959L306.35856573705183,184.0993406159959L306.71314741035854,184.0993406159959L307.06772908366537,184.0993406159959L307.42231075697214,184.0993406159959L307.77689243027885,184.0993406159959L308.1314741035857,184.0993406159959L308.4860557768924,184.0993406159959L308.8406374501992,184.0993406159959L309.195219123506,184.0993406159959L309.5498007968127,184.0993406159959L309.9043824701195,184.0993406159959L310.2589641434263,184.0993406159959L310.6135458167331,184.0993406159959L310.9681274900399,184.0993406159959L311.32270916334664,184.0993406159959L311.6772908366534,184.0993406159959"
         class="rv-xy-plot__series rv-xy-plot__series--line"
         transform="translate(46,5)"
         style="opacity: 1; stroke-width: 1.5px; stroke: rgb(83, 135, 221);"
         id="path260" />
      <g
         class="rv-xy-plot__series rv-xy-plot__series--mark"
         transform="translate(46,5)"
         id="g264">
        <circle
           r="2"
           cx="311.6772908366534"
           cy="184.0993406159959"
           style="opacity: 1; stroke: rgb(83, 135, 221); fill: rgb(83, 135, 221); stroke-width: 1px;"
           id="circle262" />
      </g>
      <g
         class="rv-xy-plot__series rv-xy-plot__series--mark"
         transform="translate(46,5)"
         id="g268">
        <circle
           r="2"
           cx="534"
           cy="215.18133939154774"
           style="opacity: 1; stroke: rgb(161, 40, 100); fill: rgb(161, 40, 100); stroke-width: 1px;"
           id="circle266" />
      </g>
      <defs
         class="rv-gradient-defs"
         id="defs294">
        <linearGradient
           id="leftFadeGradient"
           x1="0"
           x2="1"
           y1="0"
           y2="0">
          <stop
             offset="0%"
             stop-color="white"
             stop-opacity="1"
             id="stop270" />
          <stop
             offset="60%"
             stop-color="white"
             stop-opacity="1"
             id="stop272" />
          <stop
             offset="100%"
             stop-color="white"
             stop-opacity="0"
             id="stop274" />
        </linearGradient>
        <linearGradient
           id="rightFadeGradient"
           x1="1"
           x2="0"
           y1="0"
           y2="0">
          <stop
             offset="0%"
             stop-color="white"
             stop-opacity="1"
             id="stop277" />
          <stop
             offset="100%"
             stop-color="white"
             stop-opacity="0"
             id="stop279" />
        </linearGradient>
        <linearGradient
           id="bottomFadeGradient"
           x1="0"
           x2="0"
           y1="1"
           y2="0">
          <stop
             offset="0%"
             stop-color="white"
             stop-opacity="1"
             id="stop282" />
          <stop
             offset="40%"
             stop-color="white"
             stop-opacity="1"
             id="stop284" />
          <stop
             offset="100%"
             stop-color="white"
             stop-opacity="0"
             id="stop286" />
        </linearGradient>
        <linearGradient
           id="topFadeGradient"
           x1="0"
           x2="0"
           y1="0"
           y2="1">
          <stop
             offset="0%"
             stop-color="white"
             stop-opacity="1"
             id="stop289" />
          <stop
             offset="100%"
             stop-color="white"
             stop-opacity="0"
             id="stop291" />
        </linearGradient>
      </defs>
      <g
         class="rv-xy-plot__borders plot-border"
         id="g304">
        <rect
           class="rv-xy-plot__borders-bottom plot-border-bottom"
           style="fill: url(&quot;#bottomFadeGradient&quot;); opacity: 1;"
           x="0"
           y="233"
           width="600"
           height="30"
           id="rect296" />
        <rect
           class="rv-xy-plot__borders-left plot-border-left"
           style="fill: url(&quot;#leftFadeGradient&quot;); opacity: 1;"
           x="0"
           y="0"
           width="46"
           height="263"
           id="rect298" />
        <rect
           class="rv-xy-plot__borders-right plot-border-right"
           style="fill: url(&quot;#rightFadeGradient&quot;); opacity: 1;"
           x="580"
           y="0"
           width="20"
           height="263"
           id="rect300" />
        <rect
           class="rv-xy-plot__borders-top plot-border-top"
           style="fill: url(&quot;#topFadeGradient&quot;); opacity: 1;"
           x="0"
           y="0"
           width="600"
           height="5"
           id="rect302" />
      </g>
      <g
         transform="translate(46,233)"
         class="rv-xy-plot__axis rv-xy-plot__axis--horizontal"
         style="font-family: Source Sans Pro; fill: rgb(107, 107, 118); font-size: 11px;"
         id="g340">
        <line
           x1="0"
           x2="534"
           y1="0"
           y2="0"
           class="rv-xy-plot__axis__line"
           style="font-family: Source Sans Pro; fill: rgb(107, 107, 118); font-size: 11px; stroke-width: 0px;"
           id="line306" />
        <g
           transform="translate(0, 0)"
           class="rv-xy-plot__axis__ticks"
           id="g332">
          <g
             transform="translate(110.9970775445991, 0)"
             class="rv-xy-plot__axis__tick"
             style="font-family: Source Sans Pro; fill: rgb(107, 107, 118); font-size: 11px;"
             id="g312">
            <line
               x1="0"
               x2="0"
               y1="-6"
               y2="6"
               class="rv-xy-plot__axis__tick__line"
               style="font-family: Source Sans Pro; fill: rgb(107, 107, 118); font-size: 11px; stroke-width: 0px;"
               id="line308" />
            <text
               text-anchor="middle"
               dy="0.72em"
               transform="translate(0, 14)"
               class="rv-xy-plot__axis__tick__text"
               style="font-family: sans-serif; fill: rgb(107, 107, 118); font-size: 11px;"
               id="text310">5k</text>
          </g>
          <g
             transform="translate(222.427736441314, 0)"
             class="rv-xy-plot__axis__tick"
             style="font-family: Source Sans Pro; fill: rgb(107, 107, 118); font-size: 11px;"
             id="g318">
            <line
               x1="0"
               x2="0"
               y1="-6"
               y2="6"
               class="rv-xy-plot__axis__tick__line"
               style="font-family: Source Sans Pro; fill: rgb(107, 107, 118); font-size: 11px; stroke-width: 0px;"
               id="line314" />
            <text
               text-anchor="middle"
               dy="0.72em"
               transform="translate(0, 14)"
               class="rv-xy-plot__axis__tick__text"
               style="font-family: sans-serif; fill: rgb(107, 107, 118); font-size: 11px;"
               id="text316">10k</text>
          </g>
          <g
             transform="translate(333.85839533802897, 0)"
             class="rv-xy-plot__axis__tick"
             style="font-family: Source Sans Pro; fill: rgb(107, 107, 118); font-size: 11px;"
             id="g324">
            <line
               x1="0"
               x2="0"
               y1="-6"
               y2="6"
               class="rv-xy-plot__axis__tick__line"
               style="font-family: Source Sans Pro; fill: rgb(107, 107, 118); font-size: 11px; stroke-width: 0px;"
               id="line320" />
            <text
               text-anchor="middle"
               dy="0.72em"
               transform="translate(0, 14)"
               class="rv-xy-plot__axis__tick__text"
               style="font-family: sans-serif; fill: rgb(107, 107, 118); font-size: 11px;"
               id="text322">15k</text>
          </g>
          <g
             transform="translate(445.2890542347439, 0)"
             class="rv-xy-plot__axis__tick"
             style="font-family: Source Sans Pro; fill: rgb(107, 107, 118); font-size: 11px;"
             id="g330">
            <line
               x1="0"
               x2="0"
               y1="-6"
               y2="6"
               class="rv-xy-plot__axis__tick__line"
               style="font-family: Source Sans Pro; fill: rgb(107, 107, 118); font-size: 11px; stroke-width: 0px;"
               id="line326" />
            <text
               text-anchor="middle"
               dy="0.72em"
               transform="translate(0, 14)"
               class="rv-xy-plot__axis__tick__text"
               style="font-family: sans-serif; fill: rgb(107, 107, 118); font-size: 11px;"
               id="text328">20k</text>
          </g>
        </g>
        <g
           transform="translate(-9.5899931)"
           class="rv-xy-plot__axis__title"
           id="g338">
          <g
             style="font-size:11px;font-family:'Source Sans Pro';text-anchor:end;fill:#6b6b76"
             transform="translate(528,-6)"
             id="g336">
            <text
               style="font-size:11px;font-family:sans-serif;fill:#6b6b76"
               id="text334"
               x="-26.268242"
               y="6.6712995">total samples</text>
          </g>
        </g>
      </g>
      <g
         transform="translate(46,233)"
         class="rv-xy-plot__axis rv-xy-plot__axis--horizontal"
         id="g370">
        <line
           x1="0"
           x2="0"
           y1="0"
           y2="0"
           class="rv-xy-plot__axis__line"
           id="line342" />
        <g
           transform="translate(0, 0)"
           class="rv-xy-plot__axis__ticks"
           id="g368">
          <g
             transform="translate(110.9970775445991, 0)"
             class="rv-xy-plot__axis__tick"
             id="g348">
            <line
               x1="0"
               x2="0"
               y1="-6"
               y2="6"
               class="rv-xy-plot__axis__tick__line"
               id="line344" />
            <text
               text-anchor="middle"
               dy="0.72em"
               transform="translate(0, 14)"
               class="rv-xy-plot__axis__tick__text"
               style="font-family: sans-serif;"
               id="text346" />
          </g>
          <g
             transform="translate(222.427736441314, 0)"
             class="rv-xy-plot__axis__tick"
             id="g354">
            <line
               x1="0"
               x2="0"
               y1="-6"
               y2="6"
               class="rv-xy-plot__axis__tick__line"
               id="line350" />
            <text
               text-anchor="middle"
               dy="0.72em"
               transform="translate(0, 14)"
               class="rv-xy-plot__axis__tick__text"
               style="font-family: sans-serif;"
               id="text352" />
          </g>
          <g
             transform="translate(333.85839533802897, 0)"
             class="rv-xy-plot__axis__tick"
             id="g360">
            <line
               x1="0"
               x2="0"
               y1="-6"
               y2="6"
               class="rv-xy-plot__axis__tick__line"
               id="line356" />
            <text
               text-anchor="middle"
               dy="0.72em"
               transform="translate(0, 14)"
               class="rv-xy-plot__axis__tick__text"
               style="font-family: sans-serif;"
               id="text358" />
          </g>
          <g
             transform="translate(445.2890542347439, 0)"
             class="rv-xy-plot__axis__tick"
             id="g366">
            <line
               x1="0"
               x2="0"
               y1="-6"
               y2="6"
               class="rv-xy-plot__axis__tick__line"
               id="line362" />
            <text
               text-anchor="middle"
               dy="0.72em"
               transform="translate(0, 14)"
               class="rv-xy-plot__axis__tick__text"
               style="font-family: sans-serif;"
               id="text364" />
          </g>
        </g>
      </g>
      <g
         transform="translate(0,5)"
         class="rv-xy-plot__axis rv-xy-plot__axis--vertical"
         style="font-family: Source Sans Pro; fill: rgb(107, 107, 118); font-size: 11px;"
         id="g394">
        <line
           x1="46"
           x2="46"
           y1="0"
           y2="228"
           class="rv-xy-plot__axis__line"
           style="font-family: Source Sans Pro; fill: rgb(107, 107, 118); font-size: 11px; stroke: none;"
           id="line372" />
        <g
           transform="translate(46, 0)"
           class="rv-xy-plot__axis__ticks"
           id="g386">
          <g
             transform="translate(0, 190.51624891108986)"
             class="rv-xy-plot__axis__tick"
             style="font-family: Source Sans Pro; fill: rgb(107, 107, 118); font-size: 11px;"
             id="g378">
            <line
               y1="0"
               y2="0"
               x1="6"
               x2="-6"
               class="rv-xy-plot__axis__tick__line"
               style="font-family: Source Sans Pro; fill: rgb(107, 107, 118); font-size: 11px; stroke: none;"
               id="line374" />
            <text
               text-anchor="end"
               dy="0.32em"
               transform="translate(-14, 0)"
               class="rv-xy-plot__axis__tick__text"
               style="font-family: sans-serif; fill: rgb(107, 107, 118); font-size: 11px;"
               id="text376">1e-10</text>
          </g>
          <g
             transform="translate(0, 54.76134719494699)"
             class="rv-xy-plot__axis__tick"
             style="font-family: Source Sans Pro; fill: rgb(107, 107, 118); font-size: 11px;"
             id="g384">
            <line
               y1="0"
               y2="0"
               x1="6"
               x2="-6"
               class="rv-xy-plot__axis__tick__line"
               style="font-family: Source Sans Pro; fill: rgb(107, 107, 118); font-size: 11px; stroke: none;"
               id="line380" />
            <text
               text-anchor="end"
               dy="0.32em"
               transform="translate(-14, 0)"
               class="rv-xy-plot__axis__tick__text"
               style="font-family: sans-serif; fill: rgb(107, 107, 118); font-size: 11px;"
               id="text382">1</text>
          </g>
        </g>
        <g
           transform="translate(0.96872828,61.292564)"
           class="rv-xy-plot__axis__title"
           id="g392">
          <g
             style="font-size:11px;font-family:'Source Sans Pro';text-anchor:end;fill:#6b6b76"
             transform="rotate(-90,11,-5)"
             id="g390">
            <text
               style="font-size:11px;font-family:sans-serif;fill:#6b6b76"
               id="text388">Loss</text>
          </g>
        </g>
      </g>
    </svg>
  </g>
  <xhtml:style>/*&lt;![CDATA[*/<xhtml:br />
text { font-size: 10px; fill: black }<xhtml:br />
.react-vis-magic-css-import-rule{display:inherit}.rv-treemap{font-size:12px;position:relative}.rv-treemap__leaf{overflow:hidden;position:absolute}.rv-treemap__leaf--circle{align-items:center;border-radius:100%;display:flex;justify-content:center}.rv-treemap__leaf__content{overflow:hidden;padding:10px;text-overflow:ellipsis}.rv-xy-plot{color:#c3c3c3;position:relative}.rv-xy-plot canvas{pointer-events:none}.rv-xy-plot .rv-xy-canvas{pointer-events:none;position:absolute}.rv-xy-plot__inner{display:block}.rv-xy-plot__axis__line{fill:none;stroke-width:2px;stroke:#e6e6e9}.rv-xy-plot__axis__tick__line{stroke:#e6e6e9}.rv-xy-plot__axis__tick__text{fill:#6b6b76;font-size:11px}.rv-xy-plot__axis__title text{fill:#6b6b76;font-size:11px}.rv-xy-plot__grid-lines__line{stroke:#e6e6e9}.rv-xy-plot__circular-grid-lines__line{fill-opacity:0;stroke:#e6e6e9}.rv-xy-plot__series,.rv-xy-plot__series path{pointer-events:all}.rv-xy-plot__series--line{fill:none;stroke:#000;stroke-width:2px}.rv-crosshair{position:absolute;font-size:11px;pointer-events:none}.rv-crosshair__line{background:#47d3d9;width:1px}.rv-crosshair__inner{position:absolute;text-align:left;top:0}.rv-crosshair__inner__content{border-radius:4px;background:#3a3a48;color:#fff;font-size:12px;padding:7px 10px;box-shadow:0 2px 4px rgba(0,0,0,0.5)}.rv-crosshair__inner--left{right:4px}.rv-crosshair__inner--right{left:4px}.rv-crosshair__title{font-weight:bold;white-space:nowrap}.rv-crosshair__item{white-space:nowrap}.rv-hint{position:absolute;pointer-events:none}.rv-hint__content{border-radius:4px;padding:7px 10px;font-size:12px;background:#3a3a48;box-shadow:0 2px 4px rgba(0,0,0,0.5);color:#fff;text-align:left;white-space:nowrap}.rv-discrete-color-legend{box-sizing:border-box;overflow-y:auto;font-size:12px}.rv-discrete-color-legend.horizontal{white-space:nowrap}.rv-discrete-color-legend-item{color:#3a3a48;border-radius:1px;padding:9px 10px}.rv-discrete-color-legend-item.horizontal{display:inline-block}.rv-discrete-color-legend-item.horizontal .rv-discrete-color-legend-item__title{margin-left:0;display:block}.rv-discrete-color-legend-item__color{display:inline-block;vertical-align:middle;overflow:visible}.rv-discrete-color-legend-item__color__path{stroke:#dcdcdc;stroke-width:2px}.rv-discrete-color-legend-item__title{margin-left:10px}.rv-discrete-color-legend-item.disabled{color:#b8b8b8}.rv-discrete-color-legend-item.clickable{cursor:pointer}.rv-discrete-color-legend-item.clickable:hover{background:#f9f9f9}.rv-search-wrapper{display:flex;flex-direction:column}.rv-search-wrapper__form{flex:0}.rv-search-wrapper__form__input{width:100%;color:#a6a6a5;border:1px solid #e5e5e4;padding:7px 10px;font-size:12px;box-sizing:border-box;border-radius:2px;margin:0 0 9px;outline:0}.rv-search-wrapper__contents{flex:1;overflow:auto}.rv-continuous-color-legend{font-size:12px}.rv-continuous-color-legend .rv-gradient{height:4px;border-radius:2px;margin-bottom:5px}.rv-continuous-size-legend{font-size:12px}.rv-continuous-size-legend .rv-bubbles{text-align:justify;overflow:hidden;margin-bottom:5px;width:100%}.rv-continuous-size-legend .rv-bubble{background:#d8d9dc;display:inline-block;vertical-align:bottom}.rv-continuous-size-legend .rv-spacer{display:inline-block;font-size:0;line-height:0;width:100%}.rv-legend-titles{height:16px;position:relative}.rv-legend-titles__left,.rv-legend-titles__right,.rv-legend-titles__center{position:absolute;white-space:nowrap;overflow:hidden}.rv-legend-titles__center{display:block;text-align:center;width:100%}.rv-legend-titles__right{right:0}.rv-radial-chart .rv-xy-plot__series--label{pointer-events:none}<xhtml:br />
<xhtml:br />
/*]]&gt;*/</xhtml:style>
</svg>
